<svg width="375" height="108" viewBox="0 0 375 108" fill="none" xmlns="http://www.w3.org/2000/svg">
<g clip-path="url(#clip0_226_10118)">
<g style="mix-blend-mode:exclusion">
<path d="M19.0665 48.3744H20.9036L38.7588 28.4564H52.2953L30.3791 52.7898H28.0586L19.0987 62.362L19.0665 48.3744ZM8.49517 11.9549H20.0978V77.9612H8.49517V11.9549ZM23.3853 55.4004L31.2171 47.2141L53.4555 77.9612H39.5968L23.3853 55.4004ZM73.1626 78.9281C68.3926 78.9281 64.2135 77.8645 60.6253 75.7373C57.0586 73.6102 54.2975 70.6236 52.3423 66.7775C50.4085 62.9314 49.4416 58.473 49.4416 53.4022C49.4416 48.3314 50.4085 43.8622 52.3423 39.9946C54.2975 36.1271 57.0586 33.1297 60.6253 31.0026C64.2135 28.8754 68.3926 27.8118 73.1626 27.8118C77.9326 27.8118 82.101 28.8754 85.6677 31.0026C89.256 33.1297 92.017 36.1271 93.9508 39.9946C95.8845 43.8622 96.8514 48.3314 96.8514 53.4022C96.8514 58.473 95.8845 62.9314 93.9508 66.7775C92.017 70.6236 89.256 73.6102 85.6677 75.7373C82.101 77.8645 77.9326 78.9281 73.1626 78.9281ZM73.1949 69.6459C75.7732 69.6459 77.9541 68.9369 79.7375 67.5188C81.5209 66.0792 82.853 64.1347 83.734 61.6852C84.6364 59.2143 85.0876 56.4425 85.0876 53.37C85.0876 50.2759 84.6364 47.4934 83.734 45.0225C82.853 42.5515 81.5209 40.5963 79.7375 39.1567C77.9541 37.7171 75.7732 36.9973 73.1949 36.9973C70.595 36.9973 68.3926 37.7171 66.5878 39.1567C64.8044 40.5963 63.4508 42.5515 62.5269 45.0225C61.6244 47.4934 61.1732 50.2759 61.1732 53.37C61.1732 56.464 61.6244 59.2358 62.5269 61.6852C63.4508 64.1347 64.8044 66.0792 66.5878 67.5188C68.3926 68.9369 70.595 69.6459 73.1949 69.6459ZM111.896 77.9612H100.294V11.9549H111.896V77.9612ZM135.884 78.8314C131.952 78.8314 128.439 77.8215 125.345 75.8018C122.272 73.7821 119.855 70.8492 118.093 67.0031C116.331 63.157 115.45 58.5804 115.45 53.2733C115.45 47.9446 116.342 43.3573 118.125 39.5112C119.909 35.6651 122.347 32.7537 125.442 30.777C128.557 28.8002 132.049 27.8118 135.916 27.8118C138.452 27.8118 140.632 28.2201 142.459 29.0366C144.307 29.8316 145.768 30.8092 146.842 31.9695C147.916 33.1297 148.872 34.4619 149.71 35.9659C149.796 36.0734 149.861 36.1808 149.904 36.2882C149.947 36.3742 150.001 36.4816 150.065 36.6105H150.516V11.9549H162.119V77.9612H150.742V70.1616H150.065C149.979 70.355 149.893 70.5161 149.807 70.6451C148.969 72.1706 147.992 73.5135 146.874 74.6738C145.778 75.8125 144.307 76.7902 142.459 77.6067C140.611 78.4231 138.419 78.8314 135.884 78.8314ZM139.075 69.3236C141.524 69.3236 143.63 68.6576 145.392 67.3254C147.154 65.9932 148.496 64.1132 149.42 61.6852C150.344 59.2572 150.806 56.4318 150.806 53.2088C150.806 49.9858 150.344 47.1819 149.42 44.7969C148.518 42.3904 147.186 40.5533 145.424 39.2856C143.662 37.9964 141.546 37.3518 139.075 37.3518C136.539 37.3518 134.391 38.0179 132.629 39.3501C130.867 40.6822 129.535 42.5515 128.632 44.958C127.73 47.343 127.279 50.0933 127.279 53.2088C127.279 56.3458 127.741 59.1283 128.664 61.5563C129.588 63.9843 130.921 65.8858 132.661 67.2609C134.423 68.6361 136.561 69.3236 139.075 69.3236ZM196.31 42.573C195.944 40.6607 194.999 39.1674 193.473 38.0931C191.969 36.9973 190.003 36.4494 187.575 36.4494C185.942 36.4494 184.471 36.7072 183.16 37.2229C181.871 37.7171 180.85 38.4154 180.098 39.3178C179.346 40.1988 178.97 41.1871 178.97 42.283C178.97 43.6151 179.529 44.7539 180.646 45.6993C181.785 46.6232 183.579 47.3752 186.028 47.9554L194.44 49.7602C199.124 50.7701 202.605 52.3816 204.883 54.5947C207.182 56.7863 208.331 59.644 208.331 63.1678C208.331 66.2618 207.461 69.0013 205.721 71.3863C204.002 73.7498 201.552 75.5977 198.372 76.9298C195.192 78.262 191.486 78.9281 187.253 78.9281C183.085 78.9281 179.475 78.3372 176.424 77.1554C173.394 75.9522 170.999 74.2333 169.237 71.9987C167.475 69.7426 166.401 67.0353 166.014 63.8768H177.778C178.143 65.961 179.121 67.5295 180.71 68.5824C182.322 69.6352 184.492 70.1616 187.221 70.1616C189.069 70.1616 190.691 69.9253 192.088 69.4526C193.506 68.9584 194.591 68.2601 195.343 67.3576C196.116 66.4552 196.503 65.4024 196.503 64.1991C196.503 62.7595 195.912 61.5778 194.73 60.6539C193.57 59.7085 191.765 58.9672 189.316 58.43L181.323 56.7541C176.768 55.8087 173.308 54.165 170.945 51.8229C168.581 49.4594 167.41 46.505 167.432 42.9598C167.41 39.9517 168.227 37.2981 169.881 34.9991C171.536 32.7 173.867 30.9274 176.875 29.6812C179.905 28.4349 183.418 27.8118 187.414 27.8118C191.303 27.8118 194.698 28.4135 197.599 29.6167C200.5 30.8199 202.777 32.5281 204.432 34.7412C206.086 36.9543 207.053 39.5649 207.332 42.573H196.31ZM223.252 77.9612H211.649V11.9549H223.252V77.9612ZM250.752 78.9281C245.832 78.9281 241.556 77.8967 237.925 75.834C234.315 73.7498 231.544 70.7955 229.61 66.9709C227.676 63.1248 226.709 58.6341 226.709 53.4989C226.709 48.4496 227.676 43.9804 229.61 40.0913C231.544 36.2023 234.283 33.1834 237.828 31.0348C241.374 28.8862 245.467 27.8118 250.108 27.8118C254.319 27.8118 258.133 28.7143 261.549 30.5191C264.966 32.324 267.684 35.0957 269.703 38.8344C271.723 42.573 272.733 47.2356 272.733 52.8221V56.3995H232.156V48.5355H261.582C261.56 46.3009 261.077 44.2919 260.131 42.5086C259.186 40.7252 257.864 39.3393 256.167 38.3509C254.47 37.3626 252.514 36.8684 250.301 36.8684C247.959 36.8684 245.864 37.427 244.016 38.5443C242.19 39.6616 240.761 41.1764 239.73 43.0887C238.72 44.9795 238.215 47.0422 238.215 49.2768V56.045C238.215 58.9242 238.731 61.3951 239.762 63.4578C240.815 65.5205 242.298 67.1105 244.21 68.2278C246.122 69.3451 248.346 69.9038 250.881 69.9038C252.514 69.9038 253.997 69.6889 255.329 69.2592C256.683 68.808 257.821 68.1956 258.745 67.4221C259.669 66.6271 260.389 65.7247 260.905 64.7148H272.25C271.562 67.5725 270.251 70.0757 268.318 72.2243C266.405 74.3515 263.934 76.0059 260.905 77.1877C257.897 78.3479 254.513 78.9281 250.752 78.9281ZM298.11 78.9281C293.19 78.9281 288.914 77.8967 285.283 75.834C281.673 73.7498 278.901 70.7955 276.967 66.9709C275.034 63.1248 274.067 58.6341 274.067 53.4989C274.067 48.4496 275.034 43.9804 276.967 40.0913C278.901 36.2023 281.641 33.1834 285.186 31.0348C288.731 28.8862 292.824 27.8118 297.466 27.8118C301.677 27.8118 305.491 28.7143 308.907 30.5191C312.323 32.324 315.041 35.0957 317.061 38.8344C319.081 42.573 320.091 47.2356 320.091 52.8221V56.3995H279.514V48.5355H308.939C308.918 46.3009 308.434 44.2919 307.489 42.5086C306.544 40.7252 305.222 39.3393 303.525 38.3509C301.827 37.3626 299.872 36.8684 297.659 36.8684C295.317 36.8684 293.222 37.427 291.374 38.5443C289.548 39.6616 288.119 41.1764 287.088 43.0887C286.078 44.9795 285.573 47.0422 285.573 49.2768V56.045C285.573 58.9242 286.088 61.3951 287.12 63.4578C288.173 65.5205 289.655 67.1105 291.567 68.2278C293.48 69.3451 295.704 69.9038 298.239 69.9038C299.872 69.9038 301.355 69.6889 302.687 69.2592C304.04 68.808 305.179 68.1956 306.103 67.4221C307.027 66.6271 307.747 65.7247 308.262 64.7148H319.607C318.92 67.5725 317.609 70.0757 315.675 72.2243C313.763 74.3515 311.292 76.0059 308.262 77.1877C305.254 78.3479 301.87 78.9281 298.11 78.9281ZM323.552 28.4564H334.929V36.6105H335.638C335.724 36.4816 335.788 36.3742 335.831 36.2882C335.874 36.1808 335.928 36.0734 335.992 35.9659C336.809 34.4834 337.765 33.162 338.861 32.0017C339.978 30.8199 341.439 29.8316 343.244 29.0366C345.07 28.2201 347.262 27.8118 349.819 27.8118C353.686 27.8118 357.167 28.8002 360.261 30.777C363.377 32.7537 365.815 35.6651 367.577 39.5112C369.339 43.3573 370.22 47.9446 370.22 53.2733C370.22 58.5804 369.35 63.157 367.609 67.0031C365.869 70.8492 363.452 73.7821 360.358 75.8018C357.264 77.8215 353.761 78.8314 349.851 78.8314C347.273 78.8314 345.049 78.4124 343.179 77.5744C341.332 76.7365 339.838 75.7266 338.699 74.5448C337.582 73.3416 336.615 71.9665 335.799 70.4194C335.777 70.3765 335.745 70.3335 335.702 70.2905C335.681 70.2476 335.659 70.2046 335.638 70.1616H335.154V96.5255H323.552V28.4564ZM334.929 53.2088C334.929 56.4318 335.391 59.2572 336.314 61.6852C337.238 64.1132 338.571 65.9932 340.311 67.3254C342.073 68.6576 344.179 69.3236 346.628 69.3236C349.142 69.3236 351.291 68.6361 353.074 67.2609C354.857 65.8858 356.189 63.9843 357.07 61.5563C357.973 59.1283 358.424 56.3458 358.424 53.2088C358.424 50.0933 357.984 47.343 357.103 44.958C356.222 42.5515 354.889 40.6822 353.106 39.3501C351.323 38.0179 349.163 37.3518 346.628 37.3518C344.157 37.3518 342.041 37.9964 340.279 39.2856C338.538 40.5533 337.206 42.3904 336.282 44.7969C335.38 47.1819 334.929 49.9858 334.929 53.2088Z" fill="white"/>
<path d="M10.1605 87.8908H10.3552L12.2481 85.7793H13.6831L11.3597 88.3589H11.1137L10.1639 89.3737L10.1605 87.8908ZM9.03982 84.03H10.2698V91.0273H9.03982V84.03ZM10.6183 88.6357L11.4486 87.7678L13.8061 91.0273H12.3369L10.6183 88.6357ZM16.2911 91.1298C15.7854 91.1298 15.3424 91.0171 14.962 90.7916C14.5838 90.5661 14.2912 90.2495 14.0839 89.8418C13.8789 89.434 13.7764 88.9614 13.7764 88.4238C13.7764 87.8863 13.8789 87.4125 14.0839 87.0025C14.2912 86.5925 14.5838 86.2747 14.962 86.0492C15.3424 85.8237 15.7854 85.711 16.2911 85.711C16.7967 85.711 17.2386 85.8237 17.6167 86.0492C17.9971 86.2747 18.2898 86.5925 18.4948 87.0025C18.6998 87.4125 18.8023 87.8863 18.8023 88.4238C18.8023 88.9614 18.6998 89.434 18.4948 89.8418C18.2898 90.2495 17.9971 90.5661 17.6167 90.7916C17.2386 91.0171 16.7967 91.1298 16.2911 91.1298ZM16.2945 90.1458C16.5678 90.1458 16.799 90.0707 16.9881 89.9203C17.1771 89.7677 17.3183 89.5616 17.4117 89.3019C17.5074 89.04 17.5552 88.7461 17.5552 88.4204C17.5552 88.0924 17.5074 87.7974 17.4117 87.5355C17.3183 87.2735 17.1771 87.0663 16.9881 86.9136C16.799 86.761 16.5678 86.6847 16.2945 86.6847C16.0189 86.6847 15.7854 86.761 15.5941 86.9136C15.405 87.0663 15.2615 87.2735 15.1635 87.5355C15.0679 87.7974 15.02 88.0924 15.02 88.4204C15.02 88.7484 15.0679 89.0422 15.1635 89.3019C15.2615 89.5616 15.405 89.7677 15.5941 89.9203C15.7854 90.0707 16.0189 90.1458 16.2945 90.1458ZM20.793 91.0273H19.563V84.03H20.793V91.0273ZM23.7318 91.1196C23.3149 91.1196 22.9425 91.0125 22.6145 90.7984C22.2888 90.5843 22.0325 90.2734 21.8458 89.8657C21.659 89.4579 21.5656 88.9728 21.5656 88.4102C21.5656 87.8453 21.6601 87.359 21.8492 86.9512C22.0382 86.5435 22.2968 86.2349 22.6248 86.0253C22.955 85.8158 23.3252 85.711 23.7352 85.711C24.004 85.711 24.2352 85.7543 24.4288 85.8408C24.6247 85.9251 24.7796 86.0287 24.8934 86.1517C25.0073 86.2747 25.1087 86.4159 25.1975 86.5754C25.2066 86.5868 25.2135 86.5982 25.218 86.6096C25.2226 86.6187 25.2283 86.6301 25.2351 86.6437H25.2829V84.03H26.513V91.0273H25.3069V90.2005H25.2351C25.226 90.221 25.2169 90.2381 25.2078 90.2518C25.1189 90.4135 25.0153 90.5558 24.8969 90.6788C24.7807 90.7996 24.6247 90.9032 24.4288 90.9898C24.2329 91.0763 24.0005 91.1196 23.7318 91.1196ZM24.07 90.1117C24.3297 90.1117 24.5529 90.0411 24.7397 89.8998C24.9265 89.7586 25.0688 89.5593 25.1668 89.3019C25.2647 89.0445 25.3137 88.745 25.3137 88.4033C25.3137 88.0617 25.2647 87.7644 25.1668 87.5116C25.0711 87.2565 24.9299 87.0617 24.7431 86.9273C24.5563 86.7906 24.332 86.7223 24.07 86.7223C23.8012 86.7223 23.5735 86.7929 23.3867 86.9341C23.1999 87.0754 23.0587 87.2735 22.963 87.5287C22.8673 87.7815 22.8195 88.073 22.8195 88.4033C22.8195 88.7359 22.8685 89.0309 22.9664 89.2882C23.0644 89.5456 23.2056 89.7472 23.3901 89.893C23.5769 90.0388 23.8035 90.1117 24.07 90.1117ZM30.5333 87.2758C30.4946 87.0731 30.3944 86.9148 30.2327 86.8009C30.0732 86.6847 29.8648 86.6266 29.6074 86.6266C29.4343 86.6266 29.2783 86.654 29.1393 86.7086C29.0027 86.761 28.8945 86.8351 28.8147 86.9307C28.735 87.0241 28.6952 87.1289 28.6952 87.2451C28.6952 87.3863 28.7544 87.507 28.8728 87.6072C28.9935 87.7052 29.1837 87.7849 29.4434 87.8464L30.3352 88.0377C30.8317 88.1448 31.2007 88.3156 31.4422 88.5502C31.6859 88.7826 31.8078 89.0855 31.8078 89.4591C31.8078 89.7871 31.7155 90.0775 31.531 90.3303C31.3488 90.5809 31.0891 90.7768 30.752 90.918C30.4149 91.0592 30.022 91.1298 29.5732 91.1298C29.1314 91.1298 28.7487 91.0672 28.4252 90.9419C28.1041 90.8144 27.8501 90.6321 27.6633 90.3953C27.4765 90.1561 27.3626 89.8691 27.3216 89.5342H28.5687C28.6075 89.7552 28.7111 89.9215 28.8797 90.0331C29.0505 90.1447 29.2805 90.2005 29.5698 90.2005C29.7657 90.2005 29.9377 90.1754 30.0857 90.1253C30.2361 90.0729 30.3511 89.9989 30.4308 89.9033C30.5128 89.8076 30.5538 89.696 30.5538 89.5684C30.5538 89.4158 30.4912 89.2905 30.3659 89.1926C30.2429 89.0924 30.0516 89.0138 29.7919 88.9568L28.9446 88.7792C28.4617 88.6789 28.095 88.5047 27.8444 88.2564C27.5938 88.0059 27.4697 87.6927 27.472 87.3168C27.4697 86.9979 27.5563 86.7166 27.7316 86.4729C27.907 86.2292 28.1542 86.0413 28.4731 85.9091C28.7942 85.777 29.1667 85.711 29.5903 85.711C30.0026 85.711 30.3625 85.7748 30.67 85.9023C30.9775 86.0299 31.219 86.2109 31.3943 86.4456C31.5697 86.6802 31.6722 86.9569 31.7018 87.2758H30.5333ZM33.7853 91.0273H32.5553V84.03H33.7853V91.0273ZM37.0964 91.1298C36.5748 91.1298 36.1215 91.0205 35.7366 90.8018C35.3539 90.5809 35.0601 90.2677 34.8551 89.8623C34.6501 89.4545 34.5476 88.9785 34.5476 88.4341C34.5476 87.8988 34.6501 87.425 34.8551 87.0127C35.0601 86.6005 35.3505 86.2804 35.7263 86.0526C36.1022 85.8249 36.5361 85.711 37.0281 85.711C37.4746 85.711 37.8789 85.8066 38.241 85.998C38.6032 86.1893 38.8913 86.4831 39.1055 86.8795C39.3196 87.2758 39.4266 87.7701 39.4266 88.3623V88.7416H35.125V87.9079H38.2444C38.2422 87.671 38.1909 87.458 38.0907 87.269C37.9905 87.0799 37.8504 86.933 37.6704 86.8282C37.4905 86.7235 37.2832 86.6711 37.0486 86.6711C36.8003 86.6711 36.5782 86.7303 36.3823 86.8487C36.1887 86.9672 36.0373 87.1278 35.9279 87.3305C35.8209 87.5309 35.7673 87.7496 35.7673 87.9865V88.704C35.7673 89.0092 35.822 89.2712 35.9313 89.4898C36.043 89.7085 36.2001 89.8771 36.4028 89.9955C36.6056 90.1139 36.8413 90.1732 37.1101 90.1732C37.2832 90.1732 37.4404 90.1504 37.5816 90.1048C37.7251 90.057 37.8458 89.9921 37.9438 89.9101C38.0417 89.8258 38.118 89.7301 38.1727 89.6231H39.3754C39.3025 89.926 39.1635 90.1914 38.9585 90.4192C38.7558 90.6447 38.4939 90.8201 38.1727 90.9453C37.8538 91.0683 37.4951 91.1298 37.0964 91.1298ZM42.5126 91.1298C41.991 91.1298 41.5377 91.0205 41.1528 90.8018C40.7701 90.5809 40.4763 90.2677 40.2713 89.8623C40.0663 89.4545 39.9638 88.9785 39.9638 88.4341C39.9638 87.8988 40.0663 87.425 40.2713 87.0127C40.4763 86.6005 40.7667 86.2804 41.1426 86.0526C41.5184 85.8249 41.9523 85.711 42.4443 85.711C42.8908 85.711 43.2951 85.8066 43.6572 85.998C44.0194 86.1893 44.3075 86.4831 44.5217 86.8795C44.7358 87.2758 44.8428 87.7701 44.8428 88.3623V88.7416H40.5412V87.9079H43.6607C43.6584 87.671 43.6071 87.458 43.5069 87.269C43.4067 87.0799 43.2666 86.933 43.0866 86.8282C42.9067 86.7235 42.6994 86.6711 42.4648 86.6711C42.2165 86.6711 41.9944 86.7303 41.7986 86.8487C41.6049 86.9672 41.4535 87.1278 41.3441 87.3305C41.2371 87.5309 41.1836 87.7496 41.1836 87.9865V88.704C41.1836 89.0092 41.2382 89.2712 41.3476 89.4898C41.4592 89.7085 41.6163 89.8771 41.8191 89.9955C42.0218 90.1139 42.2575 90.1732 42.5263 90.1732C42.6994 90.1732 42.8566 90.1504 42.9978 90.1048C43.1413 90.057 43.262 89.9921 43.36 89.9101C43.4579 89.8258 43.5342 89.7301 43.5889 89.6231H44.7916C44.7187 89.926 44.5797 90.1914 44.3747 90.4192C44.172 90.6447 43.9101 90.8201 43.5889 90.9453C43.27 91.0683 42.9113 91.1298 42.5126 91.1298ZM45.6055 85.7793H46.8116V86.6437H46.8868C46.8959 86.6301 46.9027 86.6187 46.9073 86.6096C46.9118 86.5982 46.9175 86.5868 46.9243 86.5754C47.0109 86.4182 47.1123 86.2781 47.2284 86.1551C47.3469 86.0299 47.5018 85.9251 47.6931 85.8408C47.8867 85.7543 48.1191 85.711 48.3901 85.711C48.8001 85.711 49.1691 85.8158 49.4971 86.0253C49.8274 86.2349 50.0859 86.5435 50.2727 86.9512C50.4595 87.359 50.5529 87.8453 50.5529 88.4102C50.5529 88.9728 50.4606 89.4579 50.2761 89.8657C50.0916 90.2734 49.8354 90.5843 49.5074 90.7984C49.1794 91.0125 48.8081 91.1196 48.3935 91.1196C48.1202 91.1196 47.8844 91.0752 47.6863 90.9863C47.4904 90.8975 47.3321 90.7905 47.2114 90.6652C47.0929 90.5376 46.9904 90.3918 46.9038 90.2278C46.9016 90.2233 46.8982 90.2187 46.8936 90.2142C46.8913 90.2096 46.889 90.2051 46.8868 90.2005H46.8355V92.9954H45.6055V85.7793ZM46.8116 88.4033C46.8116 88.745 46.8606 89.0445 46.9585 89.3019C47.0565 89.5593 47.1977 89.7586 47.3822 89.8998C47.569 90.0411 47.7922 90.1117 48.0519 90.1117C48.3184 90.1117 48.5461 90.0388 48.7352 89.893C48.9243 89.7472 49.0655 89.5456 49.1589 89.2882C49.2545 89.0309 49.3024 88.7359 49.3024 88.4033C49.3024 88.073 49.2557 87.7815 49.1623 87.5287C49.0689 87.2735 48.9277 87.0754 48.7386 86.9341C48.5496 86.7929 48.3206 86.7223 48.0519 86.7223C47.7899 86.7223 47.5655 86.7906 47.3788 86.9273C47.1943 87.0617 47.053 87.2565 46.9551 87.5116C46.8594 87.7644 46.8116 88.0617 46.8116 88.4033ZM54.7111 91.0273H53.4811V84.03H54.6838V86.6711H54.7487C54.8307 86.4683 54.9423 86.2964 55.0835 86.1551C55.227 86.0116 55.4001 85.9023 55.6029 85.8271C55.8079 85.7497 56.0425 85.711 56.3067 85.711C56.6711 85.711 56.9889 85.7884 57.26 85.9433C57.5333 86.0959 57.744 86.3203 57.892 86.6164C58.0401 86.9125 58.1141 87.269 58.1141 87.6858V91.0273H56.8841V87.8737C56.8841 87.6391 56.8431 87.4375 56.7611 87.269C56.6791 87.0981 56.5607 86.9695 56.4058 86.8829C56.2509 86.7963 56.0653 86.7531 55.8489 86.7531C55.6279 86.7531 55.432 86.8009 55.2612 86.8966C55.0904 86.99 54.956 87.1278 54.858 87.31C54.7601 87.4899 54.7111 87.704 54.7111 87.9523V91.0273ZM61.4139 91.1298C60.8923 91.1298 60.439 91.0205 60.0541 90.8018C59.6714 90.5809 59.3776 90.2677 59.1726 89.8623C58.9676 89.4545 58.8651 88.9785 58.8651 88.4341C58.8651 87.8988 58.9676 87.425 59.1726 87.0127C59.3776 86.6005 59.668 86.2804 60.0438 86.0526C60.4197 85.8249 60.8536 85.711 61.3456 85.711C61.792 85.711 62.1963 85.8066 62.5585 85.998C62.9207 86.1893 63.2088 86.4831 63.4229 86.8795C63.637 87.2758 63.7441 87.7701 63.7441 88.3623V88.7416H59.4425V87.9079H62.5619C62.5596 87.671 62.5084 87.458 62.4082 87.269C62.3079 87.0799 62.1679 86.933 61.9879 86.8282C61.808 86.7235 61.6007 86.6711 61.3661 86.6711C61.1178 86.6711 60.8957 86.7303 60.6998 86.8487C60.5062 86.9672 60.3547 87.1278 60.2454 87.3305C60.1383 87.5309 60.0848 87.7496 60.0848 87.9865V88.704C60.0848 89.0092 60.1395 89.2712 60.2488 89.4898C60.3604 89.7085 60.5176 89.8771 60.7203 89.9955C60.923 90.1139 61.1588 90.1732 61.4276 90.1732C61.6007 90.1732 61.7579 90.1504 61.8991 90.1048C62.0426 90.057 62.1633 89.9921 62.2612 89.9101C62.3592 89.8258 62.4355 89.7301 62.4902 89.6231H63.6928C63.62 89.926 63.481 90.1914 63.276 90.4192C63.0733 90.6447 62.8113 90.8201 62.4902 90.9453C62.1713 91.0683 61.8125 91.1298 61.4139 91.1298ZM65.7368 91.0273H64.5068V84.03H65.7368V91.0273ZM66.7246 85.7793H67.9307V86.6437H68.0058C68.015 86.6301 68.0218 86.6187 68.0263 86.6096C68.0309 86.5982 68.0366 86.5868 68.0434 86.5754C68.13 86.4182 68.2313 86.2781 68.3475 86.1551C68.466 86.0299 68.6208 85.9251 68.8122 85.8408C69.0058 85.7543 69.2381 85.711 69.5092 85.711C69.9192 85.711 70.2882 85.8158 70.6162 86.0253C70.9465 86.2349 71.205 86.5435 71.3918 86.9512C71.5786 87.359 71.672 87.8453 71.672 88.4102C71.672 88.9728 71.5797 89.4579 71.3952 89.8657C71.2107 90.2734 70.9544 90.5843 70.6264 90.7984C70.2984 91.0125 69.9272 91.1196 69.5126 91.1196C69.2393 91.1196 69.0035 91.0752 68.8053 90.9863C68.6095 90.8975 68.4511 90.7905 68.3304 90.6652C68.212 90.5376 68.1095 90.3918 68.0229 90.2278C68.0206 90.2233 68.0172 90.2187 68.0127 90.2142C68.0104 90.2096 68.0081 90.2051 68.0058 90.2005H67.9546V92.9954H66.7246V85.7793ZM67.9307 88.4033C67.9307 88.745 67.9796 89.0445 68.0776 89.3019C68.1755 89.5593 68.3168 89.7586 68.5013 89.8998C68.688 90.0411 68.9113 90.1117 69.1709 90.1117C69.4374 90.1117 69.6652 90.0388 69.8543 89.893C70.0433 89.7472 70.1846 89.5456 70.2779 89.2882C70.3736 89.0309 70.4214 88.7359 70.4214 88.4033C70.4214 88.073 70.3747 87.7815 70.2814 87.5287C70.188 87.2735 70.0467 87.0754 69.8577 86.9341C69.6686 86.7929 69.4397 86.7223 69.1709 86.7223C68.909 86.7223 68.6846 86.7906 68.4978 86.9273C68.3133 87.0617 68.1721 87.2565 68.0742 87.5116C67.9785 87.7644 67.9307 88.0617 67.9307 88.4033ZM75.4191 87.2758C75.3804 87.0731 75.2802 86.9148 75.1184 86.8009C74.959 86.6847 74.7506 86.6266 74.4932 86.6266C74.3201 86.6266 74.164 86.654 74.0251 86.7086C73.8884 86.761 73.7802 86.8351 73.7005 86.9307C73.6208 87.0241 73.5809 87.1289 73.5809 87.2451C73.5809 87.3863 73.6401 87.507 73.7586 87.6072C73.8793 87.7052 74.0695 87.7849 74.3292 87.8464L75.2209 88.0377C75.7175 88.1448 76.0865 88.3156 76.3279 88.5502C76.5717 88.7826 76.6935 89.0855 76.6935 89.4591C76.6935 89.7871 76.6013 90.0775 76.4168 90.3303C76.2346 90.5809 75.9749 90.7768 75.6378 90.918C75.3007 91.0592 74.9077 91.1298 74.459 91.1298C74.0171 91.1298 73.6345 91.0672 73.311 90.9419C72.9898 90.8144 72.7359 90.6321 72.5491 90.3953C72.3623 90.1561 72.2484 89.8691 72.2074 89.5342H73.4545C73.4932 89.7552 73.5969 89.9215 73.7654 90.0331C73.9363 90.1447 74.1663 90.2005 74.4556 90.2005C74.6515 90.2005 74.8235 90.1754 74.9715 90.1253C75.1219 90.0729 75.2369 89.9989 75.3166 89.9033C75.3986 89.8076 75.4396 89.696 75.4396 89.5684C75.4396 89.4158 75.377 89.2905 75.2517 89.1926C75.1287 89.0924 74.9374 89.0138 74.6777 88.9568L73.8303 88.7792C73.3475 88.6789 72.9807 88.5047 72.7302 88.2564C72.4796 88.0059 72.3555 87.6927 72.3577 87.3168C72.3555 86.9979 72.442 86.7166 72.6174 86.4729C72.7928 86.2292 73.0399 86.0413 73.3588 85.9091C73.68 85.777 74.0524 85.711 74.4761 85.711C74.8884 85.711 75.2483 85.7748 75.5558 85.9023C75.8633 86.0299 76.1047 86.2109 76.2801 86.4456C76.4555 86.6802 76.558 86.9569 76.5876 87.2758H75.4191ZM82.2392 86.7291H79.1436V85.7793H82.2392V86.7291ZM79.9261 85.2805C79.9261 84.9434 79.9921 84.6575 80.1242 84.4229C80.2563 84.186 80.4454 84.0072 80.6914 83.8865C80.9374 83.7635 81.2278 83.702 81.5626 83.702C81.7016 83.702 81.8371 83.7088 81.9692 83.7225C82.1013 83.7361 82.2255 83.7543 82.3417 83.7771V84.7509C82.1822 84.7304 82.0364 84.7201 81.9043 84.7201C81.6515 84.7201 81.4636 84.7737 81.3406 84.8807C81.2176 84.9878 81.1561 85.1575 81.1561 85.3898V91.0273H79.9261V85.2805ZM82.9299 85.7793H84.1223V86.654H84.177C84.2385 86.4558 84.333 86.285 84.4606 86.1415C84.5881 85.9957 84.7385 85.8864 84.9116 85.8135C85.0847 85.7406 85.2715 85.7041 85.4719 85.7041C85.6291 85.7041 85.7783 85.7155 85.9195 85.7383V86.8692C85.8557 86.851 85.768 86.8351 85.6564 86.8214C85.5471 86.8055 85.4435 86.7975 85.3455 86.7975C85.12 86.7975 84.9173 86.8465 84.7373 86.9444C84.5574 87.0401 84.4162 87.1745 84.3137 87.3476C84.2112 87.5207 84.1599 87.7166 84.1599 87.9352V91.0273H82.9299V85.7793ZM88.621 91.1298C88.0993 91.1298 87.6461 91.0205 87.2611 90.8018C86.8784 90.5809 86.5846 90.2677 86.3796 89.8623C86.1746 89.4545 86.0721 88.9785 86.0721 88.4341C86.0721 87.8988 86.1746 87.425 86.3796 87.0127C86.5846 86.6005 86.875 86.2804 87.2509 86.0526C87.6267 85.8249 88.0606 85.711 88.5526 85.711C88.9991 85.711 89.4034 85.8066 89.7655 85.998C90.1277 86.1893 90.4159 86.4831 90.63 86.8795C90.8441 87.2758 90.9511 87.7701 90.9511 88.3623V88.7416H86.6495V87.9079H89.769C89.7667 87.671 89.7154 87.458 89.6152 87.269C89.515 87.0799 89.3749 86.933 89.195 86.8282C89.015 86.7235 88.8077 86.6711 88.5731 86.6711C88.3248 86.6711 88.1028 86.7303 87.9069 86.8487C87.7133 86.9672 87.5618 87.1278 87.4524 87.3305C87.3454 87.5309 87.2919 87.7496 87.2919 87.9865V88.704C87.2919 89.0092 87.3465 89.2712 87.4559 89.4898C87.5675 89.7085 87.7246 89.8771 87.9274 89.9955C88.1301 90.1139 88.3658 90.1732 88.6346 90.1732C88.8077 90.1732 88.9649 90.1504 89.1061 90.1048C89.2496 90.057 89.3704 89.9921 89.4683 89.9101C89.5662 89.8258 89.6425 89.7301 89.6972 89.6231H90.8999C90.827 89.926 90.6881 90.1914 90.4831 90.4192C90.2803 90.6447 90.0184 90.8201 89.6972 90.9453C89.3783 91.0683 89.0196 91.1298 88.621 91.1298ZM94.0372 91.1298C93.5155 91.1298 93.0623 91.0205 92.6773 90.8018C92.2947 90.5809 92.0008 90.2677 91.7958 89.8623C91.5908 89.4545 91.4883 88.9785 91.4883 88.4341C91.4883 87.8988 91.5908 87.425 91.7958 87.0127C92.0008 86.6005 92.2912 86.2804 92.6671 86.0526C93.0429 85.8249 93.4768 85.711 93.9688 85.711C94.4153 85.711 94.8196 85.8066 95.1818 85.998C95.5439 86.1893 95.8321 86.4831 96.0462 86.8795C96.2603 87.2758 96.3673 87.7701 96.3673 88.3623V88.7416H92.0657V87.9079H95.1852C95.1829 87.671 95.1316 87.458 95.0314 87.269C94.9312 87.0799 94.7911 86.933 94.6112 86.8282C94.4312 86.7235 94.2239 86.6711 93.9893 86.6711C93.741 86.6711 93.519 86.7303 93.3231 86.8487C93.1295 86.9672 92.978 87.1278 92.8687 87.3305C92.7616 87.5309 92.7081 87.7496 92.7081 87.9865V88.704C92.7081 89.0092 92.7627 89.2712 92.8721 89.4898C92.9837 89.7085 93.1409 89.8771 93.3436 89.9955C93.5463 90.1139 93.782 90.1732 94.0508 90.1732C94.2239 90.1732 94.3811 90.1504 94.5223 90.1048C94.6658 90.057 94.7866 89.9921 94.8845 89.9101C94.9824 89.8258 95.0588 89.7301 95.1134 89.6231H96.3161C96.2432 89.926 96.1043 90.1914 95.8993 90.4192C95.6965 90.6447 95.4346 90.8201 95.1134 90.9453C94.7945 91.0683 94.4358 91.1298 94.0372 91.1298ZM97.0549 90.2449L99.7643 86.8419V86.7975H97.1471V85.7793H101.274V86.6198L98.6915 89.9648V90.0092H101.363V91.0273H97.0549V90.2449ZM104.406 91.1298C103.884 91.1298 103.431 91.0205 103.046 90.8018C102.663 90.5809 102.369 90.2677 102.164 89.8623C101.959 89.4545 101.857 88.9785 101.857 88.4341C101.857 87.8988 101.959 87.425 102.164 87.0127C102.369 86.6005 102.66 86.2804 103.036 86.0526C103.412 85.8249 103.845 85.711 104.337 85.711C104.784 85.711 105.188 85.8066 105.55 85.998C105.913 86.1893 106.201 86.4831 106.415 86.8795C106.629 87.2758 106.736 87.7701 106.736 88.3623V88.7416H102.434V87.9079H105.554C105.551 87.671 105.5 87.458 105.4 87.269C105.3 87.0799 105.16 86.933 104.98 86.8282C104.8 86.7235 104.593 86.6711 104.358 86.6711C104.11 86.6711 103.888 86.7303 103.692 86.8487C103.498 86.9672 103.347 87.1278 103.237 87.3305C103.13 87.5309 103.077 87.7496 103.077 87.9865V88.704C103.077 89.0092 103.131 89.2712 103.241 89.4898C103.352 89.7085 103.509 89.8771 103.712 89.9955C103.915 90.1139 104.151 90.1732 104.419 90.1732C104.593 90.1732 104.75 90.1504 104.891 90.1048C105.034 90.057 105.155 89.9921 105.253 89.9101C105.351 89.8258 105.427 89.7301 105.482 89.6231H106.685C106.612 89.926 106.473 90.1914 106.268 90.4192C106.065 90.6447 105.803 90.8201 105.482 90.9453C105.163 91.0683 104.804 91.1298 104.406 91.1298ZM111.6 91.1196C111.183 91.1196 110.81 91.0125 110.482 90.7984C110.157 90.5843 109.9 90.2734 109.714 89.8657C109.527 89.4579 109.434 88.9728 109.434 88.4102C109.434 87.8453 109.528 87.359 109.717 86.9512C109.906 86.5435 110.165 86.2349 110.493 86.0253C110.823 85.8158 111.193 85.711 111.603 85.711C111.872 85.711 112.103 85.7543 112.297 85.8408C112.493 85.9251 112.648 86.0287 112.761 86.1517C112.875 86.2747 112.977 86.4159 113.065 86.5754C113.075 86.5868 113.081 86.5982 113.086 86.6096C113.091 86.6187 113.096 86.6301 113.103 86.6437H113.151V84.03H114.381V91.0273H113.175V90.2005H113.103C113.094 90.221 113.085 90.2381 113.076 90.2518C112.987 90.4135 112.883 90.5558 112.765 90.6788C112.649 90.7996 112.493 90.9032 112.297 90.9898C112.101 91.0763 111.869 91.1196 111.6 91.1196ZM111.938 90.1117C112.198 90.1117 112.421 90.0411 112.608 89.8998C112.794 89.7586 112.937 89.5593 113.035 89.3019C113.133 89.0445 113.182 88.745 113.182 88.4033C113.182 88.0617 113.133 87.7644 113.035 87.5116C112.939 87.2565 112.798 87.0617 112.611 86.9273C112.424 86.7906 112.2 86.7223 111.938 86.7223C111.669 86.7223 111.441 86.7929 111.255 86.9341C111.068 87.0754 110.927 87.2735 110.831 87.5287C110.735 87.7815 110.687 88.073 110.687 88.4033C110.687 88.7359 110.736 89.0309 110.834 89.2882C110.932 89.5456 111.074 89.7472 111.258 89.893C111.445 90.0388 111.671 90.1117 111.938 90.1117ZM115.432 85.7793H116.662V91.0273H115.432V85.7793ZM116.051 85.0311C115.921 85.0311 115.801 85.0014 115.692 84.9422C115.585 84.8807 115.498 84.7999 115.432 84.6996C115.366 84.5971 115.333 84.4855 115.333 84.3648C115.333 84.2418 115.366 84.129 115.432 84.0265C115.498 83.9218 115.585 83.8409 115.692 83.784C115.801 83.7247 115.921 83.6951 116.051 83.6951C116.178 83.6951 116.297 83.7247 116.406 83.784C116.515 83.8409 116.602 83.9218 116.666 84.0265C116.729 84.129 116.761 84.2418 116.761 84.3648C116.761 84.4855 116.729 84.5971 116.666 84.6996C116.602 84.7999 116.515 84.8807 116.406 84.9422C116.297 85.0014 116.178 85.0311 116.051 85.0311ZM120.619 87.2758C120.58 87.0731 120.48 86.9148 120.318 86.8009C120.159 86.6847 119.951 86.6266 119.693 86.6266C119.52 86.6266 119.364 86.654 119.225 86.7086C119.088 86.761 118.98 86.8351 118.901 86.9307C118.821 87.0241 118.781 87.1289 118.781 87.2451C118.781 87.3863 118.84 87.507 118.959 87.6072C119.079 87.7052 119.27 87.7849 119.529 87.8464L120.421 88.0377C120.918 88.1448 121.287 88.3156 121.528 88.5502C121.772 88.7826 121.894 89.0855 121.894 89.4591C121.894 89.7871 121.801 90.0775 121.617 90.3303C121.435 90.5809 121.175 90.7768 120.838 90.918C120.501 91.0592 120.108 91.1298 119.659 91.1298C119.217 91.1298 118.834 91.0672 118.511 90.9419C118.19 90.8144 117.936 90.6321 117.749 90.3953C117.562 90.1561 117.448 89.8691 117.407 89.5342H118.655C118.693 89.7552 118.797 89.9215 118.965 90.0331C119.136 90.1447 119.366 90.2005 119.656 90.2005C119.851 90.2005 120.023 90.1754 120.172 90.1253C120.322 90.0729 120.437 89.9989 120.517 89.9033C120.599 89.8076 120.64 89.696 120.64 89.5684C120.64 89.4158 120.577 89.2905 120.452 89.1926C120.329 89.0924 120.137 89.0138 119.878 88.9568L119.03 88.7792C118.547 88.6789 118.181 88.5047 117.93 88.2564C117.68 88.0059 117.555 87.6927 117.558 87.3168C117.555 86.9979 117.642 86.7166 117.817 86.4729C117.993 86.2292 118.24 86.0413 118.559 85.9091C118.88 85.777 119.252 85.711 119.676 85.711C120.088 85.711 120.448 85.7748 120.756 85.9023C121.063 86.0299 121.305 86.2109 121.48 86.4456C121.656 86.6802 121.758 86.9569 121.788 87.2758H120.619ZM122.641 85.7793H123.833V86.654H123.888C123.95 86.4558 124.044 86.285 124.172 86.1415C124.299 85.9957 124.45 85.8864 124.623 85.8135C124.796 85.7406 124.983 85.7041 125.183 85.7041C125.34 85.7041 125.489 85.7155 125.631 85.7383V86.8692C125.567 86.851 125.479 86.8351 125.368 86.8214C125.258 86.8055 125.155 86.7975 125.057 86.7975C124.831 86.7975 124.628 86.8465 124.448 86.9444C124.269 87.0401 124.127 87.1745 124.025 87.3476C123.922 87.5207 123.871 87.7166 123.871 87.9352V91.0273H122.641V85.7793ZM129.518 85.7793H130.745V91.0273H129.556V90.098H129.501C129.421 90.2962 129.306 90.4704 129.156 90.6208C129.008 90.7688 128.829 90.885 128.619 90.9693C128.412 91.0535 128.18 91.0957 127.922 91.0957C127.576 91.0957 127.271 91.0182 127.007 90.8633C126.745 90.7062 126.54 90.4795 126.392 90.1834C126.246 89.8873 126.173 89.5331 126.173 89.1208V85.7793H127.403V88.9329C127.403 89.1516 127.445 89.3429 127.529 89.5069C127.614 89.6709 127.73 89.7973 127.878 89.8862C128.026 89.975 128.199 90.0194 128.397 90.0194C128.586 90.0194 128.767 89.9739 128.941 89.8828C129.114 89.7894 129.253 89.6538 129.357 89.4762C129.464 89.2962 129.518 89.0776 129.518 88.8202V85.7793ZM131.734 85.7793H132.94V86.6437H133.015C133.025 86.6301 133.031 86.6187 133.036 86.6096C133.04 86.5982 133.046 86.5868 133.053 86.5754C133.14 86.4182 133.241 86.2781 133.357 86.1551C133.476 86.0299 133.63 85.9251 133.822 85.8408C134.015 85.7543 134.248 85.711 134.519 85.711C134.929 85.711 135.298 85.8158 135.626 86.0253C135.956 86.2349 136.215 86.5435 136.401 86.9512C136.588 87.359 136.682 87.8453 136.682 88.4102C136.682 88.9728 136.589 89.4579 136.405 89.8657C136.22 90.2734 135.964 90.5843 135.636 90.7984C135.308 91.0125 134.937 91.1196 134.522 91.1196C134.249 91.1196 134.013 91.0752 133.815 90.9863C133.619 90.8975 133.461 90.7905 133.34 90.6652C133.222 90.5376 133.119 90.3918 133.033 90.2278C133.03 90.2233 133.027 90.2187 133.022 90.2142C133.02 90.2096 133.018 90.2051 133.015 90.2005H132.964V92.9954H131.734V85.7793ZM132.94 88.4033C132.94 88.745 132.989 89.0445 133.087 89.3019C133.185 89.5593 133.326 89.7586 133.511 89.8998C133.698 90.0411 133.921 90.1117 134.181 90.1117C134.447 90.1117 134.675 90.0388 134.864 89.893C135.053 89.7472 135.194 89.5456 135.288 89.2882C135.383 89.0309 135.431 88.7359 135.431 88.4033C135.431 88.073 135.384 87.7815 135.291 87.5287C135.198 87.2735 135.056 87.0754 134.867 86.9341C134.678 86.7929 134.449 86.7223 134.181 86.7223C133.919 86.7223 133.694 86.7906 133.507 86.9273C133.323 87.0617 133.182 87.2565 133.084 87.5116C132.988 87.7644 132.94 88.0617 132.94 88.4033ZM140.07 86.7291H137.063V85.7793H140.07V86.7291ZM139.038 84.522V89.4488C139.038 89.6083 139.063 89.7324 139.113 89.8213C139.163 89.9101 139.228 89.9727 139.308 90.0092C139.388 90.0433 139.486 90.0616 139.602 90.0638C139.698 90.0661 139.877 90.0581 140.142 90.0399V91.0478C139.937 91.082 139.704 91.0991 139.445 91.0991C139.128 91.0991 138.847 91.0456 138.601 90.9385C138.355 90.8315 138.16 90.6709 138.016 90.4568C137.875 90.2404 137.806 89.9727 137.808 89.6538V84.522H139.038ZM145.256 93.1047C144.799 93.1047 144.398 93.0398 144.054 92.9099C143.71 92.7824 143.439 92.5967 143.241 92.353C143.045 92.1093 142.932 91.8234 142.902 91.4954H144.132C144.162 91.648 144.227 91.7745 144.327 91.8747C144.427 91.9772 144.557 92.0524 144.717 92.1002C144.878 92.1503 145.065 92.1754 145.277 92.1754C145.664 92.1754 145.965 92.0865 146.179 91.9089C146.393 91.7312 146.5 91.4556 146.5 91.082V90.0843H146.439L146.425 90.1083C146.338 90.2677 146.236 90.4066 146.117 90.5251C146.001 90.6413 145.843 90.7415 145.642 90.8258C145.442 90.91 145.204 90.9522 144.928 90.9522C144.516 90.9522 144.146 90.8531 143.818 90.6549C143.492 90.4545 143.235 90.1606 143.046 89.7734C142.857 89.3839 142.762 88.9136 142.762 88.3623C142.762 87.802 142.857 87.3225 143.046 86.9239C143.235 86.523 143.493 86.2212 143.821 86.0185C144.152 85.8135 144.522 85.711 144.932 85.711C145.198 85.711 145.429 85.7543 145.625 85.8408C145.821 85.9251 145.976 86.0287 146.09 86.1517C146.204 86.2724 146.308 86.4114 146.401 86.5686C146.415 86.5936 146.428 86.6187 146.442 86.6437H146.503V85.7793H147.716V91.1128C147.716 91.5478 147.612 91.9145 147.402 92.2129C147.195 92.5136 146.905 92.7368 146.534 92.8826C146.165 93.0307 145.739 93.1047 145.256 93.1047ZM145.267 89.9853C145.529 89.9853 145.752 89.9215 145.936 89.7939C146.123 89.6641 146.265 89.4796 146.363 89.2404C146.461 89.0012 146.51 88.7142 146.51 88.3794C146.51 88.0469 146.461 87.7553 146.363 87.5047C146.268 87.2542 146.126 87.0617 145.94 86.9273C145.753 86.7906 145.529 86.7223 145.267 86.7223C145 86.7223 144.772 86.7929 144.583 86.9341C144.397 87.0731 144.255 87.2678 144.16 87.5184C144.064 87.769 144.016 88.056 144.016 88.3794C144.016 88.7029 144.065 88.9853 144.163 89.2267C144.261 89.4682 144.402 89.655 144.587 89.7871C144.771 89.9192 144.998 89.9853 145.267 89.9853ZM148.703 85.7793H149.895V86.654H149.95C150.011 86.4558 150.106 86.285 150.234 86.1415C150.361 85.9957 150.511 85.8864 150.685 85.8135C150.858 85.7406 151.044 85.7041 151.245 85.7041C151.402 85.7041 151.551 85.7155 151.692 85.7383V86.8692C151.629 86.851 151.541 86.8351 151.429 86.8214C151.32 86.8055 151.216 86.7975 151.118 86.7975C150.893 86.7975 150.69 86.8465 150.51 86.9444C150.33 87.0401 150.189 87.1745 150.087 87.3476C149.984 87.5207 149.933 87.7166 149.933 87.9352V91.0273H148.703V85.7793ZM155.261 88.7074C155.147 88.712 154.96 88.7234 154.701 88.7416C154.441 88.7575 154.22 88.7735 154.038 88.7894C153.735 88.8122 153.499 88.8862 153.331 89.0115C153.164 89.1368 153.081 89.3122 153.081 89.5377C153.081 89.6857 153.119 89.811 153.194 89.9135C153.269 90.016 153.373 90.0946 153.505 90.1493C153.639 90.2016 153.793 90.2278 153.966 90.2278C154.21 90.2278 154.425 90.1789 154.612 90.0809C154.799 89.9807 154.942 89.8486 155.042 89.6846C155.143 89.5206 155.193 89.3406 155.193 89.1447L155.186 87.4672C155.186 87.294 155.149 87.1471 155.077 87.0264C155.004 86.9034 154.897 86.81 154.755 86.7462C154.614 86.6825 154.441 86.6506 154.236 86.6506C154.056 86.6506 153.899 86.6768 153.765 86.7291C153.63 86.7793 153.52 86.851 153.433 86.9444C153.347 87.0378 153.288 87.1483 153.259 87.2758H152.066C152.096 86.9751 152.203 86.7064 152.388 86.4695C152.572 86.2326 152.825 86.0469 153.146 85.9126C153.467 85.7782 153.842 85.711 154.27 85.711C154.641 85.711 154.987 85.7679 155.305 85.8818C155.627 85.9957 155.891 86.1882 156.098 86.4592C156.308 86.728 156.412 87.0811 156.412 87.5184V91.0273H155.234V90.3064H155.193C155.113 90.4636 155.004 90.6037 154.865 90.7267C154.728 90.8474 154.557 90.9453 154.352 91.0205C154.147 91.0957 153.914 91.1333 153.652 91.1333C153.312 91.1333 153.009 91.0729 152.743 90.9522C152.479 90.8315 152.27 90.6526 152.118 90.4158C151.967 90.1766 151.892 89.8896 151.892 89.5547C151.892 89.0126 152.073 88.622 152.435 88.3828C152.8 88.1414 153.27 88.0002 153.847 87.9592C153.997 87.95 154.179 87.9398 154.393 87.9284C154.61 87.917 154.809 87.9068 154.991 87.8977C155.103 87.8931 155.189 87.8897 155.251 87.8874L155.261 88.7074ZM159.996 91.0273H158.639L156.77 85.7793H158.079L159.292 89.6812H159.347L160.563 85.7793H161.871L159.996 91.0273ZM162.449 85.7793H163.679V91.0273H162.449V85.7793ZM163.067 85.0311C162.937 85.0311 162.818 85.0014 162.708 84.9422C162.601 84.8807 162.515 84.7999 162.449 84.6996C162.383 84.5971 162.35 84.4855 162.35 84.3648C162.35 84.2418 162.383 84.129 162.449 84.0265C162.515 83.9218 162.601 83.8409 162.708 83.784C162.818 83.7247 162.937 83.6951 163.067 83.6951C163.195 83.6951 163.313 83.7247 163.423 83.784C163.532 83.8409 163.618 83.9218 163.682 84.0265C163.746 84.129 163.778 84.2418 163.778 84.3648C163.778 84.4855 163.746 84.5971 163.682 84.6996C163.618 84.7999 163.532 84.8807 163.423 84.9422C163.313 85.0014 163.195 85.0311 163.067 85.0311ZM167.277 86.7291H164.27V85.7793H167.277V86.7291ZM166.245 84.522V89.4488C166.245 89.6083 166.27 89.7324 166.32 89.8213C166.37 89.9101 166.435 89.9727 166.515 90.0092C166.595 90.0433 166.693 90.0616 166.809 90.0638C166.905 90.0661 167.084 90.0581 167.349 90.0399V91.0478C167.144 91.082 166.911 91.0991 166.652 91.0991C166.335 91.0991 166.054 91.0456 165.808 90.9385C165.562 90.8315 165.367 90.6709 165.224 90.4568C165.082 90.2404 165.013 89.9727 165.015 89.6538V84.522H166.245ZM168.772 92.9954C168.497 92.9954 168.284 92.9874 168.133 92.9714L168.137 91.984C168.171 91.9863 168.205 91.9886 168.239 91.9909C168.273 91.9931 168.309 91.9943 168.345 91.9943C168.434 91.9965 168.538 91.9988 168.656 92.0011C168.779 92.0011 168.882 91.9897 168.964 91.9669C169.048 91.9464 169.128 91.8929 169.203 91.8063C169.278 91.7221 169.349 91.5922 169.415 91.4168L169.524 91.1367L167.617 85.7793H168.923L170.136 89.7461H170.19L171.41 85.7793H172.719L170.614 91.6663C170.459 92.099 170.232 92.4282 169.934 92.6537C169.638 92.8815 169.251 92.9954 168.772 92.9954ZM176.47 88.6186H173.323V87.6038H176.47V88.6186ZM180.133 86.7291H177.037V85.7793H180.133V86.7291ZM177.82 85.2805C177.82 84.9434 177.886 84.6575 178.018 84.4229C178.15 84.186 178.339 84.0072 178.585 83.8865C178.831 83.7635 179.122 83.702 179.456 83.702C179.595 83.702 179.731 83.7088 179.863 83.7225C179.995 83.7361 180.119 83.7543 180.235 83.7771V84.7509C180.076 84.7304 179.93 84.7201 179.798 84.7201C179.545 84.7201 179.357 84.7737 179.234 84.8807C179.111 84.9878 179.05 85.1575 179.05 85.3898V91.0273H177.82V85.2805ZM180.824 85.7793H182.016V86.654H182.071C182.132 86.4558 182.227 86.285 182.354 86.1415C182.482 85.9957 182.632 85.8864 182.805 85.8135C182.978 85.7406 183.165 85.7041 183.366 85.7041C183.523 85.7041 183.672 85.7155 183.813 85.7383V86.8692C183.749 86.851 183.662 86.8351 183.55 86.8214C183.441 86.8055 183.337 86.7975 183.239 86.7975C183.014 86.7975 182.811 86.8465 182.631 86.9444C182.451 87.0401 182.31 87.1745 182.207 87.3476C182.105 87.5207 182.054 87.7166 182.054 87.9352V91.0273H180.824V85.7793ZM186.515 91.1298C185.993 91.1298 185.54 91.0205 185.155 90.8018C184.772 90.5809 184.478 90.2677 184.273 89.8623C184.068 89.4545 183.966 88.9785 183.966 88.4341C183.966 87.8988 184.068 87.425 184.273 87.0127C184.478 86.6005 184.769 86.2804 185.145 86.0526C185.52 85.8249 185.954 85.711 186.446 85.711C186.893 85.711 187.297 85.8066 187.659 85.998C188.021 86.1893 188.31 86.4831 188.524 86.8795C188.738 87.2758 188.845 87.7701 188.845 88.3623V88.7416H184.543V87.9079H187.663C187.66 87.671 187.609 87.458 187.509 87.269C187.409 87.0799 187.269 86.933 187.089 86.8282C186.909 86.7235 186.701 86.6711 186.467 86.6711C186.219 86.6711 185.996 86.7303 185.801 86.8487C185.607 86.9672 185.456 87.1278 185.346 87.3305C185.239 87.5309 185.186 87.7496 185.186 87.9865V88.704C185.186 89.0092 185.24 89.2712 185.35 89.4898C185.461 89.7085 185.618 89.8771 185.821 89.9955C186.024 90.1139 186.26 90.1732 186.528 90.1732C186.701 90.1732 186.859 90.1504 187 90.1048C187.143 90.057 187.264 89.9921 187.362 89.9101C187.46 89.8258 187.536 89.7301 187.591 89.6231H188.794C188.721 89.926 188.582 90.1914 188.377 90.4192C188.174 90.6447 187.912 90.8201 187.591 90.9453C187.272 91.0683 186.913 91.1298 186.515 91.1298ZM191.931 91.1298C191.409 91.1298 190.956 91.0205 190.571 90.8018C190.188 90.5809 189.895 90.2677 189.69 89.8623C189.485 89.4545 189.382 88.9785 189.382 88.4341C189.382 87.8988 189.485 87.425 189.69 87.0127C189.895 86.6005 190.185 86.2804 190.561 86.0526C190.937 85.8249 191.371 85.711 191.863 85.711C192.309 85.711 192.713 85.8066 193.075 85.998C193.438 86.1893 193.726 86.4831 193.94 86.8795C194.154 87.2758 194.261 87.7701 194.261 88.3623V88.7416H189.959V87.9079H193.079C193.077 87.671 193.025 87.458 192.925 87.269C192.825 87.0799 192.685 86.933 192.505 86.8282C192.325 86.7235 192.118 86.6711 191.883 86.6711C191.635 86.6711 191.413 86.7303 191.217 86.8487C191.023 86.9672 190.872 87.1278 190.762 87.3305C190.655 87.5309 190.602 87.7496 190.602 87.9865V88.704C190.602 89.0092 190.656 89.2712 190.766 89.4898C190.877 89.7085 191.035 89.8771 191.237 89.9955C191.44 90.1139 191.676 90.1732 191.945 90.1732C192.118 90.1732 192.275 90.1504 192.416 90.1048C192.56 90.057 192.68 89.9921 192.778 89.9101C192.876 89.8258 192.952 89.7301 193.007 89.6231H194.21C194.137 89.926 193.998 90.1914 193.793 90.4192C193.59 90.6447 193.328 90.8201 193.007 90.9453C192.688 91.0683 192.33 91.1298 191.931 91.1298ZM200.297 88.7074C200.183 88.712 199.996 88.7234 199.736 88.7416C199.477 88.7575 199.256 88.7735 199.074 88.7894C198.771 88.8122 198.535 88.8862 198.366 89.0115C198.2 89.1368 198.117 89.3122 198.117 89.5377C198.117 89.6857 198.155 89.811 198.23 89.9135C198.305 90.016 198.408 90.0946 198.541 90.1493C198.675 90.2016 198.829 90.2278 199.002 90.2278C199.246 90.2278 199.461 90.1789 199.648 90.0809C199.834 89.9807 199.978 89.8486 200.078 89.6846C200.178 89.5206 200.228 89.3406 200.228 89.1447L200.222 87.4672C200.222 87.294 200.185 87.1471 200.112 87.0264C200.039 86.9034 199.932 86.81 199.791 86.7462C199.65 86.6825 199.477 86.6506 199.272 86.6506C199.092 86.6506 198.935 86.6768 198.8 86.7291C198.666 86.7793 198.555 86.851 198.469 86.9444C198.382 87.0378 198.324 87.1483 198.295 87.2758H197.102C197.132 86.9751 197.239 86.7064 197.423 86.4695C197.608 86.2326 197.861 86.0469 198.182 85.9126C198.503 85.7782 198.878 85.711 199.306 85.711C199.677 85.711 200.022 85.7679 200.341 85.8818C200.662 85.9957 200.927 86.1882 201.134 86.4592C201.343 86.728 201.448 87.0811 201.448 87.5184V91.0273H200.269V90.3064H200.228C200.149 90.4636 200.039 90.6037 199.9 90.7267C199.764 90.8474 199.593 90.9453 199.388 91.0205C199.183 91.0957 198.949 91.1333 198.688 91.1333C198.348 91.1333 198.045 91.0729 197.779 90.9522C197.514 90.8315 197.306 90.6526 197.153 90.4158C197.003 90.1766 196.928 89.8896 196.928 89.5547C196.928 89.0126 197.109 88.622 197.471 88.3828C197.836 88.1414 198.306 88.0002 198.882 87.9592C199.033 87.95 199.215 87.9398 199.429 87.9284C199.645 87.917 199.845 87.9068 200.027 87.8977C200.138 87.8931 200.225 87.8897 200.287 87.8874L200.297 88.7074ZM205.027 86.7291H202.02V85.7793H205.027V86.7291ZM203.995 84.522V89.4488C203.995 89.6083 204.02 89.7324 204.07 89.8213C204.12 89.9101 204.185 89.9727 204.265 90.0092C204.344 90.0433 204.442 90.0616 204.558 90.0638C204.654 90.0661 204.834 90.0581 205.098 90.0399V91.0478C204.893 91.082 204.661 91.0991 204.401 91.0991C204.085 91.0991 203.803 91.0456 203.557 90.9385C203.311 90.8315 203.117 90.6709 202.973 90.4568C202.832 90.2404 202.762 89.9727 202.765 89.6538V84.522H203.995ZM208.394 86.7291H205.388V85.7793H208.394V86.7291ZM207.362 84.522V89.4488C207.362 89.6083 207.387 89.7324 207.438 89.8213C207.488 89.9101 207.553 89.9727 207.632 90.0092C207.712 90.0433 207.81 90.0616 207.926 90.0638C208.022 90.0661 208.202 90.0581 208.466 90.0399V91.0478C208.261 91.082 208.029 91.0991 207.769 91.0991C207.452 91.0991 207.171 91.0456 206.925 90.9385C206.679 90.8315 206.484 90.6709 206.341 90.4568C206.2 90.2404 206.13 89.9727 206.132 89.6538V84.522H207.362ZM211.417 91.1298C210.895 91.1298 210.442 91.0205 210.057 90.8018C209.674 90.5809 209.381 90.2677 209.176 89.8623C208.971 89.4545 208.868 88.9785 208.868 88.4341C208.868 87.8988 208.971 87.425 209.176 87.0127C209.381 86.6005 209.671 86.2804 210.047 86.0526C210.423 85.8249 210.857 85.711 211.349 85.711C211.795 85.711 212.199 85.8066 212.562 85.998C212.924 86.1893 213.212 86.4831 213.426 86.8795C213.64 87.2758 213.747 87.7701 213.747 88.3623V88.7416H209.446V87.9079H212.565C212.563 87.671 212.511 87.458 212.411 87.269C212.311 87.0799 212.171 86.933 211.991 86.8282C211.811 86.7235 211.604 86.6711 211.369 86.6711C211.121 86.6711 210.899 86.7303 210.703 86.8487C210.509 86.9672 210.358 87.1278 210.248 87.3305C210.141 87.5309 210.088 87.7496 210.088 87.9865V88.704C210.088 89.0092 210.143 89.2712 210.252 89.4898C210.363 89.7085 210.521 89.8771 210.723 89.9955C210.926 90.1139 211.162 90.1732 211.431 90.1732C211.604 90.1732 211.761 90.1504 211.902 90.1048C212.046 90.057 212.166 89.9921 212.264 89.9101C212.362 89.8258 212.439 89.7301 212.493 89.6231H213.696C213.623 89.926 213.484 90.1914 213.279 90.4192C213.076 90.6447 212.814 90.8201 212.493 90.9453C212.174 91.0683 211.816 91.1298 211.417 91.1298ZM214.51 85.7793H215.685V86.6711H215.75C215.859 86.3681 216.04 86.1324 216.293 85.9638C216.546 85.7953 216.846 85.711 217.192 85.711C217.427 85.711 217.638 85.7497 217.827 85.8271C218.019 85.9023 218.18 86.0116 218.313 86.1551C218.445 86.2986 218.544 86.4706 218.61 86.6711H218.665C218.742 86.4752 218.857 86.3055 219.01 86.162C219.162 86.0185 219.343 85.908 219.553 85.8306C219.762 85.7508 219.992 85.711 220.243 85.711C220.566 85.711 220.851 85.7804 221.097 85.9194C221.345 86.0561 221.538 86.2599 221.675 86.531C221.814 86.7998 221.883 87.1243 221.883 87.5047V91.0273H220.65V87.6927C220.65 87.3806 220.566 87.1448 220.4 86.9854C220.234 86.826 220.018 86.7462 219.751 86.7462C219.553 86.7462 219.382 86.7884 219.239 86.8726C219.095 86.9546 218.986 87.072 218.911 87.2246C218.835 87.3772 218.798 87.5514 218.798 87.7473V91.0273H217.592V87.6414C217.592 87.4637 217.555 87.3077 217.482 87.1733C217.409 87.0366 217.306 86.9319 217.171 86.859C217.037 86.7838 216.882 86.7462 216.707 86.7462C216.529 86.7462 216.366 86.7918 216.218 86.8829C216.072 86.974 215.956 87.1027 215.87 87.269C215.783 87.4353 215.74 87.6232 215.74 87.8327V91.0273H214.51V85.7793ZM222.864 85.7793H224.07V86.6437H224.145C224.154 86.6301 224.161 86.6187 224.165 86.6096C224.17 86.5982 224.176 86.5868 224.182 86.5754C224.269 86.4182 224.37 86.2781 224.486 86.1551C224.605 86.0299 224.76 85.9251 224.951 85.8408C225.145 85.7543 225.377 85.711 225.648 85.711C226.058 85.711 226.427 85.8158 226.755 86.0253C227.085 86.2349 227.344 86.5435 227.531 86.9512C227.717 87.359 227.811 87.8453 227.811 88.4102C227.811 88.9728 227.719 89.4579 227.534 89.8657C227.35 90.2734 227.093 90.5843 226.765 90.7984C226.437 91.0125 226.066 91.1196 225.652 91.1196C225.378 91.1196 225.142 91.0752 224.944 90.9863C224.748 90.8975 224.59 90.7905 224.469 90.6652C224.351 90.5376 224.248 90.3918 224.162 90.2278C224.16 90.2233 224.156 90.2187 224.152 90.2142C224.149 90.2096 224.147 90.2051 224.145 90.2005H224.094V92.9954H222.864V85.7793ZM224.07 88.4033C224.07 88.745 224.119 89.0445 224.217 89.3019C224.314 89.5593 224.456 89.7586 224.64 89.8998C224.827 90.0411 225.05 90.1117 225.31 90.1117C225.576 90.1117 225.804 90.0388 225.993 89.893C226.182 89.7472 226.323 89.5456 226.417 89.2882C226.513 89.0309 226.56 88.7359 226.56 88.4033C226.56 88.073 226.514 87.7815 226.42 87.5287C226.327 87.2735 226.186 87.0754 225.997 86.9341C225.808 86.7929 225.579 86.7223 225.31 86.7223C225.048 86.7223 224.824 86.7906 224.637 86.9273C224.452 87.0617 224.311 87.2565 224.213 87.5116C224.117 87.7644 224.07 88.0617 224.07 88.4033ZM231.199 86.7291H228.193V85.7793H231.199V86.7291ZM230.167 84.522V89.4488C230.167 89.6083 230.193 89.7324 230.243 89.8213C230.293 89.9101 230.358 89.9727 230.437 90.0092C230.517 90.0433 230.615 90.0616 230.731 90.0638C230.827 90.0661 231.007 90.0581 231.271 90.0399V91.0478C231.066 91.082 230.834 91.0991 230.574 91.0991C230.257 91.0991 229.976 91.0456 229.73 90.9385C229.484 90.8315 229.289 90.6709 229.146 90.4568C229.005 90.2404 228.935 89.9727 228.937 89.6538V84.522H230.167ZM234.848 87.2758C234.81 87.0731 234.709 86.9148 234.548 86.8009C234.388 86.6847 234.18 86.6266 233.923 86.6266C233.749 86.6266 233.593 86.654 233.454 86.7086C233.318 86.761 233.21 86.8351 233.13 86.9307C233.05 87.0241 233.01 87.1289 233.01 87.2451C233.01 87.3863 233.069 87.507 233.188 87.6072C233.309 87.7052 233.499 87.7849 233.759 87.8464L234.65 88.0377C235.147 88.1448 235.516 88.3156 235.757 88.5502C236.001 88.7826 236.123 89.0855 236.123 89.4591C236.123 89.7871 236.031 90.0775 235.846 90.3303C235.664 90.5809 235.404 90.7768 235.067 90.918C234.73 91.0592 234.337 91.1298 233.888 91.1298C233.446 91.1298 233.064 91.0672 232.74 90.9419C232.419 90.8144 232.165 90.6321 231.978 90.3953C231.792 90.1561 231.678 89.8691 231.637 89.5342H232.884C232.923 89.7552 233.026 89.9215 233.195 90.0331C233.366 90.1447 233.596 90.2005 233.885 90.2005C234.081 90.2005 234.253 90.1754 234.401 90.1253C234.551 90.0729 234.666 89.9989 234.746 89.9033C234.828 89.8076 234.869 89.696 234.869 89.5684C234.869 89.4158 234.806 89.2905 234.681 89.1926C234.558 89.0924 234.367 89.0138 234.107 88.9568L233.26 88.7792C232.777 88.6789 232.41 88.5047 232.159 88.2564C231.909 88.0059 231.785 87.6927 231.787 87.3168C231.785 86.9979 231.871 86.7166 232.047 86.4729C232.222 86.2292 232.469 86.0413 232.788 85.9091C233.109 85.777 233.482 85.711 233.905 85.711C234.318 85.711 234.678 85.7748 234.985 85.9023C235.293 86.0299 235.534 86.2109 235.709 86.4456C235.885 86.6802 235.987 86.9569 236.017 87.2758H234.848ZM237.625 91.1025C237.491 91.1025 237.366 91.0683 237.25 91C237.133 90.9317 237.041 90.8417 236.973 90.7301C236.907 90.6162 236.875 90.4909 236.877 90.3543C236.875 90.2199 236.907 90.0957 236.973 89.9818C237.041 89.8657 237.133 89.7757 237.25 89.7119C237.366 89.6459 237.491 89.6128 237.625 89.6128C237.758 89.6128 237.882 89.6459 237.998 89.7119C238.114 89.7757 238.205 89.8657 238.271 89.9818C238.34 90.098 238.374 90.2221 238.374 90.3543C238.374 90.4886 238.34 90.6128 238.271 90.7267C238.205 90.8406 238.114 90.9317 237.998 91C237.882 91.0683 237.758 91.1025 237.625 91.1025ZM242.427 87.8908H242.621L244.514 85.7793H245.949L243.626 88.3589H243.38L242.43 89.3737L242.427 87.8908ZM241.306 84.03H242.536V91.0273H241.306V84.03ZM242.885 88.6357L243.715 87.7678L246.072 91.0273H244.603L242.885 88.6357ZM248.557 91.1298C248.052 91.1298 247.609 91.0171 247.228 90.7916C246.85 90.5661 246.557 90.2495 246.35 89.8418C246.145 89.434 246.043 88.9614 246.043 88.4238C246.043 87.8863 246.145 87.4125 246.35 87.0025C246.557 86.5925 246.85 86.2747 247.228 86.0492C247.609 85.8237 248.052 85.711 248.557 85.711C249.063 85.711 249.505 85.8237 249.883 86.0492C250.263 86.2747 250.556 86.5925 250.761 87.0025C250.966 87.4125 251.068 87.8863 251.068 88.4238C251.068 88.9614 250.966 89.434 250.761 89.8418C250.556 90.2495 250.263 90.5661 249.883 90.7916C249.505 91.0171 249.063 91.1298 248.557 91.1298ZM248.561 90.1458C248.834 90.1458 249.065 90.0707 249.254 89.9203C249.443 89.7677 249.585 89.5616 249.678 89.3019C249.774 89.04 249.821 88.7461 249.821 88.4204C249.821 88.0924 249.774 87.7974 249.678 87.5355C249.585 87.2735 249.443 87.0663 249.254 86.9136C249.065 86.761 248.834 86.6847 248.561 86.6847C248.285 86.6847 248.052 86.761 247.86 86.9136C247.671 87.0663 247.528 87.2735 247.43 87.5355C247.334 87.7974 247.286 88.0924 247.286 88.4204C247.286 88.7484 247.334 89.0422 247.43 89.3019C247.528 89.5616 247.671 89.7677 247.86 89.9203C248.052 90.0707 248.285 90.1458 248.561 90.1458ZM253.059 91.0273H251.829V84.03H253.059V91.0273ZM255.998 91.1196C255.581 91.1196 255.209 91.0125 254.881 90.7984C254.555 90.5843 254.299 90.2734 254.112 89.8657C253.925 89.4579 253.832 88.9728 253.832 88.4102C253.832 87.8453 253.926 87.359 254.115 86.9512C254.304 86.5435 254.563 86.2349 254.891 86.0253C255.221 85.8158 255.591 85.711 256.001 85.711C256.27 85.711 256.501 85.7543 256.695 85.8408C256.891 85.9251 257.046 86.0287 257.16 86.1517C257.274 86.2747 257.375 86.4159 257.464 86.5754C257.473 86.5868 257.48 86.5982 257.484 86.6096C257.489 86.6187 257.494 86.6301 257.501 86.6437H257.549V84.03H258.779V91.0273H257.573V90.2005H257.501C257.492 90.221 257.483 90.2381 257.474 90.2518C257.385 90.4135 257.281 90.5558 257.163 90.6788C257.047 90.7996 256.891 90.9032 256.695 90.9898C256.499 91.0763 256.267 91.1196 255.998 91.1196ZM256.336 90.1117C256.596 90.1117 256.819 90.0411 257.006 89.8998C257.193 89.7586 257.335 89.5593 257.433 89.3019C257.531 89.0445 257.58 88.745 257.58 88.4033C257.58 88.0617 257.531 87.7644 257.433 87.5116C257.337 87.2565 257.196 87.0617 257.009 86.9273C256.823 86.7906 256.598 86.7223 256.336 86.7223C256.067 86.7223 255.84 86.7929 255.653 86.9341C255.466 87.0754 255.325 87.2735 255.229 87.5287C255.134 87.7815 255.086 88.073 255.086 88.4033C255.086 88.7359 255.135 89.0309 255.233 89.2882C255.331 89.5456 255.472 89.7472 255.656 89.893C255.843 90.0388 256.07 90.1117 256.336 90.1117ZM262.8 87.2758C262.761 87.0731 262.661 86.9148 262.499 86.8009C262.339 86.6847 262.131 86.6266 261.874 86.6266C261.7 86.6266 261.544 86.654 261.405 86.7086C261.269 86.761 261.161 86.8351 261.081 86.9307C261.001 87.0241 260.961 87.1289 260.961 87.2451C260.961 87.3863 261.021 87.507 261.139 87.6072C261.26 87.7052 261.45 87.7849 261.71 87.8464L262.601 88.0377C263.098 88.1448 263.467 88.3156 263.708 88.5502C263.952 88.7826 264.074 89.0855 264.074 89.4591C264.074 89.7871 263.982 90.0775 263.797 90.3303C263.615 90.5809 263.355 90.7768 263.018 90.918C262.681 91.0592 262.288 91.1298 261.839 91.1298C261.398 91.1298 261.015 91.0672 260.691 90.9419C260.37 90.8144 260.116 90.6321 259.929 90.3953C259.743 90.1561 259.629 89.8691 259.588 89.5342H260.835C260.874 89.7552 260.977 89.9215 261.146 90.0331C261.317 90.1447 261.547 90.2005 261.836 90.2005C262.032 90.2005 262.204 90.1754 262.352 90.1253C262.502 90.0729 262.617 89.9989 262.697 89.9033C262.779 89.8076 262.82 89.696 262.82 89.5684C262.82 89.4158 262.757 89.2905 262.632 89.1926C262.509 89.0924 262.318 89.0138 262.058 88.9568L261.211 88.7792C260.728 88.6789 260.361 88.5047 260.111 88.2564C259.86 88.0059 259.736 87.6927 259.738 87.3168C259.736 86.9979 259.822 86.7166 259.998 86.4729C260.173 86.2292 260.42 86.0413 260.739 85.9091C261.06 85.777 261.433 85.711 261.857 85.711C262.269 85.711 262.629 85.7748 262.936 85.9023C263.244 86.0299 263.485 86.2109 263.661 86.4456C263.836 86.6802 263.938 86.9569 263.968 87.2758H262.8ZM266.051 91.0273H264.821V84.03H266.051V91.0273ZM269.363 91.1298C268.841 91.1298 268.388 91.0205 268.003 90.8018C267.62 90.5809 267.326 90.2677 267.121 89.8623C266.916 89.4545 266.814 88.9785 266.814 88.4341C266.814 87.8988 266.916 87.425 267.121 87.0127C267.326 86.6005 267.617 86.2804 267.993 86.0526C268.368 85.8249 268.802 85.711 269.294 85.711C269.741 85.711 270.145 85.8066 270.507 85.998C270.869 86.1893 271.158 86.4831 271.372 86.8795C271.586 87.2758 271.693 87.7701 271.693 88.3623V88.7416H267.391V87.9079H270.511C270.508 87.671 270.457 87.458 270.357 87.269C270.257 87.0799 270.117 86.933 269.937 86.8282C269.757 86.7235 269.549 86.6711 269.315 86.6711C269.067 86.6711 268.844 86.7303 268.649 86.8487C268.455 86.9672 268.303 87.1278 268.194 87.3305C268.087 87.5309 268.034 87.7496 268.034 87.9865V88.704C268.034 89.0092 268.088 89.2712 268.198 89.4898C268.309 89.7085 268.466 89.8771 268.669 89.9955C268.872 90.1139 269.108 90.1732 269.376 90.1732C269.549 90.1732 269.707 90.1504 269.848 90.1048C269.991 90.057 270.112 89.9921 270.21 89.9101C270.308 89.8258 270.384 89.7301 270.439 89.6231H271.642C271.569 89.926 271.43 90.1914 271.225 90.4192C271.022 90.6447 270.76 90.8201 270.439 90.9453C270.12 91.0683 269.761 91.1298 269.363 91.1298ZM274.779 91.1298C274.257 91.1298 273.804 91.0205 273.419 90.8018C273.036 90.5809 272.742 90.2677 272.537 89.8623C272.332 89.4545 272.23 88.9785 272.23 88.4341C272.23 87.8988 272.332 87.425 272.537 87.0127C272.742 86.6005 273.033 86.2804 273.409 86.0526C273.785 85.8249 274.218 85.711 274.71 85.711C275.157 85.711 275.561 85.8066 275.923 85.998C276.286 86.1893 276.574 86.4831 276.788 86.8795C277.002 87.2758 277.109 87.7701 277.109 88.3623V88.7416H272.807V87.9079H275.927C275.925 87.671 275.873 87.458 275.773 87.269C275.673 87.0799 275.533 86.933 275.353 86.8282C275.173 86.7235 274.966 86.6711 274.731 86.6711C274.483 86.6711 274.261 86.7303 274.065 86.8487C273.871 86.9672 273.72 87.1278 273.61 87.3305C273.503 87.5309 273.45 87.7496 273.45 87.9865V88.704C273.45 89.0092 273.504 89.2712 273.614 89.4898C273.725 89.7085 273.883 89.8771 274.085 89.9955C274.288 90.1139 274.524 90.1732 274.792 90.1732C274.966 90.1732 275.123 90.1504 275.264 90.1048C275.407 90.057 275.528 89.9921 275.626 89.9101C275.724 89.8258 275.8 89.7301 275.855 89.6231H277.058C276.985 89.926 276.846 90.1914 276.641 90.4192C276.438 90.6447 276.176 90.8201 275.855 90.9453C275.536 91.0683 275.177 91.1298 274.779 91.1298ZM277.872 85.7793H279.078V86.6437H279.153C279.162 86.6301 279.169 86.6187 279.173 86.6096C279.178 86.5982 279.184 86.5868 279.191 86.5754C279.277 86.4182 279.378 86.2781 279.495 86.1551C279.613 86.0299 279.768 85.9251 279.959 85.8408C280.153 85.7543 280.385 85.711 280.656 85.711C281.066 85.711 281.435 85.8158 281.763 86.0253C282.094 86.2349 282.352 86.5435 282.539 86.9512C282.726 87.359 282.819 87.8453 282.819 88.4102C282.819 88.9728 282.727 89.4579 282.542 89.8657C282.358 90.2734 282.102 90.5843 281.774 90.7984C281.446 91.0125 281.074 91.1196 280.66 91.1196C280.386 91.1196 280.151 91.0752 279.952 90.9863C279.757 90.8975 279.598 90.7905 279.478 90.6652C279.359 90.5376 279.257 90.3918 279.17 90.2278C279.168 90.2233 279.164 90.2187 279.16 90.2142C279.158 90.2096 279.155 90.2051 279.153 90.2005H279.102V92.9954H277.872V85.7793ZM279.078 88.4033C279.078 88.745 279.127 89.0445 279.225 89.3019C279.323 89.5593 279.464 89.7586 279.648 89.8998C279.835 90.0411 280.058 90.1117 280.318 90.1117C280.585 90.1117 280.812 90.0388 281.001 89.893C281.19 89.7472 281.332 89.5456 281.425 89.2882C281.521 89.0309 281.569 88.7359 281.569 88.4033C281.569 88.073 281.522 87.7815 281.428 87.5287C281.335 87.2735 281.194 87.0754 281.005 86.9341C280.816 86.7929 280.587 86.7223 280.318 86.7223C280.056 86.7223 279.832 86.7906 279.645 86.9273C279.46 87.0617 279.319 87.2565 279.221 87.5116C279.126 87.7644 279.078 88.0617 279.078 88.4033ZM284.451 86.6027H283.512V84.03H284.451V86.6027ZM288.34 87.2758C288.301 87.0731 288.201 86.9148 288.039 86.8009C287.879 86.6847 287.671 86.6266 287.414 86.6266C287.24 86.6266 287.084 86.654 286.946 86.7086C286.809 86.761 286.701 86.8351 286.621 86.9307C286.541 87.0241 286.501 87.1289 286.501 87.2451C286.501 87.3863 286.561 87.507 286.679 87.6072C286.8 87.7052 286.99 87.7849 287.25 87.8464L288.141 88.0377C288.638 88.1448 289.007 88.3156 289.248 88.5502C289.492 88.7826 289.614 89.0855 289.614 89.4591C289.614 89.7871 289.522 90.0775 289.337 90.3303C289.155 90.5809 288.895 90.7768 288.558 90.918C288.221 91.0592 287.828 91.1298 287.379 91.1298C286.938 91.1298 286.555 91.0672 286.231 90.9419C285.91 90.8144 285.656 90.6321 285.469 90.3953C285.283 90.1561 285.169 89.8691 285.128 89.5342H286.375C286.414 89.7552 286.517 89.9215 286.686 90.0331C286.857 90.1447 287.087 90.2005 287.376 90.2005C287.572 90.2005 287.744 90.1754 287.892 90.1253C288.042 90.0729 288.157 89.9989 288.237 89.9033C288.319 89.8076 288.36 89.696 288.36 89.5684C288.36 89.4158 288.297 89.2905 288.172 89.1926C288.049 89.0924 287.858 89.0138 287.598 88.9568L286.751 88.7792C286.268 88.6789 285.901 88.5047 285.651 88.2564C285.4 88.0059 285.276 87.6927 285.278 87.3168C285.276 86.9979 285.362 86.7166 285.538 86.4729C285.713 86.2292 285.96 86.0413 286.279 85.9091C286.6 85.777 286.973 85.711 287.397 85.711C287.809 85.711 288.169 85.7748 288.476 85.9023C288.784 86.0299 289.025 86.2109 289.201 86.4456C289.376 86.6802 289.478 86.9569 289.508 87.2758H288.34ZM292.512 85.7793H293.742V91.0273H292.512V85.7793ZM293.13 85.0311C293 85.0311 292.881 85.0014 292.771 84.9422C292.664 84.8807 292.578 84.7999 292.512 84.6996C292.446 84.5971 292.413 84.4855 292.413 84.3648C292.413 84.2418 292.446 84.129 292.512 84.0265C292.578 83.9218 292.664 83.8409 292.771 83.784C292.881 83.7247 293 83.6951 293.13 83.6951C293.258 83.6951 293.376 83.7247 293.485 83.784C293.595 83.8409 293.681 83.9218 293.745 84.0265C293.809 84.129 293.841 84.2418 293.841 84.3648C293.841 84.4855 293.809 84.5971 293.745 84.6996C293.681 84.7999 293.595 84.8807 293.485 84.9422C293.376 85.0014 293.258 85.0311 293.13 85.0311ZM296.68 91.1196C296.264 91.1196 295.891 91.0125 295.563 90.7984C295.237 90.5843 294.981 90.2734 294.794 89.8657C294.608 89.4579 294.514 88.9728 294.514 88.4102C294.514 87.8453 294.609 87.359 294.798 86.9512C294.987 86.5435 295.245 86.2349 295.573 86.0253C295.904 85.8158 296.274 85.711 296.684 85.711C296.953 85.711 297.184 85.7543 297.377 85.8408C297.573 85.9251 297.728 86.0287 297.842 86.1517C297.956 86.2747 298.057 86.4159 298.146 86.5754C298.155 86.5868 298.162 86.5982 298.167 86.6096C298.171 86.6187 298.177 86.6301 298.184 86.6437H298.232V84.03H299.462V91.0273H298.255V90.2005H298.184C298.175 90.221 298.166 90.2381 298.156 90.2518C298.068 90.4135 297.964 90.5558 297.845 90.6788C297.729 90.7996 297.573 90.9032 297.377 90.9898C297.181 91.0763 296.949 91.1196 296.68 91.1196ZM297.019 90.1117C297.278 90.1117 297.502 90.0411 297.688 89.8998C297.875 89.7586 298.017 89.5593 298.115 89.3019C298.213 89.0445 298.262 88.745 298.262 88.4033C298.262 88.0617 298.213 87.7644 298.115 87.5116C298.02 87.2565 297.879 87.0617 297.692 86.9273C297.505 86.7906 297.281 86.7223 297.019 86.7223C296.75 86.7223 296.522 86.7929 296.335 86.9341C296.149 87.0754 296.007 87.2735 295.912 87.5287C295.816 87.7815 295.768 88.073 295.768 88.4033C295.768 88.7359 295.817 89.0309 295.915 89.2882C296.013 89.5456 296.154 89.7472 296.339 89.893C296.525 90.0388 296.752 90.1117 297.019 90.1117ZM302.836 91.1298C302.315 91.1298 301.861 91.0205 301.476 90.8018C301.094 90.5809 300.8 90.2677 300.595 89.8623C300.39 89.4545 300.287 88.9785 300.287 88.4341C300.287 87.8988 300.39 87.425 300.595 87.0127C300.8 86.6005 301.09 86.2804 301.466 86.0526C301.842 85.8249 302.276 85.711 302.768 85.711C303.214 85.711 303.619 85.8066 303.981 85.998C304.343 86.1893 304.631 86.4831 304.845 86.8795C305.059 87.2758 305.166 87.7701 305.166 88.3623V88.7416H300.865V87.9079H303.984C303.982 87.671 303.931 87.458 303.83 87.269C303.73 87.0799 303.59 86.933 303.41 86.8282C303.23 86.7235 303.023 86.6711 302.788 86.6711C302.54 86.6711 302.318 86.7303 302.122 86.8487C301.928 86.9672 301.777 87.1278 301.668 87.3305C301.561 87.5309 301.507 87.7496 301.507 87.9865V88.704C301.507 89.0092 301.562 89.2712 301.671 89.4898C301.783 89.7085 301.94 89.8771 302.143 89.9955C302.345 90.1139 302.581 90.1732 302.85 90.1732C303.023 90.1732 303.18 90.1504 303.321 90.1048C303.465 90.057 303.586 89.9921 303.684 89.9101C303.781 89.8258 303.858 89.7301 303.912 89.6231H305.115C305.042 89.926 304.903 90.1914 304.698 90.4192C304.496 90.6447 304.234 90.8201 303.912 90.9453C303.594 91.0683 303.235 91.1298 302.836 91.1298ZM309.052 88.7074C308.938 88.712 308.751 88.7234 308.492 88.7416C308.232 88.7575 308.011 88.7735 307.829 88.7894C307.526 88.8122 307.29 88.8862 307.121 89.0115C306.955 89.1368 306.872 89.3122 306.872 89.5377C306.872 89.6857 306.91 89.811 306.985 89.9135C307.06 90.016 307.164 90.0946 307.296 90.1493C307.43 90.2016 307.584 90.2278 307.757 90.2278C308.001 90.2278 308.216 90.1789 308.403 90.0809C308.59 89.9807 308.733 89.8486 308.833 89.6846C308.933 89.5206 308.984 89.3406 308.984 89.1447L308.977 87.4672C308.977 87.294 308.94 87.1471 308.867 87.0264C308.795 86.9034 308.687 86.81 308.546 86.7462C308.405 86.6825 308.232 86.6506 308.027 86.6506C307.847 86.6506 307.69 86.6768 307.555 86.7291C307.421 86.7793 307.311 86.851 307.224 86.9444C307.137 87.0378 307.079 87.1483 307.05 87.2758H305.857C305.887 86.9751 305.994 86.7064 306.178 86.4695C306.363 86.2326 306.616 86.0469 306.937 85.9126C307.258 85.7782 307.633 85.711 308.061 85.711C308.432 85.711 308.777 85.7679 309.096 85.8818C309.418 85.9957 309.682 86.1882 309.889 86.4592C310.099 86.728 310.203 87.0811 310.203 87.5184V91.0273H309.025V90.3064H308.984C308.904 90.4636 308.795 90.6037 308.656 90.7267C308.519 90.8474 308.348 90.9453 308.143 91.0205C307.938 91.0957 307.705 91.1333 307.443 91.1333C307.103 91.1333 306.8 91.0729 306.534 90.9522C306.27 90.8315 306.061 90.6526 305.909 90.4158C305.758 90.1766 305.683 89.8896 305.683 89.5547C305.683 89.0126 305.864 88.622 306.226 88.3828C306.591 88.1414 307.061 88.0002 307.637 87.9592C307.788 87.95 307.97 87.9398 308.184 87.9284C308.4 87.917 308.6 87.9068 308.782 87.8977C308.894 87.8931 308.98 87.8897 309.042 87.8874L309.052 88.7074ZM314.14 87.2758C314.102 87.0731 314.002 86.9148 313.84 86.8009C313.68 86.6847 313.472 86.6266 313.215 86.6266C313.041 86.6266 312.885 86.654 312.746 86.7086C312.61 86.761 312.502 86.8351 312.422 86.9307C312.342 87.0241 312.302 87.1289 312.302 87.2451C312.302 87.3863 312.361 87.507 312.48 87.6072C312.601 87.7052 312.791 87.7849 313.051 87.8464L313.942 88.0377C314.439 88.1448 314.808 88.3156 315.049 88.5502C315.293 88.7826 315.415 89.0855 315.415 89.4591C315.415 89.7871 315.323 90.0775 315.138 90.3303C314.956 90.5809 314.696 90.7768 314.359 90.918C314.022 91.0592 313.629 91.1298 313.18 91.1298C312.738 91.1298 312.356 91.0672 312.032 90.9419C311.711 90.8144 311.457 90.6321 311.27 90.3953C311.084 90.1561 310.97 89.8691 310.929 89.5342H312.176C312.215 89.7552 312.318 89.9215 312.487 90.0331C312.658 90.1447 312.888 90.2005 313.177 90.2005C313.373 90.2005 313.545 90.1754 313.693 90.1253C313.843 90.0729 313.958 89.9989 314.038 89.9033C314.12 89.8076 314.161 89.696 314.161 89.5684C314.161 89.4158 314.098 89.2905 313.973 89.1926C313.85 89.0924 313.659 89.0138 313.399 88.9568L312.552 88.7792C312.069 88.6789 311.702 88.5047 311.452 88.2564C311.201 88.0059 311.077 87.6927 311.079 87.3168C311.077 86.9979 311.163 86.7166 311.339 86.4729C311.514 86.2292 311.761 86.0413 312.08 85.9091C312.401 85.777 312.774 85.711 313.197 85.711C313.61 85.711 313.97 85.7748 314.277 85.9023C314.585 86.0299 314.826 86.2109 315.001 86.4456C315.177 86.6802 315.279 86.9569 315.309 87.2758H314.14ZM12.1627 99.7074C12.0488 99.712 11.862 99.7234 11.6023 99.7416C11.3427 99.7575 11.1217 99.7735 10.9395 99.7894C10.6366 99.8122 10.4008 99.8862 10.2322 100.011C10.066 100.137 9.98282 100.312 9.98282 100.538C9.98282 100.686 10.0204 100.811 10.0956 100.914C10.1707 101.016 10.2744 101.095 10.4065 101.149C10.5409 101.202 10.6946 101.228 10.8677 101.228C11.1115 101.228 11.3267 101.179 11.5135 101.081C11.7003 100.981 11.8438 100.849 11.944 100.685C12.0442 100.521 12.0943 100.341 12.0943 100.145L12.0875 98.4672C12.0875 98.294 12.0511 98.1471 11.9782 98.0264C11.9053 97.9034 11.7982 97.81 11.657 97.7462C11.5158 97.6825 11.3427 97.6506 11.1377 97.6506C10.9577 97.6506 10.8006 97.6768 10.6662 97.7291C10.5318 97.7793 10.4213 97.851 10.3347 97.9444C10.2482 98.0378 10.1901 98.1483 10.1605 98.2758H8.96807C8.99768 97.9751 9.10473 97.7064 9.28924 97.4695C9.47374 97.2326 9.72657 97.0469 10.0477 96.9126C10.3689 96.7782 10.7436 96.711 11.1718 96.711C11.5431 96.711 11.8882 96.7679 12.2071 96.8818C12.5283 96.9957 12.7925 97.1882 12.9998 97.4592C13.2093 97.728 13.3141 98.0811 13.3141 98.5184V102.027H12.1353V101.306H12.0943C12.0146 101.464 11.9053 101.604 11.7663 101.727C11.6297 101.847 11.4588 101.945 11.2538 102.021C11.0488 102.096 10.8154 102.133 10.5534 102.133C10.214 102.133 9.91107 102.073 9.64457 101.952C9.38035 101.831 9.17193 101.653 9.01932 101.416C8.86898 101.177 8.79381 100.89 8.79381 100.555C8.79381 100.013 8.9749 99.622 9.33707 99.3828C9.70152 99.1414 10.1719 99.0002 10.7482 98.9592C10.8985 98.95 11.0807 98.9398 11.2948 98.9284C11.5112 98.917 11.7105 98.9068 11.8928 98.8977C12.0044 98.8931 12.0909 98.8897 12.1524 98.8874L12.1627 99.7074ZM14.2821 96.7793H15.4745V97.654H15.5292C15.5907 97.4558 15.6852 97.285 15.8128 97.1415C15.9403 96.9957 16.0907 96.8864 16.2638 96.8135C16.4369 96.7406 16.6237 96.7041 16.8241 96.7041C16.9813 96.7041 17.1305 96.7155 17.2717 96.7383V97.8692C17.2079 97.851 17.1202 97.8351 17.0086 97.8214C16.8993 97.8055 16.7956 97.7975 16.6977 97.7975C16.4722 97.7975 16.2695 97.8465 16.0895 97.9444C15.9096 98.0401 15.7684 98.1745 15.6659 98.3476C15.5634 98.5207 15.5121 98.7166 15.5121 98.9352V102.027H14.2821V96.7793ZM19.9731 102.13C19.4515 102.13 18.9982 102.021 18.6133 101.802C18.2306 101.581 17.9368 101.268 17.7318 100.862C17.5268 100.455 17.4243 99.9785 17.4243 99.4341C17.4243 98.8988 17.5268 98.425 17.7318 98.0127C17.9368 97.6005 18.2272 97.2804 18.603 97.0526C18.9789 96.8249 19.4128 96.711 19.9048 96.711C20.3512 96.711 20.7556 96.8066 21.1177 96.998C21.4799 97.1893 21.768 97.4831 21.9821 97.8795C22.1963 98.2758 22.3033 98.7701 22.3033 99.3623V99.7416H18.0017V98.9079H21.1211C21.1189 98.671 21.0676 98.458 20.9674 98.269C20.8672 98.0799 20.7271 97.933 20.5471 97.8282C20.3672 97.7235 20.1599 97.6711 19.9253 97.6711C19.677 97.6711 19.4549 97.7303 19.259 97.8487C19.0654 97.9672 18.914 98.1278 18.8046 98.3305C18.6976 98.5309 18.644 98.7496 18.644 98.9865V99.704C18.644 100.009 18.6987 100.271 18.808 100.49C18.9197 100.709 19.0768 100.877 19.2795 100.996C19.4823 101.114 19.718 101.173 19.9868 101.173C20.1599 101.173 20.3171 101.15 20.4583 101.105C20.6018 101.057 20.7225 100.992 20.8205 100.91C20.9184 100.826 20.9947 100.73 21.0494 100.623H22.2521C22.1792 100.926 22.0402 101.191 21.8352 101.419C21.6325 101.645 21.3706 101.82 21.0494 101.945C20.7305 102.068 20.3717 102.13 19.9731 102.13ZM28.339 99.7074C28.2251 99.712 28.0384 99.7234 27.7787 99.7416C27.519 99.7575 27.2981 99.7735 27.1158 99.7894C26.8129 99.8122 26.5771 99.8862 26.4086 100.011C26.2423 100.137 26.1592 100.312 26.1592 100.538C26.1592 100.686 26.1968 100.811 26.2719 100.914C26.3471 101.016 26.4507 101.095 26.5828 101.149C26.7172 101.202 26.871 101.228 27.0441 101.228C27.2878 101.228 27.5031 101.179 27.6898 101.081C27.8766 100.981 28.0201 100.849 28.1204 100.685C28.2206 100.521 28.2707 100.341 28.2707 100.145L28.2639 98.4672C28.2639 98.294 28.2274 98.1471 28.1545 98.0264C28.0816 97.9034 27.9746 97.81 27.8333 97.7462C27.6921 97.6825 27.519 97.6506 27.314 97.6506C27.1341 97.6506 26.9769 97.6768 26.8425 97.7291C26.7081 97.7793 26.5976 97.851 26.5111 97.9444C26.4245 98.0378 26.3665 98.1483 26.3368 98.2758H25.1444C25.174 97.9751 25.2811 97.7064 25.4656 97.4695C25.6501 97.2326 25.9029 97.0469 26.2241 96.9126C26.5453 96.7782 26.92 96.711 27.3482 96.711C27.7195 96.711 28.0645 96.7679 28.3834 96.8818C28.7046 96.9957 28.9688 97.1882 29.1761 97.4592C29.3857 97.728 29.4904 98.0811 29.4904 98.5184V102.027H28.3117V101.306H28.2707C28.191 101.464 28.0816 101.604 27.9427 101.727C27.806 101.847 27.6352 101.945 27.4302 102.021C27.2252 102.096 26.9917 102.133 26.7298 102.133C26.3904 102.133 26.0874 102.073 25.8209 101.952C25.5567 101.831 25.3483 101.653 25.1957 101.416C25.0453 101.177 24.9702 100.89 24.9702 100.555C24.9702 100.013 25.1512 99.622 25.5134 99.3828C25.8779 99.1414 26.3482 99.0002 26.9245 98.9592C27.0748 98.95 27.2571 98.9398 27.4712 98.9284C27.6876 98.917 27.8869 98.9068 28.0691 98.8977C28.1807 98.8931 28.2673 98.8897 28.3288 98.8874L28.339 99.7074ZM32.2089 96.7793H33.4628L34.3887 100.476H34.4365L35.3796 96.7793H36.6232L37.5697 100.456H37.6175L38.5332 96.7793H39.7871L38.3008 102.027H37.023L36.0321 98.4706H35.9638L34.9764 102.027H33.6951L32.2089 96.7793ZM43.5054 99.7074C43.3915 99.712 43.2047 99.7234 42.9451 99.7416C42.6854 99.7575 42.4645 99.7735 42.2822 99.7894C41.9793 99.8122 41.7435 99.8862 41.575 100.011C41.4087 100.137 41.3256 100.312 41.3256 100.538C41.3256 100.686 41.3631 100.811 41.4383 100.914C41.5135 101.016 41.6171 101.095 41.7492 101.149C41.8836 101.202 42.0374 101.228 42.2105 101.228C42.4542 101.228 42.6695 101.179 42.8562 101.081C43.043 100.981 43.1865 100.849 43.2867 100.685C43.387 100.521 43.4371 100.341 43.4371 100.145L43.4302 98.4672C43.4302 98.294 43.3938 98.1471 43.3209 98.0264C43.248 97.9034 43.141 97.81 42.9997 97.7462C42.8585 97.6825 42.6854 97.6506 42.4804 97.6506C42.3005 97.6506 42.1433 97.6768 42.0089 97.7291C41.8745 97.7793 41.764 97.851 41.6775 97.9444C41.5909 98.0378 41.5328 98.1483 41.5032 98.2758H40.3108C40.3404 97.9751 40.4475 97.7064 40.632 97.4695C40.8165 97.2326 41.0693 97.0469 41.3905 96.9126C41.7116 96.7782 42.0863 96.711 42.5146 96.711C42.8858 96.711 43.2309 96.7679 43.5498 96.8818C43.871 96.9957 44.1352 97.1882 44.3425 97.4592C44.5521 97.728 44.6568 98.0811 44.6568 98.5184V102.027H43.4781V101.306H43.4371C43.3574 101.464 43.248 101.604 43.1091 101.727C42.9724 101.847 42.8016 101.945 42.5966 102.021C42.3916 102.096 42.1581 102.133 41.8961 102.133C41.5568 102.133 41.2538 102.073 40.9873 101.952C40.7231 101.831 40.5147 101.653 40.3621 101.416C40.2117 101.177 40.1366 100.89 40.1366 100.555C40.1366 100.013 40.3176 99.622 40.6798 99.3828C41.0443 99.1414 41.5146 99.0002 42.0909 98.9592C42.2412 98.95 42.4235 98.9398 42.6376 98.9284C42.854 98.917 43.0533 98.9068 43.2355 98.8977C43.3471 98.8931 43.4337 98.8897 43.4952 98.8874L43.5054 99.7074ZM46.1696 103.995C45.894 103.995 45.681 103.987 45.5307 103.971L45.5341 102.984C45.5682 102.986 45.6024 102.989 45.6366 102.991C45.6707 102.993 45.706 102.994 45.7425 102.994C45.8313 102.997 45.935 102.999 46.0534 103.001C46.1764 103.001 46.2789 102.99 46.3609 102.967C46.4452 102.946 46.5249 102.893 46.6001 102.806C46.6753 102.722 46.7459 102.592 46.8119 102.417L46.9213 102.137L45.0147 96.7793H46.3199L47.5328 100.746H47.5875L48.8073 96.7793H50.1159L48.0112 102.666C47.8563 103.099 47.6296 103.428 47.3313 103.654C47.0351 103.881 46.6479 103.995 46.1696 103.995ZM55.4537 97.7291H52.447V96.7793H55.4537V97.7291ZM54.4219 95.522V100.449C54.4219 100.608 54.4469 100.732 54.497 100.821C54.5471 100.91 54.6121 100.973 54.6918 101.009C54.7715 101.043 54.8694 101.062 54.9856 101.064C55.0813 101.066 55.2612 101.058 55.5255 101.04V102.048C55.3204 102.082 55.0881 102.099 54.8284 102.099C54.5118 102.099 54.2305 102.046 53.9845 101.939C53.7385 101.831 53.5438 101.671 53.4003 101.457C53.259 101.24 53.1896 100.973 53.1919 100.654V95.522H54.4219ZM58.4422 102.13C57.9366 102.13 57.4935 102.017 57.1132 101.792C56.735 101.566 56.4423 101.249 56.2351 100.842C56.0301 100.434 55.9276 99.9614 55.9276 99.4238C55.9276 98.8863 56.0301 98.4125 56.2351 98.0025C56.4423 97.5925 56.735 97.2747 57.1132 97.0492C57.4935 96.8237 57.9366 96.711 58.4422 96.711C58.9479 96.711 59.3898 96.8237 59.7679 97.0492C60.1483 97.2747 60.441 97.5925 60.646 98.0025C60.851 98.4125 60.9535 98.8863 60.9535 99.4238C60.9535 99.9614 60.851 100.434 60.646 100.842C60.441 101.249 60.1483 101.566 59.7679 101.792C59.3898 102.017 58.9479 102.13 58.4422 102.13ZM58.4457 101.146C58.719 101.146 58.9502 101.071 59.1393 100.92C59.3283 100.768 59.4695 100.562 59.5629 100.302C59.6586 100.04 59.7064 99.7461 59.7064 99.4204C59.7064 99.0924 59.6586 98.7974 59.5629 98.5355C59.4695 98.2735 59.3283 98.0663 59.1393 97.9136C58.9502 97.761 58.719 97.6847 58.4457 97.6847C58.1701 97.6847 57.9366 97.761 57.7452 97.9136C57.5562 98.0663 57.4127 98.2735 57.3147 98.5355C57.2191 98.7974 57.1712 99.0924 57.1712 99.4204C57.1712 99.7484 57.2191 100.042 57.3147 100.302C57.4127 100.562 57.5562 100.768 57.7452 100.92C57.9366 101.071 58.1701 101.146 58.4457 101.146ZM63.8644 96.7793H65.0397V97.6711H65.1046C65.214 97.3681 65.3951 97.1324 65.6479 96.9638C65.9007 96.7953 66.2003 96.711 66.5465 96.711C66.7811 96.711 66.9929 96.7497 67.182 96.8271C67.3733 96.9023 67.5351 97.0116 67.6672 97.1551C67.7993 97.2986 67.8984 97.4706 67.9644 97.6711H68.0191C68.0965 97.4752 68.2116 97.3055 68.3642 97.162C68.5168 97.0185 68.6979 96.908 68.9074 96.8306C69.117 96.7508 69.347 96.711 69.5976 96.711C69.921 96.711 70.2058 96.7804 70.4518 96.9194C70.7 97.0561 70.8925 97.2599 71.0292 97.531C71.1681 97.7998 71.2376 98.1243 71.2376 98.5047V102.027H70.0042V98.6927C70.0042 98.3806 69.921 98.1448 69.7548 97.9854C69.5885 97.826 69.3721 97.7462 69.1056 97.7462C68.9074 97.7462 68.7366 97.7884 68.5931 97.8726C68.4496 97.9546 68.3403 98.072 68.2651 98.2246C68.1899 98.3772 68.1523 98.5514 68.1523 98.7473V102.027H66.9462V98.6414C66.9462 98.4637 66.9098 98.3077 66.8369 98.1733C66.764 98.0366 66.6604 97.9319 66.526 97.859C66.3916 97.7838 66.2367 97.7462 66.0613 97.7462C65.8837 97.7462 65.7208 97.7918 65.5727 97.8829C65.427 97.974 65.3108 98.1027 65.2242 98.269C65.1377 98.4353 65.0944 98.6232 65.0944 98.8327V102.027H63.8644V96.7793ZM74.5073 102.13C74.0016 102.13 73.5586 102.017 73.1782 101.792C72.8001 101.566 72.5074 101.249 72.3001 100.842C72.0951 100.434 71.9926 99.9614 71.9926 99.4238C71.9926 98.8863 72.0951 98.4125 72.3001 98.0025C72.5074 97.5925 72.8001 97.2747 73.1782 97.0492C73.5586 96.8237 74.0016 96.711 74.5073 96.711C75.0129 96.711 75.4548 96.8237 75.833 97.0492C76.2133 97.2747 76.506 97.5925 76.711 98.0025C76.916 98.4125 77.0185 98.8863 77.0185 99.4238C77.0185 99.9614 76.916 100.434 76.711 100.842C76.506 101.249 76.2133 101.566 75.833 101.792C75.4548 102.017 75.0129 102.13 74.5073 102.13ZM74.5107 101.146C74.784 101.146 75.0152 101.071 75.2043 100.92C75.3933 100.768 75.5346 100.562 75.628 100.302C75.7236 100.04 75.7715 99.7461 75.7715 99.4204C75.7715 99.0924 75.7236 98.7974 75.628 98.5355C75.5346 98.2735 75.3933 98.0663 75.2043 97.9136C75.0152 97.761 74.784 97.6847 74.5107 97.6847C74.2351 97.6847 74.0016 97.761 73.8103 97.9136C73.6212 98.0663 73.4777 98.2735 73.3798 98.5355C73.2841 98.7974 73.2363 99.0924 73.2363 99.4204C73.2363 99.7484 73.2841 100.042 73.3798 100.302C73.4777 100.562 73.6212 100.768 73.8103 100.92C74.0016 101.071 74.2351 101.146 74.5107 101.146ZM80.4042 102.027H79.0477L77.1788 96.7793H78.4874L79.7003 100.681H79.755L80.9713 96.7793H82.2799L80.4042 102.027ZM84.997 102.13C84.4754 102.13 84.0221 102.021 83.6372 101.802C83.2545 101.581 82.9607 101.268 82.7557 100.862C82.5507 100.455 82.4482 99.9785 82.4482 99.4341C82.4482 98.8988 82.5507 98.425 82.7557 98.0127C82.9607 97.6005 83.2511 97.2804 83.6269 97.0526C84.0028 96.8249 84.4367 96.711 84.9287 96.711C85.3751 96.711 85.7794 96.8066 86.1416 96.998C86.5038 97.1893 86.7919 97.4831 87.006 97.8795C87.2201 98.2758 87.3272 98.7701 87.3272 99.3623V99.7416H83.0256V98.9079H86.145C86.1427 98.671 86.0915 98.458 85.9913 98.269C85.891 98.0799 85.751 97.933 85.571 97.8282C85.3911 97.7235 85.1838 97.6711 84.9492 97.6711C84.7009 97.6711 84.4788 97.7303 84.2829 97.8487C84.0893 97.9672 83.9378 98.1278 83.8285 98.3305C83.7214 98.5309 83.6679 98.7496 83.6679 98.9865V99.704C83.6679 100.009 83.7226 100.271 83.8319 100.49C83.9435 100.709 84.1007 100.877 84.3034 100.996C84.5061 101.114 84.7419 101.173 85.0107 101.173C85.1838 101.173 85.341 101.15 85.4822 101.105C85.6257 101.057 85.7464 100.992 85.8443 100.91C85.9423 100.826 86.0186 100.73 86.0733 100.623H87.2759C87.2031 100.926 87.0641 101.191 86.8591 101.419C86.6564 101.645 86.3944 101.82 86.0733 101.945C85.7544 102.068 85.3956 102.13 84.997 102.13ZM90.24 96.7793H91.4701V102.027H90.24V96.7793ZM90.8585 96.0311C90.7286 96.0311 90.609 96.0014 90.4997 95.9422C90.3927 95.8807 90.3061 95.7999 90.24 95.6996C90.174 95.5971 90.141 95.4855 90.141 95.3648C90.141 95.2418 90.174 95.129 90.24 95.0265C90.3061 94.9218 90.3927 94.8409 90.4997 94.784C90.609 94.7247 90.7286 94.6951 90.8585 94.6951C90.986 94.6951 91.1045 94.7247 91.2138 94.784C91.3231 94.8409 91.4097 94.9218 91.4735 95.0265C91.5372 95.129 91.5691 95.2418 91.5691 95.3648C91.5691 95.4855 91.5372 95.5971 91.4735 95.6996C91.4097 95.7999 91.3231 95.8807 91.2138 95.9422C91.1045 96.0014 90.986 96.0311 90.8585 96.0311ZM93.6879 102.027H92.4579V96.7793H93.6332V97.6711H93.6981C93.7778 97.4729 93.8906 97.3021 94.0364 97.1586C94.1844 97.0151 94.361 96.9046 94.566 96.8271C94.771 96.7497 95.0021 96.711 95.2595 96.711C95.6217 96.711 95.9372 96.7884 96.206 96.9433C96.477 97.0982 96.6866 97.3248 96.8346 97.6232C96.9827 97.9193 97.0567 98.2735 97.0567 98.6858V102.027H95.8267V98.8737C95.8267 98.6414 95.7857 98.441 95.7037 98.2724C95.624 98.1038 95.5067 97.9751 95.3518 97.8863C95.1969 97.7975 95.0135 97.7531 94.8017 97.7531C94.583 97.7531 94.3894 97.8009 94.2209 97.8966C94.0546 97.99 93.9236 98.1278 93.8279 98.31C93.7346 98.4899 93.6879 98.704 93.6879 98.9523V102.027ZM100.649 97.7291H97.642V96.7793H100.649V97.7291ZM99.6168 95.522V100.449C99.6168 100.608 99.6419 100.732 99.692 100.821C99.7421 100.91 99.807 100.973 99.8868 101.009C99.9665 101.043 100.064 101.062 100.181 101.064C100.276 101.066 100.456 101.058 100.72 101.04V102.048C100.515 102.082 100.283 102.099 100.023 102.099C99.7068 102.099 99.4255 102.046 99.1795 101.939C98.9335 101.831 98.7388 101.671 98.5952 101.457C98.454 101.24 98.3846 100.973 98.3868 100.654V95.522H99.6168ZM103.637 102.13C103.132 102.13 102.689 102.017 102.308 101.792C101.93 101.566 101.637 101.249 101.43 100.842C101.225 100.434 101.123 99.9614 101.123 99.4238C101.123 98.8863 101.225 98.4125 101.43 98.0025C101.637 97.5925 101.93 97.2747 102.308 97.0492C102.689 96.8237 103.132 96.711 103.637 96.711C104.143 96.711 104.585 96.8237 104.963 97.0492C105.343 97.2747 105.636 97.5925 105.841 98.0025C106.046 98.4125 106.148 98.8863 106.148 99.4238C106.148 99.9614 106.046 100.434 105.841 100.842C105.636 101.249 105.343 101.566 104.963 101.792C104.585 102.017 104.143 102.13 103.637 102.13ZM103.641 101.146C103.914 101.146 104.145 101.071 104.334 100.92C104.523 100.768 104.665 100.562 104.758 100.302C104.854 100.04 104.901 99.7461 104.901 99.4204C104.901 99.0924 104.854 98.7974 104.758 98.5355C104.665 98.2735 104.523 98.0663 104.334 97.9136C104.145 97.761 103.914 97.6847 103.641 97.6847C103.365 97.6847 103.132 97.761 102.94 97.9136C102.751 98.0663 102.608 98.2735 102.51 98.5355C102.414 98.7974 102.366 99.0924 102.366 99.4204C102.366 99.7484 102.414 100.042 102.51 100.302C102.608 100.562 102.751 100.768 102.94 100.92C103.132 101.071 103.365 101.146 103.641 101.146ZM112.028 98.2758C111.99 98.0731 111.89 97.9148 111.728 97.8009C111.568 97.6847 111.36 97.6266 111.103 97.6266C110.929 97.6266 110.773 97.654 110.634 97.7086C110.498 97.761 110.39 97.8351 110.31 97.9307C110.23 98.0241 110.19 98.1289 110.19 98.2451C110.19 98.3863 110.25 98.507 110.368 98.6072C110.489 98.7052 110.679 98.7849 110.939 98.8464L111.83 99.0377C112.327 99.1448 112.696 99.3156 112.937 99.5502C113.181 99.7826 113.303 100.086 113.303 100.459C113.303 100.787 113.211 101.078 113.026 101.33C112.844 101.581 112.584 101.777 112.247 101.918C111.91 102.059 111.517 102.13 111.068 102.13C110.626 102.13 110.244 102.067 109.92 101.942C109.599 101.814 109.345 101.632 109.158 101.395C108.972 101.156 108.858 100.869 108.817 100.534H110.064C110.103 100.755 110.206 100.921 110.375 101.033C110.546 101.145 110.776 101.201 111.065 101.201C111.261 101.201 111.433 101.175 111.581 101.125C111.731 101.073 111.846 100.999 111.926 100.903C112.008 100.808 112.049 100.696 112.049 100.568C112.049 100.416 111.986 100.291 111.861 100.193C111.738 100.092 111.547 100.014 111.287 99.9568L110.44 99.7792C109.957 99.6789 109.59 99.5047 109.34 99.2564C109.089 99.0059 108.965 98.6927 108.967 98.3168C108.965 97.9979 109.051 97.7166 109.227 97.4729C109.402 97.2292 109.649 97.0413 109.968 96.9091C110.289 96.777 110.662 96.711 111.085 96.711C111.498 96.711 111.858 96.7748 112.165 96.9023C112.473 97.0299 112.714 97.2109 112.889 97.4456C113.065 97.6802 113.167 97.9569 113.197 98.2758H112.028ZM114.05 96.7793H115.256V97.6437H115.332C115.341 97.6301 115.348 97.6187 115.352 97.6096C115.357 97.5982 115.362 97.5868 115.369 97.5754C115.456 97.4182 115.557 97.2781 115.673 97.1551C115.792 97.0299 115.947 96.9251 116.138 96.8408C116.332 96.7543 116.564 96.711 116.835 96.711C117.245 96.711 117.614 96.8158 117.942 97.0253C118.272 97.2349 118.531 97.5435 118.718 97.9512C118.904 98.359 118.998 98.8453 118.998 99.4102C118.998 99.9728 118.906 100.458 118.721 100.866C118.537 101.273 118.28 101.584 117.952 101.798C117.624 102.013 117.253 102.12 116.838 102.12C116.565 102.12 116.329 102.075 116.131 101.986C115.935 101.898 115.777 101.79 115.656 101.665C115.538 101.538 115.435 101.392 115.349 101.228C115.346 101.223 115.343 101.219 115.338 101.214C115.336 101.21 115.334 101.205 115.332 101.201H115.28V103.995H114.05V96.7793ZM115.256 99.4033C115.256 99.745 115.305 100.045 115.403 100.302C115.501 100.559 115.643 100.759 115.827 100.9C116.014 101.041 116.237 101.112 116.497 101.112C116.763 101.112 116.991 101.039 117.18 100.893C117.369 100.747 117.51 100.546 117.604 100.288C117.699 100.031 117.747 99.7359 117.747 99.4033C117.747 99.073 117.701 98.7815 117.607 98.5287C117.514 98.2735 117.373 98.0754 117.184 97.9341C116.994 97.7929 116.766 97.7223 116.497 97.7223C116.235 97.7223 116.01 97.7906 115.824 97.9273C115.639 98.0617 115.498 98.2565 115.4 98.5116C115.304 98.7644 115.256 99.0617 115.256 99.4033ZM122.899 99.7074C122.785 99.712 122.598 99.7234 122.338 99.7416C122.079 99.7575 121.858 99.7735 121.676 99.7894C121.373 99.8122 121.137 99.8862 120.968 100.011C120.802 100.137 120.719 100.312 120.719 100.538C120.719 100.686 120.756 100.811 120.832 100.914C120.907 101.016 121.01 101.095 121.143 101.149C121.277 101.202 121.431 101.228 121.604 101.228C121.847 101.228 122.063 101.179 122.25 101.081C122.436 100.981 122.58 100.849 122.68 100.685C122.78 100.521 122.83 100.341 122.83 100.145L122.824 98.4672C122.824 98.294 122.787 98.1471 122.714 98.0264C122.641 97.9034 122.534 97.81 122.393 97.7462C122.252 97.6825 122.079 97.6506 121.874 97.6506C121.694 97.6506 121.537 97.6768 121.402 97.7291C121.268 97.7793 121.157 97.851 121.071 97.9444C120.984 98.0378 120.926 98.1483 120.897 98.2758H119.704C119.734 97.9751 119.841 97.7064 120.025 97.4695C120.21 97.2326 120.463 97.0469 120.784 96.9126C121.105 96.7782 121.48 96.711 121.908 96.711C122.279 96.711 122.624 96.7679 122.943 96.8818C123.264 96.9957 123.528 97.1882 123.736 97.4592C123.945 97.728 124.05 98.0811 124.05 98.5184V102.027H122.871V101.306H122.83C122.751 101.464 122.641 101.604 122.502 101.727C122.366 101.847 122.195 101.945 121.99 102.021C121.785 102.096 121.551 102.133 121.289 102.133C120.95 102.133 120.647 102.073 120.381 101.952C120.116 101.831 119.908 101.653 119.755 101.416C119.605 101.177 119.53 100.89 119.53 100.555C119.53 100.013 119.711 99.622 120.073 99.3828C120.438 99.1414 120.908 99.0002 121.484 98.9592C121.635 98.95 121.817 98.9398 122.031 98.9284C122.247 98.917 122.447 98.9068 122.629 98.8977C122.74 98.8931 122.827 98.8897 122.888 98.8874L122.899 99.7074ZM127.307 102.13C126.793 102.13 126.345 102.016 125.965 101.788C125.586 101.56 125.296 101.243 125.093 100.835C124.893 100.425 124.793 99.9546 124.793 99.4238C124.793 98.8931 124.895 98.4227 125.1 98.0127C125.305 97.6005 125.597 97.2804 125.975 97.0526C126.353 96.8249 126.794 96.711 127.297 96.711C127.718 96.711 128.094 96.7884 128.425 96.9433C128.757 97.0982 129.02 97.318 129.214 97.6027C129.41 97.8875 129.521 98.2166 129.549 98.5902H128.377C128.343 98.4193 128.279 98.2667 128.185 98.1323C128.094 97.9956 127.975 97.8897 127.827 97.8146C127.681 97.7394 127.511 97.7018 127.318 97.7018C127.062 97.7018 126.838 97.7701 126.644 97.9068C126.453 98.0435 126.304 98.2405 126.197 98.4979C126.09 98.753 126.036 99.0548 126.036 99.4033C126.036 99.7587 126.089 100.066 126.193 100.326C126.301 100.583 126.45 100.781 126.641 100.92C126.832 101.057 127.058 101.125 127.318 101.125C127.5 101.125 127.664 101.091 127.81 101.023C127.955 100.952 128.077 100.851 128.175 100.719C128.273 100.587 128.34 100.427 128.377 100.24H129.549C129.519 100.612 129.41 100.94 129.221 101.224C129.032 101.509 128.773 101.731 128.445 101.891C128.117 102.05 127.738 102.13 127.307 102.13ZM132.613 102.13C132.091 102.13 131.638 102.021 131.253 101.802C130.87 101.581 130.576 101.268 130.371 100.862C130.166 100.455 130.064 99.9785 130.064 99.4341C130.064 98.8988 130.166 98.425 130.371 98.0127C130.576 97.6005 130.867 97.2804 131.243 97.0526C131.618 96.8249 132.052 96.711 132.544 96.711C132.991 96.711 133.395 96.8066 133.757 96.998C134.119 97.1893 134.408 97.4831 134.622 97.8795C134.836 98.2758 134.943 98.7701 134.943 99.3623V99.7416H130.641V98.9079H133.761C133.758 98.671 133.707 98.458 133.607 98.269C133.507 98.0799 133.367 97.933 133.187 97.8282C133.007 97.7235 132.8 97.6711 132.565 97.6711C132.317 97.6711 132.095 97.7303 131.899 97.8487C131.705 97.9672 131.554 98.1278 131.444 98.3305C131.337 98.5309 131.284 98.7496 131.284 98.9865V99.704C131.284 100.009 131.338 100.271 131.448 100.49C131.559 100.709 131.716 100.877 131.919 100.996C132.122 101.114 132.358 101.173 132.626 101.173C132.8 101.173 132.957 101.15 133.098 101.105C133.241 101.057 133.362 100.992 133.46 100.91C133.558 100.826 133.634 100.73 133.689 100.623H134.892C134.819 100.926 134.68 101.191 134.475 101.419C134.272 101.645 134.01 101.82 133.689 101.945C133.37 102.068 133.011 102.13 132.613 102.13ZM136.297 103.08H135.22L137.475 94.702H138.552L136.297 103.08ZM141.702 97.7291H138.606V96.7793H141.702V97.7291ZM139.389 96.2805C139.389 95.9434 139.455 95.6575 139.587 95.4229C139.719 95.186 139.908 95.0072 140.154 94.8865C140.4 94.7635 140.691 94.702 141.025 94.702C141.164 94.702 141.3 94.7088 141.432 94.7225C141.564 94.7361 141.688 94.7543 141.804 94.7771V95.7509C141.645 95.7304 141.499 95.7201 141.367 95.7201C141.114 95.7201 140.926 95.7737 140.803 95.8807C140.68 95.9878 140.619 96.1575 140.619 96.3898V102.027H139.389V96.2805ZM145.738 96.7793H146.964V102.027H145.775V101.098H145.721C145.641 101.296 145.526 101.47 145.375 101.621C145.227 101.769 145.049 101.885 144.839 101.969C144.632 102.054 144.399 102.096 144.142 102.096C143.796 102.096 143.491 102.018 143.226 101.863C142.964 101.706 142.759 101.48 142.611 101.183C142.466 100.887 142.393 100.533 142.393 100.121V96.7793H143.623V99.9329C143.623 100.152 143.665 100.343 143.749 100.507C143.833 100.671 143.95 100.797 144.098 100.886C144.246 100.975 144.419 101.019 144.617 101.019C144.806 101.019 144.987 100.974 145.16 100.883C145.333 100.789 145.472 100.654 145.577 100.476C145.684 100.296 145.738 100.078 145.738 99.8202V96.7793ZM150.564 97.7291H147.557V96.7793H150.564V97.7291ZM149.532 95.522V100.449C149.532 100.608 149.557 100.732 149.607 100.821C149.658 100.91 149.723 100.973 149.802 101.009C149.882 101.043 149.98 101.062 150.096 101.064C150.192 101.066 150.372 101.058 150.636 101.04V102.048C150.431 102.082 150.199 102.099 149.939 102.099C149.622 102.099 149.341 102.046 149.095 101.939C148.849 101.831 148.654 101.671 148.511 101.457C148.37 101.24 148.3 100.973 148.302 100.654V95.522H149.532ZM154.666 96.7793H155.893V102.027H154.704V101.098H154.649C154.57 101.296 154.455 101.47 154.304 101.621C154.156 101.769 153.977 101.885 153.768 101.969C153.561 102.054 153.328 102.096 153.071 102.096C152.725 102.096 152.419 102.018 152.155 101.863C151.893 101.706 151.688 101.48 151.54 101.183C151.394 100.887 151.321 100.533 151.321 100.121V96.7793H152.551V99.9329C152.551 100.152 152.594 100.343 152.678 100.507C152.762 100.671 152.878 100.797 153.026 100.886C153.174 100.975 153.348 101.019 153.546 101.019C153.735 101.019 153.916 100.974 154.089 100.883C154.262 100.789 154.401 100.654 154.506 100.476C154.613 100.296 154.666 100.078 154.666 99.8202V96.7793ZM156.883 96.7793H158.075V97.654H158.13C158.191 97.4558 158.286 97.285 158.413 97.1415C158.541 96.9957 158.691 96.8864 158.864 96.8135C159.037 96.7406 159.224 96.7041 159.425 96.7041C159.582 96.7041 159.731 96.7155 159.872 96.7383V97.8692C159.808 97.851 159.721 97.8351 159.609 97.8214C159.5 97.8055 159.396 97.7975 159.298 97.7975C159.073 97.7975 158.87 97.8465 158.69 97.9444C158.51 98.0401 158.369 98.1745 158.266 98.3476C158.164 98.5207 158.113 98.7166 158.113 98.9352V102.027H156.883V96.7793ZM162.574 102.13C162.052 102.13 161.599 102.021 161.214 101.802C160.831 101.581 160.537 101.268 160.332 100.862C160.127 100.455 160.025 99.9785 160.025 99.4341C160.025 98.8988 160.127 98.425 160.332 98.0127C160.537 97.6005 160.828 97.2804 161.204 97.0526C161.579 96.8249 162.013 96.711 162.505 96.711C162.952 96.711 163.356 96.8066 163.718 96.998C164.08 97.1893 164.369 97.4831 164.583 97.8795C164.797 98.2758 164.904 98.7701 164.904 99.3623V99.7416H160.602V98.9079H163.722C163.719 98.671 163.668 98.458 163.568 98.269C163.468 98.0799 163.328 97.933 163.148 97.8282C162.968 97.7235 162.76 97.6711 162.526 97.6711C162.278 97.6711 162.055 97.7303 161.86 97.8487C161.666 97.9672 161.515 98.1278 161.405 98.3305C161.298 98.5309 161.245 98.7496 161.245 98.9865V99.704C161.245 100.009 161.299 100.271 161.409 100.49C161.52 100.709 161.677 100.877 161.88 100.996C162.083 101.114 162.319 101.173 162.587 101.173C162.76 101.173 162.918 101.15 163.059 101.105C163.202 101.057 163.323 100.992 163.421 100.91C163.519 100.826 163.595 100.73 163.65 100.623H164.853C164.78 100.926 164.641 101.191 164.436 101.419C164.233 101.645 163.971 101.82 163.65 101.945C163.331 102.068 162.972 102.13 162.574 102.13ZM166.258 103.08H165.181L167.436 94.702H168.513L166.258 103.08ZM169.015 96.7793H170.19V97.6711H170.255C170.364 97.3681 170.546 97.1324 170.798 96.9638C171.051 96.7953 171.351 96.711 171.697 96.711C171.932 96.711 172.143 96.7497 172.333 96.8271C172.524 96.9023 172.686 97.0116 172.818 97.1551C172.95 97.2986 173.049 97.4706 173.115 97.6711H173.17C173.247 97.4752 173.362 97.3055 173.515 97.162C173.667 97.0185 173.848 96.908 174.058 96.8306C174.267 96.7508 174.498 96.711 174.748 96.711C175.072 96.711 175.356 96.7804 175.602 96.9194C175.851 97.0561 176.043 97.2599 176.18 97.531C176.319 97.7998 176.388 98.1243 176.388 98.5047V102.027H175.155V98.6927C175.155 98.3806 175.072 98.1448 174.905 97.9854C174.739 97.826 174.523 97.7462 174.256 97.7462C174.058 97.7462 173.887 97.7884 173.744 97.8726C173.6 97.9546 173.491 98.072 173.416 98.2246C173.34 98.3772 173.303 98.5514 173.303 98.7473V102.027H172.097V98.6414C172.097 98.4637 172.06 98.3077 171.987 98.1733C171.915 98.0366 171.811 97.9319 171.677 97.859C171.542 97.7838 171.387 97.7462 171.212 97.7462C171.034 97.7462 170.871 97.7918 170.723 97.8829C170.577 97.974 170.461 98.1027 170.375 98.269C170.288 98.4353 170.245 98.6232 170.245 98.8327V102.027H169.015V96.7793ZM177.913 103.995C177.638 103.995 177.425 103.987 177.274 103.971L177.278 102.984C177.312 102.986 177.346 102.989 177.38 102.991C177.415 102.993 177.45 102.994 177.486 102.994C177.575 102.997 177.679 102.999 177.797 103.001C177.92 103.001 178.023 102.99 178.105 102.967C178.189 102.946 178.269 102.893 178.344 102.806C178.419 102.722 178.49 102.592 178.556 102.417L178.665 102.137L176.759 96.7793H178.064L179.277 100.746H179.331L180.551 96.7793H181.86L179.755 102.666C179.6 103.099 179.373 103.428 179.075 103.654C178.779 103.881 178.392 103.995 177.913 103.995ZM185.406 98.2758C185.367 98.0731 185.267 97.9148 185.105 97.8009C184.946 97.6847 184.738 97.6266 184.48 97.6266C184.307 97.6266 184.151 97.654 184.012 97.7086C183.875 97.761 183.767 97.8351 183.687 97.9307C183.608 98.0241 183.568 98.1289 183.568 98.2451C183.568 98.3863 183.627 98.507 183.746 98.6072C183.866 98.7052 184.056 98.7849 184.316 98.8464L185.208 99.0377C185.704 99.1448 186.073 99.3156 186.315 99.5502C186.559 99.7826 186.68 100.086 186.68 100.459C186.68 100.787 186.588 101.078 186.404 101.33C186.222 101.581 185.962 101.777 185.625 101.918C185.288 102.059 184.895 102.13 184.446 102.13C184.004 102.13 183.621 102.067 183.298 101.942C182.977 101.814 182.723 101.632 182.536 101.395C182.349 101.156 182.235 100.869 182.194 100.534H183.441C183.48 100.755 183.584 100.921 183.752 101.033C183.923 101.145 184.153 101.201 184.443 101.201C184.638 101.201 184.81 101.175 184.958 101.125C185.109 101.073 185.224 100.999 185.304 100.903C185.386 100.808 185.427 100.696 185.427 100.568C185.427 100.416 185.364 100.291 185.239 100.193C185.116 100.092 184.924 100.014 184.665 99.9568L183.817 99.7792C183.334 99.6789 182.968 99.5047 182.717 99.2564C182.467 99.0059 182.342 98.6927 182.345 98.3168C182.342 97.9979 182.429 97.7166 182.604 97.4729C182.78 97.2292 183.027 97.0413 183.346 96.9091C183.667 96.777 184.039 96.711 184.463 96.711C184.875 96.711 185.235 96.7748 185.543 96.9023C185.85 97.0299 186.092 97.2109 186.267 97.4456C186.442 97.6802 186.545 97.9569 186.575 98.2758H185.406ZM190.038 97.7291H187.032V96.7793H190.038V97.7291ZM189.007 95.522V100.449C189.007 100.608 189.032 100.732 189.082 100.821C189.132 100.91 189.197 100.973 189.276 101.009C189.356 101.043 189.454 101.062 189.57 101.064C189.666 101.066 189.846 101.058 190.11 101.04V102.048C189.905 102.082 189.673 102.099 189.413 102.099C189.096 102.099 188.815 102.046 188.569 101.939C188.323 101.831 188.128 101.671 187.985 101.457C187.844 101.24 187.774 100.973 187.777 100.654V95.522H189.007ZM193.061 102.13C192.539 102.13 192.086 102.021 191.701 101.802C191.319 101.581 191.025 101.268 190.82 100.862C190.615 100.455 190.512 99.9785 190.512 99.4341C190.512 98.8988 190.615 98.425 190.82 98.0127C191.025 97.6005 191.315 97.2804 191.691 97.0526C192.067 96.8249 192.501 96.711 192.993 96.711C193.439 96.711 193.843 96.8066 194.206 96.998C194.568 97.1893 194.856 97.4831 195.07 97.8795C195.284 98.2758 195.391 98.7701 195.391 99.3623V99.7416H191.09V98.9079H194.209C194.207 98.671 194.156 98.458 194.055 98.269C193.955 98.0799 193.815 97.933 193.635 97.8282C193.455 97.7235 193.248 97.6711 193.013 97.6711C192.765 97.6711 192.543 97.7303 192.347 97.8487C192.153 97.9672 192.002 98.1278 191.893 98.3305C191.785 98.5309 191.732 98.7496 191.732 98.9865V99.704C191.732 100.009 191.787 100.271 191.896 100.49C192.008 100.709 192.165 100.877 192.367 100.996C192.57 101.114 192.806 101.173 193.075 101.173C193.248 101.173 193.405 101.15 193.546 101.105C193.69 101.057 193.81 100.992 193.908 100.91C194.006 100.826 194.083 100.73 194.137 100.623H195.34C195.267 100.926 195.128 101.191 194.923 101.419C194.72 101.645 194.458 101.82 194.137 101.945C193.818 102.068 193.46 102.13 193.061 102.13ZM196.154 96.7793H197.346V97.654H197.401C197.463 97.4558 197.557 97.285 197.685 97.1415C197.812 96.9957 197.962 96.8864 198.136 96.8135C198.309 96.7406 198.495 96.7041 198.696 96.7041C198.853 96.7041 199.002 96.7155 199.144 96.7383V97.8692C199.08 97.851 198.992 97.8351 198.88 97.8214C198.771 97.8055 198.667 97.7975 198.57 97.7975C198.344 97.7975 198.141 97.8465 197.961 97.9444C197.781 98.0401 197.64 98.1745 197.538 98.3476C197.435 98.5207 197.384 98.7166 197.384 98.9352V102.027H196.154V96.7793ZM200.588 103.995C200.313 103.995 200.1 103.987 199.949 103.971L199.953 102.984C199.987 102.986 200.021 102.989 200.055 102.991C200.089 102.993 200.125 102.994 200.161 102.994C200.25 102.997 200.354 102.999 200.472 103.001C200.595 103.001 200.697 102.99 200.779 102.967C200.864 102.946 200.943 102.893 201.019 102.806C201.094 102.722 201.164 102.592 201.23 102.417L201.34 102.137L199.433 96.7793H200.738L201.951 100.746H202.006L203.226 96.7793H204.534L202.43 102.666C202.275 103.099 202.048 103.428 201.75 103.654C201.454 103.881 201.066 103.995 200.588 103.995ZM205.538 102.103C205.404 102.103 205.279 102.068 205.162 102C205.046 101.932 204.954 101.842 204.886 101.73C204.82 101.616 204.788 101.491 204.79 101.354C204.788 101.22 204.82 101.096 204.886 100.982C204.954 100.866 205.046 100.776 205.162 100.712C205.279 100.646 205.404 100.613 205.538 100.613C205.67 100.613 205.795 100.646 205.911 100.712C206.027 100.776 206.118 100.866 206.184 100.982C206.252 101.098 206.287 101.222 206.287 101.354C206.287 101.489 206.252 101.613 206.184 101.727C206.118 101.841 206.027 101.932 205.911 102C205.795 102.068 205.67 102.103 205.538 102.103Z" fill="white"/>
</g>
</g>
<defs>
<clipPath id="clip0_226_10118">
<rect width="375" height="108" fill="white"/>
</clipPath>
</defs>
</svg>
