<svg width="991" height="252" viewBox="0 0 991 252" fill="none" xmlns="http://www.w3.org/2000/svg">
<g style="mix-blend-mode:exclusion">
<path d="M40.3317 107.753H45.2523L93.0769 54.4033H129.334L70.6321 119.579H64.4167L40.4181 145.218L40.3317 107.753ZM12.0168 10.2044H43.0942V187H12.0168V10.2044ZM51.8994 126.572L72.8766 104.645L132.442 187H95.3214L51.8994 126.572ZM185.226 189.59C172.45 189.59 161.256 186.741 151.646 181.044C142.092 175.346 134.697 167.346 129.46 157.045C124.28 146.743 121.69 134.802 121.69 121.22C121.69 107.638 124.28 95.6671 129.46 85.308C134.697 74.9489 142.092 66.9206 151.646 61.2231C161.256 55.5255 172.45 52.6768 185.226 52.6768C198.003 52.6768 209.167 55.5255 218.721 61.2231C228.332 66.9206 235.727 74.9489 240.907 85.308C246.086 95.6671 248.676 107.638 248.676 121.22C248.676 134.802 246.086 146.743 240.907 157.045C235.727 167.346 228.332 175.346 218.721 181.044C209.167 186.741 198.003 189.59 185.226 189.59ZM185.313 164.728C192.219 164.728 198.06 162.829 202.837 159.03C207.614 155.174 211.182 149.966 213.541 143.405C215.958 136.787 217.167 129.363 217.167 121.133C217.167 112.846 215.958 105.393 213.541 98.7749C211.182 92.1565 207.614 86.9194 202.837 83.0635C198.06 79.2076 192.219 77.2797 185.313 77.2797C178.349 77.2797 172.45 79.2076 167.616 83.0635C162.839 86.9194 159.213 92.1565 156.739 98.7749C154.322 105.393 153.113 112.846 153.113 121.133C153.113 129.421 154.322 136.845 156.739 143.405C159.213 149.966 162.839 155.174 167.616 159.03C172.45 162.829 178.349 164.728 185.313 164.728ZM288.973 187H257.896V10.2044H288.973V187ZM353.223 189.331C342.691 189.331 333.282 186.626 324.994 181.216C316.765 175.806 310.29 167.951 305.571 157.649C300.852 147.348 298.492 135.089 298.492 120.874C298.492 106.602 300.881 94.3147 305.657 84.0131C310.434 73.7116 316.966 65.9134 325.253 60.6188C333.598 55.3241 342.95 52.6768 353.309 52.6768C360.1 52.6768 365.942 53.7703 370.833 55.9572C375.783 58.0866 379.696 60.7051 382.574 63.8128C385.451 66.9206 388.012 70.4887 390.257 74.5173C390.487 74.805 390.66 75.0928 390.775 75.3805C390.89 75.6107 391.034 75.8985 391.206 76.2438H392.415V10.2044H423.492V187H393.019V166.109H391.206C390.976 166.627 390.746 167.059 390.516 167.404C388.271 171.49 385.653 175.087 382.66 178.195C379.725 181.245 375.783 183.863 370.833 186.05C365.884 188.237 360.014 189.331 353.223 189.331ZM361.769 163.865C368.33 163.865 373.97 162.081 378.689 158.512C383.408 154.944 387.005 149.909 389.48 143.405C391.955 136.902 393.192 129.334 393.192 120.702C393.192 112.069 391.955 104.559 389.48 98.1706C387.063 91.7249 383.495 86.8043 378.775 83.4088C374.056 79.9558 368.388 78.2293 361.769 78.2293C354.978 78.2293 349.223 80.0133 344.504 83.5815C339.785 87.1496 336.217 92.1565 333.8 98.6022C331.383 104.99 330.174 112.357 330.174 120.702C330.174 129.104 331.411 136.557 333.886 143.06C336.361 149.563 339.929 154.657 344.59 158.34C349.31 162.023 355.036 163.865 361.769 163.865ZM515.071 92.2141C514.093 87.0921 511.561 83.0923 507.475 80.2148C503.446 77.2797 498.18 75.8121 491.677 75.8121C487.303 75.8121 483.361 76.5028 479.85 77.884C476.397 79.2076 473.664 81.078 471.649 83.4952C469.635 85.8547 468.628 88.5021 468.628 91.4372C468.628 95.0053 470.124 98.0555 473.117 100.588C476.167 103.062 480.972 105.077 487.533 106.631L510.064 111.465C522.61 114.17 531.934 118.486 538.034 124.414C544.192 130.284 547.271 137.938 547.271 147.376C547.271 155.664 544.94 163.001 540.278 169.39C535.674 175.72 529.114 180.669 520.596 184.238C512.079 187.806 502.151 189.59 490.814 189.59C479.649 189.59 469.98 188.007 461.808 184.842C453.693 181.619 447.277 177.015 442.557 171.03C437.838 164.987 434.961 157.735 433.925 149.276H465.434C466.412 154.858 469.031 159.059 473.289 161.879C477.606 164.699 483.418 166.109 490.727 166.109C495.677 166.109 500.022 165.476 503.762 164.21C507.561 162.886 510.467 161.016 512.481 158.599C514.553 156.182 515.589 153.362 515.589 150.139C515.589 146.283 514.007 143.118 510.841 140.643C507.733 138.111 502.899 136.125 496.338 134.686L474.93 130.198C462.729 127.665 453.463 123.263 447.133 116.99C440.802 110.659 437.666 102.746 437.723 93.25C437.666 85.1929 439.852 78.0854 444.284 71.9275C448.715 65.7696 454.96 61.0216 463.017 57.6837C471.131 54.3458 480.541 52.6768 491.245 52.6768C501.662 52.6768 510.755 54.2882 518.524 57.511C526.294 60.7339 532.394 65.3092 536.825 71.2369C541.257 77.1646 543.847 84.157 544.595 92.2141H515.071ZM587.235 187H556.157V10.2044H587.235V187ZM660.894 189.59C647.715 189.59 636.263 186.827 626.537 181.302C616.868 175.72 609.444 167.807 604.264 157.563C599.085 147.261 596.495 135.233 596.495 121.479C596.495 107.954 599.085 95.9837 604.264 85.567C609.444 75.1503 616.782 67.0645 626.278 61.3094C635.773 55.5543 646.737 52.6768 659.168 52.6768C670.448 52.6768 680.663 55.0939 689.813 59.9282C698.964 64.7624 706.244 72.1865 711.654 82.2003C717.064 92.2141 719.769 104.703 719.769 119.666V129.248H611.084V108.184H689.9C689.842 102.199 688.547 96.8181 686.015 92.0414C683.483 87.2647 679.944 83.5527 675.397 80.9054C670.851 78.2581 665.613 76.9344 659.686 76.9344C653.413 76.9344 647.801 78.4307 642.852 81.4233C637.96 84.416 634.133 88.4733 631.371 93.5953C628.666 98.6598 627.313 104.185 627.313 110.17V128.298C627.313 136.01 628.695 142.628 631.457 148.153C634.277 153.678 638.248 157.937 643.37 160.93C648.492 163.922 654.449 165.419 661.24 165.419C665.613 165.419 669.584 164.843 673.153 163.692C676.778 162.483 679.828 160.843 682.303 158.771C684.778 156.642 686.706 154.225 688.087 151.52H718.474C716.632 159.174 713.121 165.879 707.942 171.634C702.82 177.331 696.202 181.763 688.087 184.928C680.03 188.036 670.966 189.59 660.894 189.59ZM787.74 189.59C774.561 189.59 763.108 186.827 753.382 181.302C743.714 175.72 736.29 167.807 731.11 157.563C725.931 147.261 723.341 135.233 723.341 121.479C723.341 107.954 725.931 95.9837 731.11 85.567C736.29 75.1503 743.627 67.0645 753.123 61.3094C762.619 55.5543 773.582 52.6768 786.013 52.6768C797.293 52.6768 807.509 55.0939 816.659 59.9282C825.81 64.7624 833.09 72.1865 838.5 82.2003C843.909 92.2141 846.614 104.703 846.614 119.666V129.248H737.93V108.184H816.745C816.688 102.199 815.393 96.8181 812.861 92.0414C810.329 87.2647 806.789 83.5527 802.243 80.9054C797.696 78.2581 792.459 76.9344 786.531 76.9344C780.258 76.9344 774.647 78.4307 769.698 81.4233C764.806 84.416 760.979 88.4733 758.216 93.5953C755.512 98.6598 754.159 104.185 754.159 110.17V128.298C754.159 136.01 755.54 142.628 758.303 148.153C761.123 153.678 765.094 157.937 770.216 160.93C775.338 163.922 781.294 165.419 788.085 165.419C792.459 165.419 796.43 164.843 799.998 163.692C803.624 162.483 806.674 160.843 809.149 158.771C811.623 156.642 813.551 154.225 814.933 151.52H845.319C843.478 159.174 839.967 165.879 834.788 171.634C829.666 177.331 823.047 181.763 814.933 184.928C806.876 188.036 797.811 189.59 787.74 189.59ZM855.884 54.4033H886.357V76.2438H888.256C888.486 75.8985 888.659 75.6107 888.774 75.3805C888.889 75.0928 889.033 74.805 889.206 74.5173C891.393 70.5463 893.954 67.0069 896.889 63.8992C899.881 60.7339 903.795 58.0866 908.629 55.9572C913.521 53.7703 919.391 52.6768 926.24 52.6768C936.599 52.6768 945.922 55.3241 954.209 60.6188C962.554 65.9134 969.086 73.7116 973.805 84.0131C978.524 94.3147 980.884 106.602 980.884 120.874C980.884 135.089 978.553 147.348 973.892 157.649C969.23 167.951 962.756 175.806 954.468 181.216C946.181 186.626 936.8 189.331 926.326 189.331C919.42 189.331 913.463 188.209 908.457 185.964C903.507 183.72 899.507 181.015 896.457 177.849C893.465 174.627 890.875 170.943 888.688 166.8C888.63 166.685 888.544 166.57 888.429 166.454C888.371 166.339 888.314 166.224 888.256 166.109H886.961V236.724H855.884V54.4033ZM886.357 120.702C886.357 129.334 887.594 136.902 890.069 143.405C892.544 149.909 896.112 154.944 900.774 158.512C905.493 162.081 911.133 163.865 917.693 163.865C924.427 163.865 930.182 162.023 934.959 158.34C939.735 154.657 943.303 149.563 945.663 143.06C948.08 136.557 949.289 129.104 949.289 120.702C949.289 112.357 948.109 104.99 945.749 98.6022C943.39 92.1565 939.822 87.1496 935.045 83.5815C930.268 80.0133 924.484 78.2293 917.693 78.2293C911.075 78.2293 905.406 79.9558 900.687 83.4088C896.026 86.8043 892.457 91.7249 889.983 98.1706C887.566 104.559 886.357 112.069 886.357 120.702Z" fill="white"/>
<a href="https://www.figma.com/proto/4Oy6PtlbvgCvRF9xL61YjV/koldsleep-web?page-id=115%3A143&#38;node-id=226%3A606&#38;scaling=min-zoom&#38;starting-point-node-id=115%3A170&#38;show-proto-sidebar=1">
<rect fill="black" fill-opacity="0" y="-62.4914" width="993.47" height="299.983"/>
</a>
<path d="M15.1202 211.294H15.4744L18.9178 207.453H21.5283L17.3018 212.146H16.8543L15.1264 213.992L15.1202 211.294ZM13.0815 204.271H15.3191V217H13.0815V204.271ZM15.953 212.649L17.4634 211.07L21.7521 217H19.0794L15.953 212.649ZM26.4526 217.186C25.5327 217.186 24.7267 216.981 24.0348 216.571C23.3469 216.161 22.8145 215.585 22.4374 214.843C22.0645 214.102 21.878 213.242 21.878 212.264C21.878 211.286 22.0645 210.424 22.4374 209.678C22.8145 208.932 23.3469 208.354 24.0348 207.944C24.7267 207.534 25.5327 207.329 26.4526 207.329C27.3725 207.329 28.1763 207.534 28.8642 207.944C29.5562 208.354 30.0886 208.932 30.4616 209.678C30.8345 210.424 31.0209 211.286 31.0209 212.264C31.0209 213.242 30.8345 214.102 30.4616 214.843C30.0886 215.585 29.5562 216.161 28.8642 216.571C28.1763 216.981 27.3725 217.186 26.4526 217.186ZM26.4588 215.396C26.956 215.396 27.3766 215.26 27.7205 214.986C28.0645 214.709 28.3214 214.334 28.4912 213.861C28.6653 213.385 28.7523 212.85 28.7523 212.258C28.7523 211.661 28.6653 211.124 28.4912 210.648C28.3214 210.171 28.0645 209.794 27.7205 209.517C27.3766 209.239 26.956 209.1 26.4588 209.1C25.9574 209.1 25.5327 209.239 25.1846 209.517C24.8407 209.794 24.5796 210.171 24.4015 210.648C24.2274 211.124 24.1404 211.661 24.1404 212.258C24.1404 212.854 24.2274 213.389 24.4015 213.861C24.5796 214.334 24.8407 214.709 25.1846 214.986C25.5327 215.26 25.9574 215.396 26.4588 215.396ZM34.8223 217H32.5848V204.271H34.8223V217ZM40.3483 217.168C39.59 217.168 38.9126 216.973 38.3159 216.584C37.7233 216.194 37.2572 215.628 36.9174 214.887C36.5776 214.145 36.4077 213.262 36.4077 212.239C36.4077 211.211 36.5797 210.327 36.9236 209.585C37.2675 208.843 37.7378 208.282 38.3345 207.901C38.9354 207.519 39.6087 207.329 40.3546 207.329C40.8435 207.329 41.2641 207.407 41.6163 207.565C41.9726 207.718 42.2544 207.907 42.4616 208.131C42.6688 208.354 42.8532 208.611 43.0148 208.901C43.0313 208.922 43.0438 208.943 43.0521 208.963C43.0604 208.98 43.0707 209.001 43.0831 209.026H43.1702V204.271H45.4077V217H43.2137V215.496H43.0831C43.0666 215.533 43.05 215.564 43.0334 215.589C42.8718 215.883 42.6833 216.142 42.4678 216.366C42.2565 216.586 41.9726 216.774 41.6163 216.932C41.2599 217.089 40.8373 217.168 40.3483 217.168ZM40.9637 215.334C41.436 215.334 41.8421 215.206 42.1819 214.949C42.5217 214.692 42.7807 214.329 42.9588 213.861C43.137 213.393 43.2261 212.848 43.2261 212.227C43.2261 211.605 43.137 211.064 42.9588 210.604C42.7848 210.14 42.5279 209.786 42.1881 209.541C41.8483 209.293 41.4402 209.169 40.9637 209.169C40.4747 209.169 40.0604 209.297 39.7206 209.554C39.3808 209.811 39.1239 210.171 38.9499 210.635C38.7758 211.095 38.6888 211.626 38.6888 212.227C38.6888 212.831 38.7779 213.368 38.9561 213.836C39.1342 214.305 39.3912 214.671 39.7268 214.936C40.0666 215.202 40.4789 215.334 40.9637 215.334ZM52.9014 210.175C52.831 209.807 52.6486 209.519 52.3544 209.311C52.0644 209.1 51.6852 208.994 51.217 208.994C50.9021 208.994 50.6183 209.044 50.3655 209.144C50.1169 209.239 49.9201 209.374 49.775 209.548C49.63 209.718 49.5575 209.908 49.5575 210.119C49.5575 210.376 49.6652 210.596 49.8807 210.778C50.1003 210.956 50.4463 211.102 50.9187 211.213L52.5409 211.561C53.4442 211.756 54.1155 212.067 54.5547 212.494C54.9981 212.916 55.2198 213.468 55.2198 214.147C55.2198 214.744 55.052 215.272 54.7163 215.732C54.3848 216.188 53.9125 216.544 53.2992 216.801C52.6859 217.058 51.9712 217.186 51.1549 217.186C50.351 217.186 49.6549 217.073 49.0665 216.845C48.4822 216.613 48.0202 216.281 47.6804 215.85C47.3406 215.415 47.1334 214.893 47.0589 214.284H49.3275C49.398 214.686 49.5865 214.988 49.8931 215.191C50.2039 215.394 50.6224 215.496 51.1486 215.496C51.505 215.496 51.8178 215.45 52.0872 215.359C52.3607 215.264 52.5699 215.129 52.7149 214.955C52.8641 214.781 52.9387 214.578 52.9387 214.346C52.9387 214.068 52.8247 213.84 52.5968 213.662C52.3731 213.48 52.025 213.337 51.5526 213.233L50.0112 212.91C49.1328 212.728 48.4656 212.411 48.0098 211.959C47.554 211.503 47.3282 210.934 47.3323 210.25C47.3282 209.67 47.4857 209.158 47.8047 208.715C48.1238 208.271 48.5734 207.93 49.1535 207.689C49.7377 207.449 50.4152 207.329 51.1859 207.329C51.9359 207.329 52.5906 207.445 53.15 207.677C53.7094 207.909 54.1486 208.238 54.4677 208.665C54.7868 209.092 54.9732 209.595 55.0271 210.175H52.9014ZM58.9972 217H56.7596V204.271H58.9972V217ZM65.2007 217.186C64.2518 217.186 63.4272 216.988 62.7269 216.59C62.0308 216.188 61.4962 215.618 61.1233 214.881C60.7504 214.139 60.5639 213.273 60.5639 212.282C60.5639 211.309 60.7504 210.447 61.1233 209.697C61.4962 208.947 62.0246 208.365 62.7083 207.95C63.392 207.536 64.1813 207.329 65.0764 207.329C65.8885 207.329 66.624 207.503 67.2828 207.851C67.9417 208.199 68.4659 208.733 68.8554 209.454C69.2449 210.175 69.4396 211.075 69.4396 212.152V212.842H61.6143V211.325H67.2891C67.2849 210.894 67.1917 210.507 67.0094 210.163C66.827 209.819 66.5722 209.552 66.2449 209.361C65.9175 209.171 65.5404 209.075 65.1136 209.075C64.662 209.075 64.258 209.183 63.9016 209.398C63.5494 209.614 63.2739 209.906 63.075 210.275C62.8802 210.64 62.7828 211.037 62.7828 211.468V212.773C62.7828 213.329 62.8823 213.805 63.0812 214.203C63.2842 214.601 63.5701 214.907 63.9389 215.123C64.3077 215.338 64.7366 215.446 65.2255 215.446C65.5404 215.446 65.8264 215.405 66.0833 215.322C66.3443 215.235 66.5639 215.117 66.7421 214.968C66.9203 214.814 67.0591 214.64 67.1585 214.445H69.3464C69.2138 214.997 68.961 215.479 68.5881 215.894C68.2193 216.304 67.7428 216.623 67.1585 216.851C66.5784 217.075 65.9258 217.186 65.2007 217.186ZM75.2336 217.186C74.2847 217.186 73.4601 216.988 72.7598 216.59C72.0637 216.188 71.5291 215.618 71.1562 214.881C70.7833 214.139 70.5968 213.273 70.5968 212.282C70.5968 211.309 70.7833 210.447 71.1562 209.697C71.5291 208.947 72.0575 208.365 72.7412 207.95C73.4249 207.536 74.2142 207.329 75.1093 207.329C75.9214 207.329 76.6569 207.503 77.3157 207.851C77.9746 208.199 78.4988 208.733 78.8883 209.454C79.2778 210.175 79.4725 211.075 79.4725 212.152V212.842H71.6472V211.325H77.322C77.3178 210.894 77.2246 210.507 77.0423 210.163C76.8599 209.819 76.6051 209.552 76.2778 209.361C75.9504 209.171 75.5733 209.075 75.1465 209.075C74.6949 209.075 74.2909 209.183 73.9345 209.398C73.5823 209.614 73.3068 209.906 73.1079 210.275C72.9131 210.64 72.8157 211.037 72.8157 211.468V212.773C72.8157 213.329 72.9152 213.805 73.1141 214.203C73.3171 214.601 73.603 214.907 73.9718 215.123C74.3406 215.338 74.7695 215.446 75.2584 215.446C75.5733 215.446 75.8593 215.405 76.1162 215.322C76.3772 215.235 76.5968 215.117 76.775 214.968C76.9532 214.814 77.092 214.64 77.1914 214.445H79.3793C79.2467 214.997 78.9939 215.479 78.621 215.894C78.2522 216.304 77.7757 216.623 77.1914 216.851C76.6113 217.075 75.9587 217.186 75.2336 217.186ZM81.0399 207.453H83.234V209.026H83.3707C83.3873 209.001 83.3997 208.98 83.408 208.963C83.4163 208.943 83.4267 208.922 83.4391 208.901C83.5966 208.615 83.7809 208.36 83.9923 208.137C84.2077 207.909 84.4895 207.718 84.8376 207.565C85.1898 207.407 85.6124 207.329 86.1055 207.329C86.8514 207.329 87.5227 207.519 88.1193 207.901C88.7202 208.282 89.1905 208.843 89.5303 209.585C89.87 210.327 90.0399 211.211 90.0399 212.239C90.0399 213.262 89.8721 214.145 89.5365 214.887C89.2008 215.628 88.7347 216.194 88.138 216.584C87.5413 216.973 86.8659 217.168 86.1118 217.168C85.6145 217.168 85.1856 217.087 84.8251 216.925C84.4688 216.764 84.1808 216.569 83.9612 216.341C83.7457 216.109 83.5593 215.844 83.4018 215.546C83.3977 215.537 83.3914 215.529 83.3832 215.521C83.379 215.512 83.3749 215.504 83.3707 215.496H83.2775V220.58H81.0399V207.453ZM83.234 212.227C83.234 212.848 83.3231 213.393 83.5013 213.861C83.6794 214.329 83.9363 214.692 84.272 214.949C84.6118 215.206 85.0178 215.334 85.4902 215.334C85.975 215.334 86.3894 215.202 86.7333 214.936C87.0772 214.671 87.3341 214.305 87.504 213.836C87.678 213.368 87.7651 212.831 87.7651 212.227C87.7651 211.626 87.6801 211.095 87.5102 210.635C87.3403 210.171 87.0834 209.811 86.7395 209.554C86.3956 209.297 85.9792 209.169 85.4902 209.169C85.0137 209.169 84.6055 209.293 84.2658 209.541C83.9301 209.786 83.6732 210.14 83.495 210.604C83.321 211.064 83.234 211.605 83.234 212.227ZM97.9644 217H95.7268V204.271H97.9146V209.075H98.0327C98.1819 208.706 98.385 208.394 98.6419 208.137C98.9029 207.876 99.2178 207.677 99.5866 207.54C99.9595 207.399 100.386 207.329 100.867 207.329C101.53 207.329 102.108 207.47 102.601 207.751C103.098 208.029 103.482 208.437 103.751 208.976C104.02 209.515 104.155 210.163 104.155 210.921V217H101.917V211.263C101.917 210.836 101.843 210.47 101.694 210.163C101.544 209.852 101.329 209.618 101.047 209.461C100.765 209.303 100.428 209.224 100.034 209.224C99.6322 209.224 99.2758 209.311 98.9651 209.485C98.6543 209.655 98.4098 209.906 98.2316 210.238C98.0535 210.565 97.9644 210.954 97.9644 211.406V217ZM110.338 217.186C109.389 217.186 108.564 216.988 107.864 216.59C107.168 216.188 106.633 215.618 106.26 214.881C105.887 214.139 105.701 213.273 105.701 212.282C105.701 211.309 105.887 210.447 106.26 209.697C106.633 208.947 107.162 208.365 107.845 207.95C108.529 207.536 109.318 207.329 110.213 207.329C111.026 207.329 111.761 207.503 112.42 207.851C113.079 208.199 113.603 208.733 113.992 209.454C114.382 210.175 114.577 211.075 114.577 212.152V212.842H106.751V211.325H112.426C112.422 210.894 112.329 210.507 112.146 210.163C111.964 209.819 111.709 209.552 111.382 209.361C111.055 209.171 110.678 209.075 110.251 209.075C109.799 209.075 109.395 209.183 109.039 209.398C108.687 209.614 108.411 209.906 108.212 210.275C108.017 210.64 107.92 211.037 107.92 211.468V212.773C107.92 213.329 108.019 213.805 108.218 214.203C108.421 214.601 108.707 214.907 109.076 215.123C109.445 215.338 109.874 215.446 110.363 215.446C110.678 215.446 110.963 215.405 111.22 215.322C111.481 215.235 111.701 215.117 111.879 214.968C112.057 214.814 112.196 214.64 112.296 214.445H114.483C114.351 214.997 114.098 215.479 113.725 215.894C113.356 216.304 112.88 216.623 112.296 216.851C111.716 217.075 111.063 217.186 110.338 217.186ZM118.382 217H116.144V204.271H118.382V217ZM120.359 207.453H122.553V209.026H122.689C122.706 209.001 122.718 208.98 122.727 208.963C122.735 208.943 122.745 208.922 122.758 208.901C122.915 208.615 123.1 208.36 123.311 208.137C123.527 207.909 123.808 207.718 124.156 207.565C124.509 207.407 124.931 207.329 125.424 207.329C126.17 207.329 126.841 207.519 127.438 207.901C128.039 208.282 128.509 208.843 128.849 209.585C129.189 210.327 129.359 211.211 129.359 212.239C129.359 213.262 129.191 214.145 128.855 214.887C128.52 215.628 128.053 216.194 127.457 216.584C126.86 216.973 126.185 217.168 125.431 217.168C124.933 217.168 124.504 217.087 124.144 216.925C123.788 216.764 123.5 216.569 123.28 216.341C123.064 216.109 122.878 215.844 122.721 215.546C122.716 215.537 122.71 215.529 122.702 215.521C122.698 215.512 122.694 215.504 122.689 215.496H122.596V220.58H120.359V207.453ZM122.553 212.227C122.553 212.848 122.642 213.393 122.82 213.861C122.998 214.329 123.255 214.692 123.591 214.949C123.931 215.206 124.337 215.334 124.809 215.334C125.294 215.334 125.708 215.202 126.052 214.936C126.396 214.671 126.653 214.305 126.823 213.836C126.997 213.368 127.084 212.831 127.084 212.227C127.084 211.626 126.999 211.095 126.829 210.635C126.659 210.171 126.402 209.811 126.058 209.554C125.714 209.297 125.298 209.169 124.809 209.169C124.332 209.169 123.924 209.293 123.585 209.541C123.249 209.786 122.992 210.14 122.814 210.604C122.64 211.064 122.553 211.605 122.553 212.227ZM136.355 210.175C136.285 209.807 136.103 209.519 135.808 209.311C135.518 209.1 135.139 208.994 134.671 208.994C134.356 208.994 134.072 209.044 133.819 209.144C133.571 209.239 133.374 209.374 133.229 209.548C133.084 209.718 133.011 209.908 133.011 210.119C133.011 210.376 133.119 210.596 133.335 210.778C133.554 210.956 133.9 211.102 134.373 211.213L135.995 211.561C136.898 211.756 137.569 212.067 138.009 212.494C138.452 212.916 138.674 213.468 138.674 214.147C138.674 214.744 138.506 215.272 138.17 215.732C137.839 216.188 137.366 216.544 136.753 216.801C136.14 217.058 135.425 217.186 134.609 217.186C133.805 217.186 133.109 217.073 132.52 216.845C131.936 216.613 131.474 216.281 131.134 215.85C130.795 215.415 130.587 214.893 130.513 214.284H132.781C132.852 214.686 133.04 214.988 133.347 215.191C133.658 215.394 134.076 215.496 134.603 215.496C134.959 215.496 135.272 215.45 135.541 215.359C135.815 215.264 136.024 215.129 136.169 214.955C136.318 214.781 136.393 214.578 136.393 214.346C136.393 214.068 136.279 213.84 136.051 213.662C135.827 213.48 135.479 213.337 135.007 213.233L133.465 212.91C132.587 212.728 131.92 212.411 131.464 211.959C131.008 211.503 130.782 210.934 130.786 210.25C130.782 209.67 130.94 209.158 131.259 208.715C131.578 208.271 132.027 207.93 132.607 207.689C133.192 207.449 133.869 207.329 134.64 207.329C135.39 207.329 136.045 207.445 136.604 207.677C137.163 207.909 137.603 208.238 137.922 208.665C138.241 209.092 138.427 209.595 138.481 210.175H136.355ZM149.122 209.181H143.491V207.453H149.122V209.181ZM144.914 206.546C144.914 205.932 145.034 205.412 145.275 204.985C145.515 204.555 145.859 204.229 146.306 204.01C146.754 203.786 147.282 203.674 147.891 203.674C148.144 203.674 148.391 203.686 148.631 203.711C148.871 203.736 149.097 203.769 149.308 203.811V205.582C149.018 205.545 148.753 205.526 148.513 205.526C148.053 205.526 147.711 205.624 147.487 205.818C147.264 206.013 147.152 206.322 147.152 206.744V217H144.914V206.546ZM150.559 207.453H152.728V209.044H152.827C152.939 208.684 153.111 208.373 153.343 208.112C153.575 207.847 153.849 207.648 154.164 207.515C154.478 207.383 154.818 207.316 155.183 207.316C155.469 207.316 155.74 207.337 155.997 207.378V209.436C155.881 209.403 155.722 209.374 155.519 209.349C155.32 209.32 155.131 209.305 154.953 209.305C154.543 209.305 154.174 209.394 153.847 209.573C153.519 209.747 153.262 209.991 153.076 210.306C152.889 210.621 152.796 210.977 152.796 211.375V217H150.559V207.453ZM161.091 217.186C160.143 217.186 159.318 216.988 158.618 216.59C157.922 216.188 157.387 215.618 157.014 214.881C156.641 214.139 156.455 213.273 156.455 212.282C156.455 211.309 156.641 210.447 157.014 209.697C157.387 208.947 157.915 208.365 158.599 207.95C159.283 207.536 160.072 207.329 160.967 207.329C161.779 207.329 162.515 207.503 163.174 207.851C163.832 208.199 164.357 208.733 164.746 209.454C165.136 210.175 165.33 211.075 165.33 212.152V212.842H157.505V211.325H163.18C163.176 210.894 163.082 210.507 162.9 210.163C162.718 209.819 162.463 209.552 162.136 209.361C161.808 209.171 161.431 209.075 161.004 209.075C160.553 209.075 160.149 209.183 159.792 209.398C159.44 209.614 159.165 209.906 158.966 210.275C158.771 210.64 158.674 211.037 158.674 211.468V212.773C158.674 213.329 158.773 213.805 158.972 214.203C159.175 214.601 159.461 214.907 159.83 215.123C160.198 215.338 160.627 215.446 161.116 215.446C161.431 215.446 161.717 215.405 161.974 215.322C162.235 215.235 162.455 215.117 162.633 214.968C162.811 214.814 162.95 214.64 163.049 214.445H165.237C165.105 214.997 164.852 215.479 164.479 215.894C164.11 216.304 163.634 216.623 163.049 216.851C162.469 217.075 161.817 217.186 161.091 217.186ZM171.124 217.186C170.175 217.186 169.351 216.988 168.651 216.59C167.954 216.188 167.42 215.618 167.047 214.881C166.674 214.139 166.488 213.273 166.488 212.282C166.488 211.309 166.674 210.447 167.047 209.697C167.42 208.947 167.948 208.365 168.632 207.95C169.316 207.536 170.105 207.329 171 207.329C171.812 207.329 172.548 207.503 173.207 207.851C173.865 208.199 174.39 208.733 174.779 209.454C175.169 210.175 175.363 211.075 175.363 212.152V212.842H167.538V211.325H173.213C173.209 210.894 173.115 210.507 172.933 210.163C172.751 209.819 172.496 209.552 172.169 209.361C171.841 209.171 171.464 209.075 171.037 209.075C170.586 209.075 170.182 209.183 169.825 209.398C169.473 209.614 169.198 209.906 168.999 210.275C168.804 210.64 168.707 211.037 168.707 211.468V212.773C168.707 213.329 168.806 213.805 169.005 214.203C169.208 214.601 169.494 214.907 169.863 215.123C170.231 215.338 170.66 215.446 171.149 215.446C171.464 215.446 171.75 215.405 172.007 215.322C172.268 215.235 172.488 215.117 172.666 214.968C172.844 214.814 172.983 214.64 173.082 214.445H175.27C175.137 214.997 174.885 215.479 174.512 215.894C174.143 216.304 173.666 216.623 173.082 216.851C172.502 217.075 171.849 217.186 171.124 217.186ZM176.794 215.577L181.723 209.386V209.305H176.962V207.453H184.47V208.982L179.771 215.067V215.148H184.632V217H176.794V215.577ZM190.346 217.186C189.397 217.186 188.573 216.988 187.873 216.59C187.176 216.188 186.642 215.618 186.269 214.881C185.896 214.139 185.71 213.273 185.71 212.282C185.71 211.309 185.896 210.447 186.269 209.697C186.642 208.947 187.17 208.365 187.854 207.95C188.538 207.536 189.327 207.329 190.222 207.329C191.034 207.329 191.77 207.503 192.429 207.851C193.087 208.199 193.612 208.733 194.001 209.454C194.391 210.175 194.585 211.075 194.585 212.152V212.842H186.76V211.325H192.435C192.431 210.894 192.337 210.507 192.155 210.163C191.973 209.819 191.718 209.552 191.391 209.361C191.063 209.171 190.686 209.075 190.259 209.075C189.808 209.075 189.404 209.183 189.047 209.398C188.695 209.614 188.42 209.906 188.221 210.275C188.026 210.64 187.929 211.037 187.929 211.468V212.773C187.929 213.329 188.028 213.805 188.227 214.203C188.43 214.601 188.716 214.907 189.085 215.123C189.453 215.338 189.882 215.446 190.371 215.446C190.686 215.446 190.972 215.405 191.229 215.322C191.49 215.235 191.71 215.117 191.888 214.968C192.066 214.814 192.205 214.64 192.304 214.445H194.492C194.359 214.997 194.107 215.479 193.734 215.894C193.365 216.304 192.888 216.623 192.304 216.851C191.724 217.075 191.072 217.186 190.346 217.186ZM203.793 217.168C203.035 217.168 202.357 216.973 201.761 216.584C201.168 216.194 200.702 215.628 200.362 214.887C200.023 214.145 199.853 213.262 199.853 212.239C199.853 211.211 200.025 210.327 200.369 209.585C200.712 208.843 201.183 208.282 201.779 207.901C202.38 207.519 203.054 207.329 203.799 207.329C204.288 207.329 204.709 207.407 205.061 207.565C205.418 207.718 205.699 207.907 205.907 208.131C206.114 208.354 206.298 208.611 206.46 208.901C206.476 208.922 206.489 208.943 206.497 208.963C206.505 208.98 206.516 209.001 206.528 209.026H206.615V204.271H208.853V217H206.659V215.496H206.528C206.511 215.533 206.495 215.564 206.478 215.589C206.317 215.883 206.128 216.142 205.913 216.366C205.701 216.586 205.418 216.774 205.061 216.932C204.705 217.089 204.282 217.168 203.793 217.168ZM204.409 215.334C204.881 215.334 205.287 215.206 205.627 214.949C205.967 214.692 206.226 214.329 206.404 213.861C206.582 213.393 206.671 212.848 206.671 212.227C206.671 211.605 206.582 211.064 206.404 210.604C206.23 210.14 205.973 209.786 205.633 209.541C205.293 209.293 204.885 209.169 204.409 209.169C203.92 209.169 203.505 209.297 203.165 209.554C202.826 209.811 202.569 210.171 202.395 210.635C202.221 211.095 202.134 211.626 202.134 212.227C202.134 212.831 202.223 213.368 202.401 213.836C202.579 214.305 202.836 214.671 203.172 214.936C203.511 215.202 203.924 215.334 204.409 215.334ZM210.945 207.453H213.183V217H210.945V207.453ZM212.07 206.092C211.834 206.092 211.616 206.038 211.417 205.93C211.223 205.818 211.065 205.671 210.945 205.489C210.825 205.302 210.765 205.099 210.765 204.88C210.765 204.656 210.825 204.451 210.945 204.265C211.065 204.074 211.223 203.927 211.417 203.823C211.616 203.715 211.834 203.662 212.07 203.662C212.302 203.662 212.518 203.715 212.716 203.823C212.915 203.927 213.073 204.074 213.189 204.265C213.305 204.451 213.363 204.656 213.363 204.88C213.363 205.099 213.305 205.302 213.189 205.489C213.073 205.671 212.915 205.818 212.716 205.93C212.518 206.038 212.302 206.092 212.07 206.092ZM220.561 210.175C220.49 209.807 220.308 209.519 220.014 209.311C219.724 209.1 219.345 208.994 218.876 208.994C218.562 208.994 218.278 209.044 218.025 209.144C217.776 209.239 217.58 209.374 217.434 209.548C217.289 209.718 217.217 209.908 217.217 210.119C217.217 210.376 217.325 210.596 217.54 210.778C217.76 210.956 218.106 211.102 218.578 211.213L220.2 211.561C221.104 211.756 221.775 212.067 222.214 212.494C222.658 212.916 222.879 213.468 222.879 214.147C222.879 214.744 222.711 215.272 222.376 215.732C222.044 216.188 221.572 216.544 220.959 216.801C220.345 217.058 219.631 217.186 218.814 217.186C218.01 217.186 217.314 217.073 216.726 216.845C216.142 216.613 215.68 216.281 215.34 215.85C215 215.415 214.793 214.893 214.718 214.284H216.987C217.057 214.686 217.246 214.988 217.553 215.191C217.863 215.394 218.282 215.496 218.808 215.496C219.164 215.496 219.477 215.45 219.747 215.359C220.02 215.264 220.229 215.129 220.374 214.955C220.524 214.781 220.598 214.578 220.598 214.346C220.598 214.068 220.484 213.84 220.256 213.662C220.033 213.48 219.684 213.337 219.212 213.233L217.671 212.91C216.792 212.728 216.125 212.411 215.669 211.959C215.213 211.503 214.988 210.934 214.992 210.25C214.988 209.67 215.145 209.158 215.464 208.715C215.783 208.271 216.233 207.93 216.813 207.689C217.397 207.449 218.075 207.329 218.845 207.329C219.595 207.329 220.25 207.445 220.809 207.677C221.369 207.909 221.808 208.238 222.127 208.665C222.446 209.092 222.633 209.595 222.687 210.175H220.561ZM224.419 207.453H226.588V209.044H226.688C226.8 208.684 226.972 208.373 227.204 208.112C227.436 207.847 227.709 207.648 228.024 207.515C228.339 207.383 228.679 207.316 229.043 207.316C229.329 207.316 229.601 207.337 229.858 207.378V209.436C229.742 209.403 229.582 209.374 229.379 209.349C229.18 209.32 228.992 209.305 228.813 209.305C228.403 209.305 228.034 209.394 227.707 209.573C227.38 209.747 227.123 209.991 226.936 210.306C226.75 210.621 226.657 210.977 226.657 211.375V217H224.419V207.453ZM237.109 207.453H239.341V217H237.178V215.309H237.078C236.933 215.67 236.724 215.987 236.45 216.26C236.181 216.53 235.856 216.741 235.475 216.894C235.097 217.048 234.675 217.124 234.207 217.124C233.577 217.124 233.021 216.983 232.541 216.702C232.064 216.416 231.691 216.003 231.422 215.465C231.157 214.926 231.024 214.282 231.024 213.532V207.453H233.262V213.19C233.262 213.588 233.338 213.936 233.492 214.234C233.645 214.532 233.856 214.762 234.126 214.924C234.395 215.086 234.71 215.166 235.07 215.166C235.414 215.166 235.744 215.084 236.059 214.918C236.374 214.748 236.626 214.501 236.817 214.178C237.012 213.851 237.109 213.453 237.109 212.985V207.453ZM241.321 207.453H243.515V209.026H243.652C243.668 209.001 243.681 208.98 243.689 208.963C243.697 208.943 243.708 208.922 243.72 208.901C243.877 208.615 244.062 208.36 244.273 208.137C244.489 207.909 244.77 207.718 245.118 207.565C245.471 207.407 245.893 207.329 246.386 207.329C247.132 207.329 247.804 207.519 248.4 207.901C249.001 208.282 249.471 208.843 249.811 209.585C250.151 210.327 250.321 211.211 250.321 212.239C250.321 213.262 250.153 214.145 249.817 214.887C249.482 215.628 249.016 216.194 248.419 216.584C247.822 216.973 247.147 217.168 246.393 217.168C245.895 217.168 245.467 217.087 245.106 216.925C244.75 216.764 244.462 216.569 244.242 216.341C244.027 216.109 243.84 215.844 243.683 215.546C243.679 215.537 243.672 215.529 243.664 215.521C243.66 215.512 243.656 215.504 243.652 215.496H243.558V220.58H241.321V207.453ZM243.515 212.227C243.515 212.848 243.604 213.393 243.782 213.861C243.96 214.329 244.217 214.692 244.553 214.949C244.893 215.206 245.299 215.334 245.771 215.334C246.256 215.334 246.67 215.202 247.014 214.936C247.358 214.671 247.615 214.305 247.785 213.836C247.959 213.368 248.046 212.831 248.046 212.227C248.046 211.626 247.961 211.095 247.791 210.635C247.621 210.171 247.364 209.811 247.02 209.554C246.676 209.297 246.26 209.169 245.771 209.169C245.295 209.169 244.886 209.293 244.547 209.541C244.211 209.786 243.954 210.14 243.776 210.604C243.602 211.064 243.515 211.605 243.515 212.227ZM256.665 209.181H251.195V207.453H256.665V209.181ZM254.788 205.166V214.128C254.788 214.419 254.833 214.644 254.924 214.806C255.016 214.968 255.134 215.081 255.279 215.148C255.424 215.21 255.602 215.243 255.813 215.247C255.987 215.251 256.315 215.237 256.795 215.204V217.037C256.422 217.099 256 217.131 255.527 217.131C254.951 217.131 254.44 217.033 253.992 216.838C253.545 216.644 253.19 216.352 252.929 215.962C252.672 215.568 252.546 215.081 252.55 214.501V205.166H254.788ZM266.46 220.779C265.627 220.779 264.898 220.661 264.272 220.425C263.646 220.193 263.153 219.855 262.793 219.412C262.436 218.968 262.231 218.448 262.177 217.852H264.415C264.469 218.129 264.587 218.359 264.769 218.541C264.951 218.728 265.188 218.865 265.478 218.952C265.772 219.043 266.112 219.088 266.497 219.088C267.201 219.088 267.748 218.927 268.138 218.604C268.527 218.28 268.722 217.779 268.722 217.099V215.285H268.61L268.585 215.328C268.428 215.618 268.241 215.871 268.026 216.086C267.815 216.298 267.527 216.48 267.162 216.633C266.797 216.787 266.364 216.863 265.863 216.863C265.113 216.863 264.44 216.683 263.843 216.323C263.25 215.958 262.782 215.423 262.438 214.719C262.094 214.01 261.922 213.155 261.922 212.152C261.922 211.133 262.094 210.26 262.438 209.535C262.782 208.806 263.253 208.257 263.849 207.888C264.45 207.515 265.123 207.329 265.869 207.329C266.354 207.329 266.775 207.407 267.131 207.565C267.487 207.718 267.769 207.907 267.976 208.131C268.183 208.35 268.372 208.603 268.542 208.889C268.567 208.934 268.592 208.98 268.616 209.026H268.728V207.453H270.935V217.155C270.935 217.947 270.744 218.614 270.363 219.157C269.986 219.704 269.46 220.11 268.784 220.375C268.113 220.644 267.338 220.779 266.46 220.779ZM266.478 215.104C266.955 215.104 267.361 214.988 267.697 214.756C268.036 214.52 268.295 214.184 268.474 213.749C268.652 213.314 268.741 212.792 268.741 212.183C268.741 211.578 268.652 211.048 268.474 210.592C268.299 210.136 268.043 209.786 267.703 209.541C267.363 209.293 266.955 209.169 266.478 209.169C265.994 209.169 265.579 209.297 265.235 209.554C264.895 209.807 264.639 210.161 264.465 210.617C264.291 211.073 264.203 211.595 264.203 212.183C264.203 212.771 264.293 213.285 264.471 213.724C264.649 214.164 264.906 214.503 265.241 214.744C265.577 214.984 265.989 215.104 266.478 215.104ZM272.909 207.453H275.079V209.044H275.178C275.29 208.684 275.462 208.373 275.694 208.112C275.926 207.847 276.199 207.648 276.514 207.515C276.829 207.383 277.169 207.316 277.534 207.316C277.82 207.316 278.091 207.337 278.348 207.378V209.436C278.232 209.403 278.072 209.374 277.869 209.349C277.67 209.32 277.482 209.305 277.304 209.305C276.893 209.305 276.525 209.394 276.197 209.573C275.87 209.747 275.613 209.991 275.427 210.306C275.24 210.621 275.147 210.977 275.147 211.375V217H272.909V207.453ZM285.02 212.78C284.813 212.788 284.473 212.809 284 212.842C283.528 212.871 283.126 212.9 282.795 212.929C282.243 212.97 281.815 213.105 281.508 213.333C281.205 213.561 281.054 213.88 281.054 214.29C281.054 214.559 281.123 214.787 281.259 214.974C281.396 215.16 281.585 215.303 281.825 215.403C282.069 215.498 282.349 215.546 282.664 215.546C283.107 215.546 283.499 215.456 283.839 215.278C284.179 215.096 284.44 214.856 284.622 214.557C284.804 214.259 284.895 213.932 284.895 213.575L284.883 210.523C284.883 210.209 284.817 209.941 284.684 209.722C284.551 209.498 284.357 209.328 284.1 209.212C283.843 209.096 283.528 209.038 283.155 209.038C282.828 209.038 282.542 209.086 282.297 209.181C282.053 209.272 281.852 209.403 281.694 209.573C281.537 209.742 281.431 209.943 281.377 210.175H279.208C279.262 209.628 279.457 209.14 279.792 208.709C280.128 208.278 280.588 207.94 281.172 207.695C281.757 207.451 282.438 207.329 283.217 207.329C283.893 207.329 284.52 207.432 285.1 207.64C285.685 207.847 286.165 208.197 286.542 208.69C286.924 209.179 287.114 209.821 287.114 210.617V217H284.97V215.689H284.895C284.75 215.974 284.551 216.229 284.299 216.453C284.05 216.673 283.739 216.851 283.366 216.988C282.993 217.124 282.569 217.193 282.092 217.193C281.475 217.193 280.924 217.083 280.439 216.863C279.958 216.644 279.579 216.318 279.301 215.887C279.028 215.452 278.891 214.93 278.891 214.321C278.891 213.335 279.221 212.624 279.88 212.189C280.542 211.75 281.398 211.493 282.446 211.419C282.72 211.402 283.051 211.383 283.441 211.363C283.835 211.342 284.197 211.323 284.529 211.307C284.732 211.298 284.889 211.292 285.001 211.288L285.02 212.78ZM293.813 217H291.345L287.945 207.453H290.326L292.532 214.551H292.632L294.845 207.453H297.225L293.813 217ZM298.455 207.453H300.693V217H298.455V207.453ZM299.58 206.092C299.344 206.092 299.127 206.038 298.928 205.93C298.733 205.818 298.575 205.671 298.455 205.489C298.335 205.302 298.275 205.099 298.275 204.88C298.275 204.656 298.335 204.451 298.455 204.265C298.575 204.074 298.733 203.927 298.928 203.823C299.127 203.715 299.344 203.662 299.58 203.662C299.812 203.662 300.028 203.715 300.227 203.823C300.426 203.927 300.583 204.074 300.699 204.265C300.815 204.451 300.873 204.656 300.873 204.88C300.873 205.099 300.815 205.302 300.699 205.489C300.583 205.671 300.426 205.818 300.227 205.93C300.028 206.038 299.812 206.092 299.58 206.092ZM307.418 209.181H301.949V207.453H307.418V209.181ZM305.541 205.166V214.128C305.541 214.419 305.587 214.644 305.678 214.806C305.769 214.968 305.887 215.081 306.032 215.148C306.177 215.21 306.356 215.243 306.567 215.247C306.741 215.251 307.068 215.237 307.549 215.204V217.037C307.176 217.099 306.753 217.131 306.281 217.131C305.705 217.131 305.193 217.033 304.746 216.838C304.298 216.644 303.944 216.352 303.683 215.962C303.426 215.568 303.3 215.081 303.304 214.501V205.166H305.541ZM310.319 220.58C309.817 220.58 309.43 220.566 309.156 220.537L309.163 218.74C309.225 218.744 309.287 218.749 309.349 218.753C309.411 218.757 309.475 218.759 309.542 218.759C309.703 218.763 309.892 218.767 310.107 218.771C310.331 218.771 310.518 218.751 310.667 218.709C310.82 218.672 310.965 218.575 311.102 218.417C311.239 218.264 311.367 218.028 311.487 217.709L311.686 217.199L308.218 207.453H310.592L312.799 214.669H312.898L315.117 207.453H317.498L313.669 218.162C313.387 218.95 312.975 219.548 312.432 219.959C311.893 220.373 311.189 220.58 310.319 220.58ZM324.502 212.618H318.778V210.772H324.502V212.618ZM331.345 209.181H325.714V207.453H331.345V209.181ZM327.137 206.546C327.137 205.932 327.258 205.412 327.498 204.985C327.738 204.555 328.082 204.229 328.53 204.01C328.977 203.786 329.506 203.674 330.115 203.674C330.367 203.674 330.614 203.686 330.854 203.711C331.095 203.736 331.32 203.769 331.532 203.811V205.582C331.242 205.545 330.977 205.526 330.736 205.526C330.276 205.526 329.934 205.624 329.711 205.818C329.487 206.013 329.375 206.322 329.375 206.744V217H327.137V206.546ZM332.782 207.453H334.951V209.044H335.051C335.162 208.684 335.334 208.373 335.566 208.112C335.798 207.847 336.072 207.648 336.387 207.515C336.702 207.383 337.042 207.316 337.406 207.316C337.692 207.316 337.964 207.337 338.22 207.378V209.436C338.104 209.403 337.945 209.374 337.742 209.349C337.543 209.32 337.354 209.305 337.176 209.305C336.766 209.305 336.397 209.394 336.07 209.573C335.743 209.747 335.486 209.991 335.299 210.306C335.113 210.621 335.019 210.977 335.019 211.375V217H332.782V207.453ZM343.315 217.186C342.366 217.186 341.541 216.988 340.841 216.59C340.145 216.188 339.61 215.618 339.237 214.881C338.864 214.139 338.678 213.273 338.678 212.282C338.678 211.309 338.864 210.447 339.237 209.697C339.61 208.947 340.139 208.365 340.822 207.95C341.506 207.536 342.295 207.329 343.19 207.329C344.003 207.329 344.738 207.503 345.397 207.851C346.056 208.199 346.58 208.733 346.969 209.454C347.359 210.175 347.554 211.075 347.554 212.152V212.842H339.728V211.325H345.403C345.399 210.894 345.306 210.507 345.123 210.163C344.941 209.819 344.686 209.552 344.359 209.361C344.032 209.171 343.655 209.075 343.228 209.075C342.776 209.075 342.372 209.183 342.016 209.398C341.663 209.614 341.388 209.906 341.189 210.275C340.994 210.64 340.897 211.037 340.897 211.468V212.773C340.897 213.329 340.996 213.805 341.195 214.203C341.398 214.601 341.684 214.907 342.053 215.123C342.422 215.338 342.851 215.446 343.34 215.446C343.655 215.446 343.94 215.405 344.197 215.322C344.458 215.235 344.678 215.117 344.856 214.968C345.034 214.814 345.173 214.64 345.273 214.445H347.46C347.328 214.997 347.075 215.479 346.702 215.894C346.333 216.304 345.857 216.623 345.273 216.851C344.692 217.075 344.04 217.186 343.315 217.186ZM353.348 217.186C352.399 217.186 351.574 216.988 350.874 216.59C350.178 216.188 349.643 215.618 349.27 214.881C348.897 214.139 348.711 213.273 348.711 212.282C348.711 211.309 348.897 210.447 349.27 209.697C349.643 208.947 350.172 208.365 350.855 207.95C351.539 207.536 352.328 207.329 353.223 207.329C354.035 207.329 354.771 207.503 355.43 207.851C356.089 208.199 356.613 208.733 357.002 209.454C357.392 210.175 357.587 211.075 357.587 212.152V212.842H349.761V211.325H355.436C355.432 210.894 355.339 210.507 355.156 210.163C354.974 209.819 354.719 209.552 354.392 209.361C354.064 209.171 353.687 209.075 353.261 209.075C352.809 209.075 352.405 209.183 352.049 209.398C351.696 209.614 351.421 209.906 351.222 210.275C351.027 210.64 350.93 211.037 350.93 211.468V212.773C350.93 213.329 351.029 213.805 351.228 214.203C351.431 214.601 351.717 214.907 352.086 215.123C352.455 215.338 352.884 215.446 353.372 215.446C353.687 215.446 353.973 215.405 354.23 215.322C354.491 215.235 354.711 215.117 354.889 214.968C355.067 214.814 355.206 214.64 355.305 214.445H357.493C357.361 214.997 357.108 215.479 356.735 215.894C356.366 216.304 355.89 216.623 355.305 216.851C354.725 217.075 354.073 217.186 353.348 217.186ZM368.926 212.78C368.719 212.788 368.379 212.809 367.907 212.842C367.435 212.871 367.033 212.9 366.701 212.929C366.15 212.97 365.721 213.105 365.415 213.333C365.112 213.561 364.961 213.88 364.961 214.29C364.961 214.559 365.029 214.787 365.166 214.974C365.303 215.16 365.491 215.303 365.732 215.403C365.976 215.498 366.256 215.546 366.571 215.546C367.014 215.546 367.406 215.456 367.745 215.278C368.085 215.096 368.346 214.856 368.529 214.557C368.711 214.259 368.802 213.932 368.802 213.575L368.79 210.523C368.79 210.209 368.723 209.941 368.591 209.722C368.458 209.498 368.263 209.328 368.007 209.212C367.75 209.096 367.435 209.038 367.062 209.038C366.734 209.038 366.449 209.086 366.204 209.181C365.96 209.272 365.759 209.403 365.601 209.573C365.444 209.742 365.338 209.943 365.284 210.175H363.115C363.169 209.628 363.364 209.14 363.699 208.709C364.035 208.278 364.495 207.94 365.079 207.695C365.663 207.451 366.345 207.329 367.124 207.329C367.799 207.329 368.427 207.432 369.007 207.64C369.591 207.847 370.072 208.197 370.449 208.69C370.83 209.179 371.021 209.821 371.021 210.617V217H368.877V215.689H368.802C368.657 215.974 368.458 216.229 368.205 216.453C367.957 216.673 367.646 216.851 367.273 216.988C366.9 217.124 366.475 217.193 365.999 217.193C365.382 217.193 364.83 217.083 364.346 216.863C363.865 216.644 363.486 216.318 363.208 215.887C362.935 215.452 362.798 214.93 362.798 214.321C362.798 213.335 363.127 212.624 363.786 212.189C364.449 211.75 365.305 211.493 366.353 211.419C366.627 211.402 366.958 211.383 367.348 211.363C367.741 211.342 368.104 211.323 368.435 211.307C368.638 211.298 368.796 211.292 368.908 211.288L368.926 212.78ZM377.711 209.181H372.241V207.453H377.711V209.181ZM375.834 205.166V214.128C375.834 214.419 375.879 214.644 375.97 214.806C376.061 214.968 376.179 215.081 376.325 215.148C376.47 215.21 376.648 215.243 376.859 215.247C377.033 215.251 377.36 215.237 377.841 215.204V217.037C377.468 217.099 377.046 217.131 376.573 217.131C375.997 217.131 375.485 217.033 375.038 216.838C374.59 216.644 374.236 216.352 373.975 215.962C373.718 215.568 373.592 215.081 373.596 214.501V205.166H375.834ZM384.017 209.181H378.547V207.453H384.017V209.181ZM382.14 205.166V214.128C382.14 214.419 382.185 214.644 382.277 214.806C382.368 214.968 382.486 215.081 382.631 215.148C382.776 215.21 382.954 215.243 383.165 215.247C383.339 215.251 383.667 215.237 384.147 215.204V217.037C383.775 217.099 383.352 217.131 382.879 217.131C382.304 217.131 381.792 217.033 381.344 216.838C380.897 216.644 380.542 216.352 380.281 215.962C380.025 215.568 379.898 215.081 379.902 214.501V205.166H382.14ZM389.696 217.186C388.747 217.186 387.922 216.988 387.222 216.59C386.526 216.188 385.991 215.618 385.618 214.881C385.245 214.139 385.059 213.273 385.059 212.282C385.059 211.309 385.245 210.447 385.618 209.697C385.991 208.947 386.52 208.365 387.203 207.95C387.887 207.536 388.676 207.329 389.571 207.329C390.384 207.329 391.119 207.503 391.778 207.851C392.437 208.199 392.961 208.733 393.35 209.454C393.74 210.175 393.935 211.075 393.935 212.152V212.842H386.109V211.325H391.784C391.78 210.894 391.687 210.507 391.504 210.163C391.322 209.819 391.067 209.552 390.74 209.361C390.413 209.171 390.035 209.075 389.609 209.075C389.157 209.075 388.753 209.183 388.397 209.398C388.044 209.614 387.769 209.906 387.57 210.275C387.375 210.64 387.278 211.037 387.278 211.468V212.773C387.278 213.329 387.377 213.805 387.576 214.203C387.779 214.601 388.065 214.907 388.434 215.123C388.803 215.338 389.232 215.446 389.721 215.446C390.035 215.446 390.321 215.405 390.578 215.322C390.839 215.235 391.059 215.117 391.237 214.968C391.415 214.814 391.554 214.64 391.654 214.445H393.841C393.709 214.997 393.456 215.479 393.083 215.894C392.714 216.304 392.238 216.623 391.654 216.851C391.073 217.075 390.421 217.186 389.696 217.186ZM395.502 207.453H397.64V209.075H397.758C397.957 208.524 398.287 208.095 398.746 207.789C399.206 207.482 399.751 207.329 400.381 207.329C400.808 207.329 401.193 207.399 401.537 207.54C401.885 207.677 402.18 207.876 402.42 208.137C402.66 208.398 402.84 208.711 402.961 209.075H403.06C403.201 208.719 403.41 208.41 403.688 208.149C403.965 207.888 404.295 207.687 404.676 207.546C405.057 207.401 405.476 207.329 405.932 207.329C406.52 207.329 407.038 207.455 407.485 207.708C407.937 207.956 408.287 208.327 408.536 208.82C408.789 209.309 408.915 209.9 408.915 210.592V217H406.671V210.934C406.671 210.366 406.52 209.937 406.217 209.647C405.915 209.357 405.521 209.212 405.037 209.212C404.676 209.212 404.365 209.289 404.104 209.442C403.843 209.591 403.644 209.805 403.508 210.082C403.371 210.36 403.302 210.677 403.302 211.033V217H401.108V210.84C401.108 210.517 401.042 210.233 400.909 209.989C400.777 209.74 400.588 209.55 400.344 209.417C400.099 209.28 399.818 209.212 399.499 209.212C399.175 209.212 398.879 209.295 398.61 209.461C398.345 209.626 398.133 209.86 397.976 210.163C397.818 210.465 397.74 210.807 397.74 211.189V217H395.502V207.453ZM410.879 207.453H413.073V209.026H413.209C413.226 209.001 413.238 208.98 413.247 208.963C413.255 208.943 413.265 208.922 413.278 208.901C413.435 208.615 413.62 208.36 413.831 208.137C414.046 207.909 414.328 207.718 414.676 207.565C415.029 207.407 415.451 207.329 415.944 207.329C416.69 207.329 417.361 207.519 417.958 207.901C418.559 208.282 419.029 208.843 419.369 209.585C419.709 210.327 419.879 211.211 419.879 212.239C419.879 213.262 419.711 214.145 419.375 214.887C419.04 215.628 418.573 216.194 417.977 216.584C417.38 216.973 416.705 217.168 415.95 217.168C415.453 217.168 415.024 217.087 414.664 216.925C414.308 216.764 414.02 216.569 413.8 216.341C413.584 216.109 413.398 215.844 413.241 215.546C413.236 215.537 413.23 215.529 413.222 215.521C413.218 215.512 413.214 215.504 413.209 215.496H413.116V220.58H410.879V207.453ZM413.073 212.227C413.073 212.848 413.162 213.393 413.34 213.861C413.518 214.329 413.775 214.692 414.111 214.949C414.45 215.206 414.857 215.334 415.329 215.334C415.814 215.334 416.228 215.202 416.572 214.936C416.916 214.671 417.173 214.305 417.343 213.836C417.517 213.368 417.604 212.831 417.604 212.227C417.604 211.626 417.519 211.095 417.349 210.635C417.179 210.171 416.922 209.811 416.578 209.554C416.234 209.297 415.818 209.169 415.329 209.169C414.852 209.169 414.444 209.293 414.105 209.541C413.769 209.786 413.512 210.14 413.334 210.604C413.16 211.064 413.073 211.605 413.073 212.227ZM426.223 209.181H420.753V207.453H426.223V209.181ZM424.346 205.166V214.128C424.346 214.419 424.391 214.644 424.482 214.806C424.574 214.968 424.692 215.081 424.837 215.148C424.982 215.21 425.16 215.243 425.371 215.247C425.545 215.251 425.873 215.237 426.353 215.204V217.037C425.98 217.099 425.558 217.131 425.085 217.131C424.509 217.131 423.998 217.033 423.55 216.838C423.103 216.644 422.748 216.352 422.487 215.962C422.23 215.568 422.104 215.081 422.108 214.501V205.166H424.346ZM433.041 210.175C432.971 209.807 432.788 209.519 432.494 209.311C432.204 209.1 431.825 208.994 431.357 208.994C431.042 208.994 430.758 209.044 430.505 209.144C430.256 209.239 430.06 209.374 429.915 209.548C429.77 209.718 429.697 209.908 429.697 210.119C429.697 210.376 429.805 210.596 430.02 210.778C430.24 210.956 430.586 211.102 431.058 211.213L432.681 211.561C433.584 211.756 434.255 212.067 434.694 212.494C435.138 212.916 435.359 213.468 435.359 214.147C435.359 214.744 435.192 215.272 434.856 215.732C434.524 216.188 434.052 216.544 433.439 216.801C432.826 217.058 432.111 217.186 431.294 217.186C430.491 217.186 429.794 217.073 429.206 216.845C428.622 216.613 428.16 216.281 427.82 215.85C427.48 215.415 427.273 214.893 427.198 214.284H429.467C429.538 214.686 429.726 214.988 430.033 215.191C430.344 215.394 430.762 215.496 431.288 215.496C431.645 215.496 431.957 215.45 432.227 215.359C432.5 215.264 432.71 215.129 432.855 214.955C433.004 214.781 433.078 214.578 433.078 214.346C433.078 214.068 432.964 213.84 432.736 213.662C432.513 213.48 432.165 213.337 431.692 213.233L430.151 212.91C429.272 212.728 428.605 212.411 428.149 211.959C427.694 211.503 427.468 210.934 427.472 210.25C427.468 209.67 427.625 209.158 427.944 208.715C428.263 208.271 428.713 207.93 429.293 207.689C429.877 207.449 430.555 207.329 431.326 207.329C432.076 207.329 432.73 207.445 433.29 207.677C433.849 207.909 434.288 208.238 434.607 208.665C434.926 209.092 435.113 209.595 435.167 210.175H433.041ZM438.273 217.137C438.028 217.137 437.8 217.075 437.589 216.95C437.378 216.826 437.21 216.662 437.086 216.459C436.966 216.252 436.908 216.024 436.912 215.776C436.908 215.531 436.966 215.305 437.086 215.098C437.21 214.887 437.378 214.723 437.589 214.607C437.8 214.487 438.028 214.427 438.273 214.427C438.513 214.427 438.739 214.487 438.95 214.607C439.162 214.723 439.327 214.887 439.448 215.098C439.572 215.309 439.634 215.535 439.634 215.776C439.634 216.02 439.572 216.246 439.448 216.453C439.327 216.66 439.162 216.826 438.95 216.95C438.739 217.075 438.513 217.137 438.273 217.137ZM447.367 211.294H447.721L451.165 207.453H453.775L449.549 212.146H449.101L447.373 213.992L447.367 211.294ZM445.328 204.271H447.566V217H445.328V204.271ZM448.2 212.649L449.71 211.07L453.999 217H451.326L448.2 212.649ZM458.699 217.186C457.779 217.186 456.974 216.981 456.282 216.571C455.594 216.161 455.061 215.585 454.684 214.843C454.311 214.102 454.125 213.242 454.125 212.264C454.125 211.286 454.311 210.424 454.684 209.678C455.061 208.932 455.594 208.354 456.282 207.944C456.974 207.534 457.779 207.329 458.699 207.329C459.619 207.329 460.423 207.534 461.111 207.944C461.803 208.354 462.335 208.932 462.708 209.678C463.081 210.424 463.268 211.286 463.268 212.264C463.268 213.242 463.081 214.102 462.708 214.843C462.335 215.585 461.803 216.161 461.111 216.571C460.423 216.981 459.619 217.186 458.699 217.186ZM458.706 215.396C459.203 215.396 459.623 215.26 459.967 214.986C460.311 214.709 460.568 214.334 460.738 213.861C460.912 213.385 460.999 212.85 460.999 212.258C460.999 211.661 460.912 211.124 460.738 210.648C460.568 210.171 460.311 209.794 459.967 209.517C459.623 209.239 459.203 209.1 458.706 209.1C458.204 209.1 457.779 209.239 457.431 209.517C457.087 209.794 456.826 210.171 456.648 210.648C456.474 211.124 456.387 211.661 456.387 212.258C456.387 212.854 456.474 213.389 456.648 213.861C456.826 214.334 457.087 214.709 457.431 214.986C457.779 215.26 458.204 215.396 458.706 215.396ZM467.069 217H464.832V204.271H467.069V217ZM472.595 217.168C471.837 217.168 471.159 216.973 470.563 216.584C469.97 216.194 469.504 215.628 469.164 214.887C468.824 214.145 468.655 213.262 468.655 212.239C468.655 211.211 468.826 210.327 469.17 209.585C469.514 208.843 469.985 208.282 470.581 207.901C471.182 207.519 471.855 207.329 472.601 207.329C473.09 207.329 473.511 207.407 473.863 207.565C474.219 207.718 474.501 207.907 474.708 208.131C474.916 208.354 475.1 208.611 475.262 208.901C475.278 208.922 475.291 208.943 475.299 208.963C475.307 208.98 475.318 209.001 475.33 209.026H475.417V204.271H477.655V217H475.46V215.496H475.33C475.313 215.533 475.297 215.564 475.28 215.589C475.119 215.883 474.93 216.142 474.715 216.366C474.503 216.586 474.219 216.774 473.863 216.932C473.507 217.089 473.084 217.168 472.595 217.168ZM473.21 215.334C473.683 215.334 474.089 215.206 474.429 214.949C474.768 214.692 475.027 214.329 475.206 213.861C475.384 213.393 475.473 212.848 475.473 212.227C475.473 211.605 475.384 211.064 475.206 210.604C475.032 210.14 474.775 209.786 474.435 209.541C474.095 209.293 473.687 209.169 473.21 209.169C472.722 209.169 472.307 209.297 471.967 209.554C471.628 209.811 471.371 210.171 471.197 210.635C471.023 211.095 470.936 211.626 470.936 212.227C470.936 212.831 471.025 213.368 471.203 213.836C471.381 214.305 471.638 214.671 471.974 214.936C472.313 215.202 472.726 215.334 473.21 215.334ZM485.148 210.175C485.078 209.807 484.895 209.519 484.601 209.311C484.311 209.1 483.932 208.994 483.464 208.994C483.149 208.994 482.865 209.044 482.612 209.144C482.364 209.239 482.167 209.374 482.022 209.548C481.877 209.718 481.804 209.908 481.804 210.119C481.804 210.376 481.912 210.596 482.127 210.778C482.347 210.956 482.693 211.102 483.165 211.213L484.788 211.561C485.691 211.756 486.362 212.067 486.802 212.494C487.245 212.916 487.467 213.468 487.467 214.147C487.467 214.744 487.299 215.272 486.963 215.732C486.632 216.188 486.159 216.544 485.546 216.801C484.933 217.058 484.218 217.186 483.402 217.186C482.598 217.186 481.902 217.073 481.313 216.845C480.729 216.613 480.267 216.281 479.927 215.85C479.587 215.415 479.38 214.893 479.306 214.284H481.574C481.645 214.686 481.833 214.988 482.14 215.191C482.451 215.394 482.869 215.496 483.395 215.496C483.752 215.496 484.065 215.45 484.334 215.359C484.607 215.264 484.817 215.129 484.962 214.955C485.111 214.781 485.185 214.578 485.185 214.346C485.185 214.068 485.072 213.84 484.844 213.662C484.62 213.48 484.272 213.337 483.799 213.233L482.258 212.91C481.38 212.728 480.712 212.411 480.257 211.959C479.801 211.503 479.575 210.934 479.579 210.25C479.575 209.67 479.732 209.158 480.052 208.715C480.371 208.271 480.82 207.93 481.4 207.689C481.985 207.449 482.662 207.329 483.433 207.329C484.183 207.329 484.837 207.445 485.397 207.677C485.956 207.909 486.395 208.238 486.714 208.665C487.034 209.092 487.22 209.595 487.274 210.175H485.148ZM491.244 217H489.006V204.271H491.244V217ZM497.447 217.186C496.499 217.186 495.674 216.988 494.974 216.59C494.278 216.188 493.743 215.618 493.37 214.881C492.997 214.139 492.811 213.273 492.811 212.282C492.811 211.309 492.997 210.447 493.37 209.697C493.743 208.947 494.271 208.365 494.955 207.95C495.639 207.536 496.428 207.329 497.323 207.329C498.135 207.329 498.871 207.503 499.53 207.851C500.188 208.199 500.713 208.733 501.102 209.454C501.492 210.175 501.686 211.075 501.686 212.152V212.842H493.861V211.325H499.536C499.532 210.894 499.438 210.507 499.256 210.163C499.074 209.819 498.819 209.552 498.492 209.361C498.164 209.171 497.787 209.075 497.36 209.075C496.909 209.075 496.505 209.183 496.148 209.398C495.796 209.614 495.521 209.906 495.322 210.275C495.127 210.64 495.03 211.037 495.03 211.468V212.773C495.03 213.329 495.129 213.805 495.328 214.203C495.531 214.601 495.817 214.907 496.186 215.123C496.555 215.338 496.983 215.446 497.472 215.446C497.787 215.446 498.073 215.405 498.33 215.322C498.591 215.235 498.811 215.117 498.989 214.968C499.167 214.814 499.306 214.64 499.405 214.445H501.593C501.461 214.997 501.208 215.479 500.835 215.894C500.466 216.304 499.99 216.623 499.405 216.851C498.825 217.075 498.173 217.186 497.447 217.186ZM507.48 217.186C506.531 217.186 505.707 216.988 505.007 216.59C504.31 216.188 503.776 215.618 503.403 214.881C503.03 214.139 502.844 213.273 502.844 212.282C502.844 211.309 503.03 210.447 503.403 209.697C503.776 208.947 504.304 208.365 504.988 207.95C505.672 207.536 506.461 207.329 507.356 207.329C508.168 207.329 508.904 207.503 509.563 207.851C510.221 208.199 510.746 208.733 511.135 209.454C511.525 210.175 511.719 211.075 511.719 212.152V212.842H503.894V211.325H509.569C509.565 210.894 509.471 210.507 509.289 210.163C509.107 209.819 508.852 209.552 508.525 209.361C508.197 209.171 507.82 209.075 507.393 209.075C506.942 209.075 506.538 209.183 506.181 209.398C505.829 209.614 505.554 209.906 505.355 210.275C505.16 210.64 505.063 211.037 505.063 211.468V212.773C505.063 213.329 505.162 213.805 505.361 214.203C505.564 214.601 505.85 214.907 506.219 215.123C506.587 215.338 507.016 215.446 507.505 215.446C507.82 215.446 508.106 215.405 508.363 215.322C508.624 215.235 508.844 215.117 509.022 214.968C509.2 214.814 509.339 214.64 509.438 214.445H511.626C511.493 214.997 511.241 215.479 510.868 215.894C510.499 216.304 510.022 216.623 509.438 216.851C508.858 217.075 508.205 217.186 507.48 217.186ZM513.287 207.453H515.481V209.026H515.618C515.634 209.001 515.647 208.98 515.655 208.963C515.663 208.943 515.673 208.922 515.686 208.901C515.843 208.615 516.028 208.36 516.239 208.137C516.455 207.909 516.736 207.718 517.084 207.565C517.437 207.407 517.859 207.329 518.352 207.329C519.098 207.329 519.769 207.519 520.366 207.901C520.967 208.282 521.437 208.843 521.777 209.585C522.117 210.327 522.287 211.211 522.287 212.239C522.287 213.262 522.119 214.145 521.783 214.887C521.448 215.628 520.981 216.194 520.385 216.584C519.788 216.973 519.113 217.168 518.359 217.168C517.861 217.168 517.432 217.087 517.072 216.925C516.716 216.764 516.428 216.569 516.208 216.341C515.993 216.109 515.806 215.844 515.649 215.546C515.644 215.537 515.638 215.529 515.63 215.521C515.626 215.512 515.622 215.504 515.618 215.496H515.524V220.58H513.287V207.453ZM515.481 212.227C515.481 212.848 515.57 213.393 515.748 213.861C515.926 214.329 516.183 214.692 516.519 214.949C516.859 215.206 517.265 215.334 517.737 215.334C518.222 215.334 518.636 215.202 518.98 214.936C519.324 214.671 519.581 214.305 519.751 213.836C519.925 213.368 520.012 212.831 520.012 212.227C520.012 211.626 519.927 211.095 519.757 210.635C519.587 210.171 519.33 209.811 518.986 209.554C518.642 209.297 518.226 209.169 517.737 209.169C517.26 209.169 516.852 209.293 516.513 209.541C516.177 209.786 515.92 210.14 515.742 210.604C515.568 211.064 515.481 211.605 515.481 212.227ZM525.436 208.951H523.727V204.271H525.436V208.951ZM532.689 210.175C532.619 209.807 532.437 209.519 532.142 209.311C531.852 209.1 531.473 208.994 531.005 208.994C530.69 208.994 530.406 209.044 530.153 209.144C529.905 209.239 529.708 209.374 529.563 209.548C529.418 209.718 529.345 209.908 529.345 210.119C529.345 210.376 529.453 210.596 529.669 210.778C529.888 210.956 530.234 211.102 530.707 211.213L532.329 211.561C533.232 211.756 533.903 212.067 534.343 212.494C534.786 212.916 535.008 213.468 535.008 214.147C535.008 214.744 534.84 215.272 534.504 215.732C534.173 216.188 533.7 216.544 533.087 216.801C532.474 217.058 531.759 217.186 530.943 217.186C530.139 217.186 529.443 217.073 528.854 216.845C528.27 216.613 527.808 216.281 527.468 215.85C527.129 215.415 526.921 214.893 526.847 214.284H529.115C529.186 214.686 529.374 214.988 529.681 215.191C529.992 215.394 530.41 215.496 530.937 215.496C531.293 215.496 531.606 215.45 531.875 215.359C532.149 215.264 532.358 215.129 532.503 214.955C532.652 214.781 532.727 214.578 532.727 214.346C532.727 214.068 532.613 213.84 532.385 213.662C532.161 213.48 531.813 213.337 531.341 213.233L529.799 212.91C528.921 212.728 528.254 212.411 527.798 211.959C527.342 211.503 527.116 210.934 527.12 210.25C527.116 209.67 527.274 209.158 527.593 208.715C527.912 208.271 528.361 207.93 528.941 207.689C529.526 207.449 530.203 207.329 530.974 207.329C531.724 207.329 532.379 207.445 532.938 207.677C533.497 207.909 533.937 208.238 534.256 208.665C534.575 209.092 534.761 209.595 534.815 210.175H532.689ZM540.639 207.453H542.877V217H540.639V207.453ZM541.764 206.092C541.528 206.092 541.31 206.038 541.111 205.93C540.917 205.818 540.759 205.671 540.639 205.489C540.519 205.302 540.459 205.099 540.459 204.88C540.459 204.656 540.519 204.451 540.639 204.265C540.759 204.074 540.917 203.927 541.111 203.823C541.31 203.715 541.528 203.662 541.764 203.662C541.996 203.662 542.212 203.715 542.41 203.823C542.609 203.927 542.767 204.074 542.883 204.265C542.999 204.451 543.057 204.656 543.057 204.88C543.057 205.099 542.999 205.302 542.883 205.489C542.767 205.671 542.609 205.818 542.41 205.93C542.212 206.038 541.996 206.092 541.764 206.092ZM548.403 217.168C547.644 217.168 546.967 216.973 546.37 216.584C545.778 216.194 545.311 215.628 544.972 214.887C544.632 214.145 544.462 213.262 544.462 212.239C544.462 211.211 544.634 210.327 544.978 209.585C545.322 208.843 545.792 208.282 546.389 207.901C546.99 207.519 547.663 207.329 548.409 207.329C548.898 207.329 549.318 207.407 549.671 207.565C550.027 207.718 550.309 207.907 550.516 208.131C550.723 208.354 550.907 208.611 551.069 208.901C551.086 208.922 551.098 208.943 551.106 208.963C551.115 208.98 551.125 209.001 551.137 209.026H551.224V204.271H553.462V217H551.268V215.496H551.137C551.121 215.533 551.104 215.564 551.088 215.589C550.926 215.883 550.738 216.142 550.522 216.366C550.311 216.586 550.027 216.774 549.671 216.932C549.314 217.089 548.892 217.168 548.403 217.168ZM549.018 215.334C549.49 215.334 549.896 215.206 550.236 214.949C550.576 214.692 550.835 214.329 551.013 213.861C551.191 213.393 551.28 212.848 551.28 212.227C551.28 211.605 551.191 211.064 551.013 210.604C550.839 210.14 550.582 209.786 550.242 209.541C549.903 209.293 549.494 209.169 549.018 209.169C548.529 209.169 548.115 209.297 547.775 209.554C547.435 209.811 547.178 210.171 547.004 210.635C546.83 211.095 546.743 211.626 546.743 212.227C546.743 212.831 546.832 213.368 547.01 213.836C547.188 214.305 547.445 214.671 547.781 214.936C548.121 215.202 548.533 215.334 549.018 215.334ZM559.781 217.186C558.832 217.186 558.007 216.988 557.307 216.59C556.611 216.188 556.076 215.618 555.704 214.881C555.331 214.139 555.144 213.273 555.144 212.282C555.144 211.309 555.331 210.447 555.704 209.697C556.076 208.947 556.605 208.365 557.289 207.95C557.972 207.536 558.762 207.329 559.657 207.329C560.469 207.329 561.204 207.503 561.863 207.851C562.522 208.199 563.046 208.733 563.436 209.454C563.825 210.175 564.02 211.075 564.02 212.152V212.842H556.195V211.325H561.869C561.865 210.894 561.772 210.507 561.59 210.163C561.407 209.819 561.152 209.552 560.825 209.361C560.498 209.171 560.121 209.075 559.694 209.075C559.242 209.075 558.838 209.183 558.482 209.398C558.13 209.614 557.854 209.906 557.655 210.275C557.46 210.64 557.363 211.037 557.363 211.468V212.773C557.363 213.329 557.463 213.805 557.661 214.203C557.864 214.601 558.15 214.907 558.519 215.123C558.888 215.338 559.317 215.446 559.806 215.446C560.121 215.446 560.407 215.405 560.664 215.322C560.925 215.235 561.144 215.117 561.322 214.968C561.501 214.814 561.639 214.64 561.739 214.445H563.927C563.794 214.997 563.541 215.479 563.168 215.894C562.8 216.304 562.323 216.623 561.739 216.851C561.159 217.075 560.506 217.186 559.781 217.186ZM571.268 212.78C571.061 212.788 570.721 212.809 570.249 212.842C569.777 212.871 569.375 212.9 569.043 212.929C568.492 212.97 568.063 213.105 567.756 213.333C567.454 213.561 567.303 213.88 567.303 214.29C567.303 214.559 567.371 214.787 567.508 214.974C567.645 215.16 567.833 215.303 568.073 215.403C568.318 215.498 568.598 215.546 568.913 215.546C569.356 215.546 569.748 215.456 570.087 215.278C570.427 215.096 570.688 214.856 570.87 214.557C571.053 214.259 571.144 213.932 571.144 213.575L571.131 210.523C571.131 210.209 571.065 209.941 570.933 209.722C570.8 209.498 570.605 209.328 570.348 209.212C570.091 209.096 569.777 209.038 569.404 209.038C569.076 209.038 568.79 209.086 568.546 209.181C568.301 209.272 568.1 209.403 567.943 209.573C567.785 209.742 567.68 209.943 567.626 210.175H565.457C565.511 209.628 565.705 209.14 566.041 208.709C566.377 208.278 566.837 207.94 567.421 207.695C568.005 207.451 568.687 207.329 569.466 207.329C570.141 207.329 570.769 207.432 571.349 207.64C571.933 207.847 572.414 208.197 572.791 208.69C573.172 209.179 573.363 209.821 573.363 210.617V217H571.219V215.689H571.144C570.999 215.974 570.8 216.229 570.547 216.453C570.299 216.673 569.988 216.851 569.615 216.988C569.242 217.124 568.817 217.193 568.341 217.193C567.723 217.193 567.172 217.083 566.687 216.863C566.207 216.644 565.828 216.318 565.55 215.887C565.277 215.452 565.14 214.93 565.14 214.321C565.14 213.335 565.469 212.624 566.128 212.189C566.791 211.75 567.647 211.493 568.695 211.419C568.969 211.402 569.3 211.383 569.69 211.363C570.083 211.342 570.446 211.323 570.777 211.307C570.98 211.298 571.138 211.292 571.25 211.288L571.268 212.78ZM580.705 210.175C580.635 209.807 580.452 209.519 580.158 209.311C579.868 209.1 579.489 208.994 579.021 208.994C578.706 208.994 578.422 209.044 578.169 209.144C577.92 209.239 577.724 209.374 577.579 209.548C577.434 209.718 577.361 209.908 577.361 210.119C577.361 210.376 577.469 210.596 577.684 210.778C577.904 210.956 578.25 211.102 578.722 211.213L580.345 211.561C581.248 211.756 581.919 212.067 582.358 212.494C582.802 212.916 583.023 213.468 583.023 214.147C583.023 214.744 582.856 215.272 582.52 215.732C582.188 216.188 581.716 216.544 581.103 216.801C580.49 217.058 579.775 217.186 578.958 217.186C578.155 217.186 577.458 217.073 576.87 216.845C576.286 216.613 575.824 216.281 575.484 215.85C575.144 215.415 574.937 214.893 574.862 214.284H577.131C577.202 214.686 577.39 214.988 577.697 215.191C578.008 215.394 578.426 215.496 578.952 215.496C579.309 215.496 579.621 215.45 579.891 215.359C580.164 215.264 580.374 215.129 580.519 214.955C580.668 214.781 580.742 214.578 580.742 214.346C580.742 214.068 580.628 213.84 580.4 213.662C580.177 213.48 579.829 213.337 579.356 213.233L577.815 212.91C576.936 212.728 576.269 212.411 575.813 211.959C575.358 211.503 575.132 210.934 575.136 210.25C575.132 209.67 575.289 209.158 575.608 208.715C575.927 208.271 576.377 207.93 576.957 207.689C577.541 207.449 578.219 207.329 578.99 207.329C579.74 207.329 580.394 207.445 580.954 207.677C581.513 207.909 581.952 208.238 582.271 208.665C582.59 209.092 582.777 209.595 582.831 210.175H580.705ZM594.336 212.78C594.128 212.788 593.789 212.809 593.316 212.842C592.844 212.871 592.442 212.9 592.11 212.929C591.559 212.97 591.131 213.105 590.824 213.333C590.521 213.561 590.37 213.88 590.37 214.29C590.37 214.559 590.439 214.787 590.575 214.974C590.712 215.16 590.901 215.303 591.141 215.403C591.385 215.498 591.665 215.546 591.98 215.546C592.423 215.546 592.815 215.456 593.155 215.278C593.494 215.096 593.756 214.856 593.938 214.557C594.12 214.259 594.211 213.932 594.211 213.575L594.199 210.523C594.199 210.209 594.133 209.941 594 209.722C593.867 209.498 593.673 209.328 593.416 209.212C593.159 209.096 592.844 209.038 592.471 209.038C592.144 209.038 591.858 209.086 591.613 209.181C591.369 209.272 591.168 209.403 591.01 209.573C590.853 209.742 590.747 209.943 590.693 210.175H588.524C588.578 209.628 588.773 209.14 589.108 208.709C589.444 208.278 589.904 207.94 590.488 207.695C591.072 207.451 591.754 207.329 592.533 207.329C593.209 207.329 593.836 207.432 594.416 207.64C595.001 207.847 595.481 208.197 595.858 208.69C596.24 209.179 596.43 209.821 596.43 210.617V217H594.286V215.689H594.211C594.066 215.974 593.867 216.229 593.615 216.453C593.366 216.673 593.055 216.851 592.682 216.988C592.309 217.124 591.885 217.193 591.408 217.193C590.791 217.193 590.24 217.083 589.755 216.863C589.274 216.644 588.895 216.318 588.617 215.887C588.344 215.452 588.207 214.93 588.207 214.321C588.207 213.335 588.537 212.624 589.195 212.189C589.858 211.75 590.714 211.493 591.762 211.419C592.036 211.402 592.367 211.383 592.757 211.363C593.151 211.342 593.513 211.323 593.845 211.307C594.048 211.298 594.205 211.292 594.317 211.288L594.336 212.78ZM598.371 207.453H600.54V209.044H600.64C600.752 208.684 600.924 208.373 601.156 208.112C601.388 207.847 601.661 207.648 601.976 207.515C602.291 207.383 602.631 207.316 602.995 207.316C603.281 207.316 603.553 207.337 603.81 207.378V209.436C603.694 209.403 603.534 209.374 603.331 209.349C603.132 209.32 602.944 209.305 602.766 209.305C602.355 209.305 601.986 209.394 601.659 209.573C601.332 209.747 601.075 209.991 600.888 210.306C600.702 210.621 600.609 210.977 600.609 211.375V217H598.371V207.453ZM608.904 217.186C607.955 217.186 607.131 216.988 606.43 216.59C605.734 216.188 605.2 215.618 604.827 214.881C604.454 214.139 604.267 213.273 604.267 212.282C604.267 211.309 604.454 210.447 604.827 209.697C605.2 208.947 605.728 208.365 606.412 207.95C607.095 207.536 607.885 207.329 608.78 207.329C609.592 207.329 610.327 207.503 610.986 207.851C611.645 208.199 612.169 208.733 612.559 209.454C612.948 210.175 613.143 211.075 613.143 212.152V212.842H605.318V211.325H610.992C610.988 210.894 610.895 210.507 610.713 210.163C610.53 209.819 610.276 209.552 609.948 209.361C609.621 209.171 609.244 209.075 608.817 209.075C608.365 209.075 607.961 209.183 607.605 209.398C607.253 209.614 606.977 209.906 606.778 210.275C606.584 210.64 606.486 211.037 606.486 211.468V212.773C606.486 213.329 606.586 213.805 606.785 214.203C606.988 214.601 607.273 214.907 607.642 215.123C608.011 215.338 608.44 215.446 608.929 215.446C609.244 215.446 609.53 215.405 609.787 215.322C610.048 215.235 610.267 215.117 610.445 214.968C610.624 214.814 610.762 214.64 610.862 214.445H613.05C612.917 214.997 612.664 215.479 612.291 215.894C611.923 216.304 611.446 216.623 610.862 216.851C610.282 217.075 609.629 217.186 608.904 217.186ZM624.483 212.78C624.276 212.788 623.936 212.809 623.463 212.842C622.991 212.871 622.589 212.9 622.258 212.929C621.707 212.97 621.278 213.105 620.971 213.333C620.669 213.561 620.517 213.88 620.517 214.29C620.517 214.559 620.586 214.787 620.722 214.974C620.859 215.16 621.048 215.303 621.288 215.403C621.533 215.498 621.812 215.546 622.127 215.546C622.571 215.546 622.962 215.456 623.302 215.278C623.642 215.096 623.903 214.856 624.085 214.557C624.267 214.259 624.359 213.932 624.359 213.575L624.346 210.523C624.346 210.209 624.28 209.941 624.147 209.722C624.015 209.498 623.82 209.328 623.563 209.212C623.306 209.096 622.991 209.038 622.618 209.038C622.291 209.038 622.005 209.086 621.76 209.181C621.516 209.272 621.315 209.403 621.158 209.573C621 209.742 620.894 209.943 620.841 210.175H618.671C618.725 209.628 618.92 209.14 619.256 208.709C619.591 208.278 620.051 207.94 620.635 207.695C621.22 207.451 621.901 207.329 622.68 207.329C623.356 207.329 623.984 207.432 624.564 207.64C625.148 207.847 625.629 208.197 626.006 208.69C626.387 209.179 626.577 209.821 626.577 210.617V217H624.433V215.689H624.359C624.213 215.974 624.015 216.229 623.762 216.453C623.513 216.673 623.202 216.851 622.83 216.988C622.457 217.124 622.032 217.193 621.555 217.193C620.938 217.193 620.387 217.083 619.902 216.863C619.421 216.644 619.042 216.318 618.765 215.887C618.491 215.452 618.354 214.93 618.354 214.321C618.354 213.335 618.684 212.624 619.343 212.189C620.006 211.75 620.861 211.493 621.91 211.419C622.183 211.402 622.515 211.383 622.904 211.363C623.298 211.342 623.66 211.323 623.992 211.307C624.195 211.298 624.352 211.292 624.464 211.288L624.483 212.78ZM631.883 207.453H634.164L635.848 214.178H635.935L637.651 207.453H639.913L641.635 214.141H641.722L643.387 207.453H645.669L642.965 217H640.64L638.838 210.53H638.713L636.917 217H634.586L631.883 207.453ZM652.613 212.78C652.406 212.788 652.066 212.809 651.593 212.842C651.121 212.871 650.719 212.9 650.388 212.929C649.837 212.97 649.408 213.105 649.101 213.333C648.799 213.561 648.647 213.88 648.647 214.29C648.647 214.559 648.716 214.787 648.852 214.974C648.989 215.16 649.178 215.303 649.418 215.403C649.662 215.498 649.942 215.546 650.257 215.546C650.7 215.546 651.092 215.456 651.432 215.278C651.772 215.096 652.033 214.856 652.215 214.557C652.397 214.259 652.488 213.932 652.488 213.575L652.476 210.523C652.476 210.209 652.41 209.941 652.277 209.722C652.145 209.498 651.95 209.328 651.693 209.212C651.436 209.096 651.121 209.038 650.748 209.038C650.421 209.038 650.135 209.086 649.89 209.181C649.646 209.272 649.445 209.403 649.287 209.573C649.13 209.742 649.024 209.943 648.971 210.175H646.801C646.855 209.628 647.05 209.14 647.386 208.709C647.721 208.278 648.181 207.94 648.765 207.695C649.35 207.451 650.031 207.329 650.81 207.329C651.486 207.329 652.113 207.432 652.694 207.64C653.278 207.847 653.758 208.197 654.136 208.69C654.517 209.179 654.707 209.821 654.707 210.617V217H652.563V215.689H652.488C652.343 215.974 652.145 216.229 651.892 216.453C651.643 216.673 651.332 216.851 650.959 216.988C650.587 217.124 650.162 217.193 649.685 217.193C649.068 217.193 648.517 217.083 648.032 216.863C647.551 216.644 647.172 216.318 646.895 215.887C646.621 215.452 646.484 214.93 646.484 214.321C646.484 213.335 646.814 212.624 647.473 212.189C648.136 211.75 648.991 211.493 650.04 211.419C650.313 211.402 650.645 211.383 651.034 211.363C651.428 211.342 651.79 211.323 652.122 211.307C652.325 211.298 652.482 211.292 652.594 211.288L652.613 212.78ZM657.639 220.58C657.138 220.58 656.75 220.566 656.477 220.537L656.483 218.74C656.545 218.744 656.607 218.749 656.67 218.753C656.732 218.757 656.796 218.759 656.862 218.759C657.024 218.763 657.212 218.767 657.428 218.771C657.652 218.771 657.838 218.751 657.987 218.709C658.141 218.672 658.286 218.575 658.422 218.417C658.559 218.264 658.688 218.028 658.808 217.709L659.007 217.199L655.538 207.453H657.913L660.119 214.669H660.219L662.438 207.453H664.818L660.989 218.162C660.708 218.95 660.295 219.548 659.753 219.959C659.214 220.373 658.509 220.58 657.639 220.58ZM674.888 209.181H669.419V207.453H674.888V209.181ZM673.011 205.166V214.128C673.011 214.419 673.057 214.644 673.148 214.806C673.239 214.968 673.357 215.081 673.502 215.148C673.647 215.21 673.826 215.243 674.037 215.247C674.211 215.251 674.538 215.237 675.019 215.204V217.037C674.646 217.099 674.223 217.131 673.751 217.131C673.175 217.131 672.663 217.033 672.216 216.838C671.768 216.644 671.414 216.352 671.153 215.962C670.896 215.568 670.77 215.081 670.774 214.501V205.166H673.011ZM680.505 217.186C679.585 217.186 678.779 216.981 678.087 216.571C677.399 216.161 676.867 215.585 676.49 214.843C676.117 214.102 675.93 213.242 675.93 212.264C675.93 211.286 676.117 210.424 676.49 209.678C676.867 208.932 677.399 208.354 678.087 207.944C678.779 207.534 679.585 207.329 680.505 207.329C681.425 207.329 682.229 207.534 682.917 207.944C683.609 208.354 684.141 208.932 684.514 209.678C684.887 210.424 685.073 211.286 685.073 212.264C685.073 213.242 684.887 214.102 684.514 214.843C684.141 215.585 683.609 216.161 682.917 216.571C682.229 216.981 681.425 217.186 680.505 217.186ZM680.511 215.396C681.009 215.396 681.429 215.26 681.773 214.986C682.117 214.709 682.374 214.334 682.544 213.861C682.718 213.385 682.805 212.85 682.805 212.258C682.805 211.661 682.718 211.124 682.544 210.648C682.374 210.171 682.117 209.794 681.773 209.517C681.429 209.239 681.009 209.1 680.511 209.1C680.01 209.1 679.585 209.239 679.237 209.517C678.893 209.794 678.632 210.171 678.454 210.648C678.28 211.124 678.193 211.661 678.193 212.258C678.193 212.854 678.28 213.389 678.454 213.861C678.632 214.334 678.893 214.709 679.237 214.986C679.585 215.26 680.01 215.396 680.511 215.396ZM690.729 207.453H692.867V209.075H692.985C693.184 208.524 693.513 208.095 693.973 207.789C694.433 207.482 694.978 207.329 695.608 207.329C696.035 207.329 696.42 207.399 696.764 207.54C697.112 207.677 697.406 207.876 697.647 208.137C697.887 208.398 698.067 208.711 698.187 209.075H698.287C698.428 208.719 698.637 208.41 698.915 208.149C699.192 207.888 699.522 207.687 699.903 207.546C700.284 207.401 700.703 207.329 701.158 207.329C701.747 207.329 702.265 207.455 702.712 207.708C703.164 207.956 703.514 208.327 703.763 208.82C704.015 209.309 704.142 209.9 704.142 210.592V217H701.898V210.934C701.898 210.366 701.747 209.937 701.444 209.647C701.142 209.357 700.748 209.212 700.263 209.212C699.903 209.212 699.592 209.289 699.331 209.442C699.07 209.591 698.871 209.805 698.734 210.082C698.598 210.36 698.529 210.677 698.529 211.033V217H696.335V210.84C696.335 210.517 696.269 210.233 696.136 209.989C696.004 209.74 695.815 209.55 695.571 209.417C695.326 209.28 695.044 209.212 694.725 209.212C694.402 209.212 694.106 209.295 693.837 209.461C693.571 209.626 693.36 209.86 693.203 210.163C693.045 210.465 692.966 210.807 692.966 211.189V217H690.729V207.453ZM710.27 217.186C709.35 217.186 708.544 216.981 707.852 216.571C707.164 216.161 706.632 215.585 706.255 214.843C705.882 214.102 705.695 213.242 705.695 212.264C705.695 211.286 705.882 210.424 706.255 209.678C706.632 208.932 707.164 208.354 707.852 207.944C708.544 207.534 709.35 207.329 710.27 207.329C711.19 207.329 711.994 207.534 712.681 207.944C713.373 208.354 713.906 208.932 714.279 209.678C714.652 210.424 714.838 211.286 714.838 212.264C714.838 213.242 714.652 214.102 714.279 214.843C713.906 215.585 713.373 216.161 712.681 216.571C711.994 216.981 711.19 217.186 710.27 217.186ZM710.276 215.396C710.773 215.396 711.194 215.26 711.538 214.986C711.882 214.709 712.139 214.334 712.308 213.861C712.482 213.385 712.57 212.85 712.57 212.258C712.57 211.661 712.482 211.124 712.308 210.648C712.139 210.171 711.882 209.794 711.538 209.517C711.194 209.239 710.773 209.1 710.276 209.1C709.775 209.1 709.35 209.239 709.002 209.517C708.658 209.794 708.397 210.171 708.219 210.648C708.045 211.124 707.958 211.661 707.958 212.258C707.958 212.854 708.045 213.389 708.219 213.861C708.397 214.334 708.658 214.709 709.002 214.986C709.35 215.26 709.775 215.396 710.276 215.396ZM721.177 217H718.71L715.31 207.453H717.69L719.897 214.551H719.996L722.209 207.453H724.589L721.177 217ZM729.712 217.186C728.763 217.186 727.939 216.988 727.238 216.59C726.542 216.188 726.008 215.618 725.635 214.881C725.262 214.139 725.075 213.273 725.075 212.282C725.075 211.309 725.262 210.447 725.635 209.697C726.008 208.947 726.536 208.365 727.22 207.95C727.903 207.536 728.693 207.329 729.588 207.329C730.4 207.329 731.135 207.503 731.794 207.851C732.453 208.199 732.977 208.733 733.367 209.454C733.756 210.175 733.951 211.075 733.951 212.152V212.842H726.126V211.325H731.801C731.796 210.894 731.703 210.507 731.521 210.163C731.339 209.819 731.084 209.552 730.756 209.361C730.429 209.171 730.052 209.075 729.625 209.075C729.173 209.075 728.769 209.183 728.413 209.398C728.061 209.614 727.785 209.906 727.586 210.275C727.392 210.64 727.294 211.037 727.294 211.468V212.773C727.294 213.329 727.394 213.805 727.593 214.203C727.796 214.601 728.082 214.907 728.45 215.123C728.819 215.338 729.248 215.446 729.737 215.446C730.052 215.446 730.338 215.405 730.595 215.322C730.856 215.235 731.075 215.117 731.254 214.968C731.432 214.814 731.571 214.64 731.67 214.445H733.858C733.725 214.997 733.472 215.479 733.1 215.894C732.731 216.304 732.254 216.623 731.67 216.851C731.09 217.075 730.437 217.186 729.712 217.186ZM739.61 207.453H741.848V217H739.61V207.453ZM740.735 206.092C740.499 206.092 740.281 206.038 740.082 205.93C739.888 205.818 739.73 205.671 739.61 205.489C739.49 205.302 739.43 205.099 739.43 204.88C739.43 204.656 739.49 204.451 739.61 204.265C739.73 204.074 739.888 203.927 740.082 203.823C740.281 203.715 740.499 203.662 740.735 203.662C740.967 203.662 741.183 203.715 741.381 203.823C741.58 203.927 741.738 204.074 741.854 204.265C741.97 204.451 742.028 204.656 742.028 204.88C742.028 205.099 741.97 205.302 741.854 205.489C741.738 205.671 741.58 205.818 741.381 205.93C741.183 206.038 740.967 206.092 740.735 206.092ZM746.062 217H743.825V207.453H745.963V209.075H746.081C746.226 208.715 746.431 208.404 746.696 208.143C746.965 207.882 747.287 207.681 747.659 207.54C748.032 207.399 748.453 207.329 748.921 207.329C749.58 207.329 750.154 207.47 750.643 207.751C751.136 208.033 751.517 208.445 751.787 208.988C752.056 209.527 752.191 210.171 752.191 210.921V217H749.953V211.263C749.953 210.84 749.878 210.476 749.729 210.169C749.584 209.863 749.371 209.628 749.089 209.467C748.807 209.305 748.474 209.224 748.088 209.224C747.691 209.224 747.338 209.311 747.032 209.485C746.729 209.655 746.491 209.906 746.317 210.238C746.147 210.565 746.062 210.954 746.062 211.406V217ZM758.905 209.181H753.435V207.453H758.905V209.181ZM757.028 205.166V214.128C757.028 214.419 757.073 214.644 757.165 214.806C757.256 214.968 757.374 215.081 757.519 215.148C757.664 215.21 757.842 215.243 758.053 215.247C758.227 215.251 758.555 215.237 759.035 215.204V217.037C758.662 217.099 758.24 217.131 757.767 217.131C757.191 217.131 756.68 217.033 756.232 216.838C755.785 216.644 755.43 216.352 755.169 215.962C754.912 215.568 754.786 215.081 754.79 214.501V205.166H757.028ZM764.521 217.186C763.602 217.186 762.796 216.981 762.104 216.571C761.416 216.161 760.883 215.585 760.506 214.843C760.133 214.102 759.947 213.242 759.947 212.264C759.947 211.286 760.133 210.424 760.506 209.678C760.883 208.932 761.416 208.354 762.104 207.944C762.796 207.534 763.602 207.329 764.521 207.329C765.441 207.329 766.245 207.534 766.933 207.944C767.625 208.354 768.158 208.932 768.53 209.678C768.903 210.424 769.09 211.286 769.09 212.264C769.09 213.242 768.903 214.102 768.53 214.843C768.158 215.585 767.625 216.161 766.933 216.571C766.245 216.981 765.441 217.186 764.521 217.186ZM764.528 215.396C765.025 215.396 765.446 215.26 765.789 214.986C766.133 214.709 766.39 214.334 766.56 213.861C766.734 213.385 766.821 212.85 766.821 212.258C766.821 211.661 766.734 211.124 766.56 210.648C766.39 210.171 766.133 209.794 765.789 209.517C765.446 209.239 765.025 209.1 764.528 209.1C764.026 209.1 763.602 209.239 763.254 209.517C762.91 209.794 762.649 210.171 762.47 210.648C762.296 211.124 762.209 211.661 762.209 212.258C762.209 212.854 762.296 213.389 762.47 213.861C762.649 214.334 762.91 214.709 763.254 214.986C763.602 215.26 764.026 215.396 764.528 215.396ZM780.146 210.175C780.076 209.807 779.894 209.519 779.599 209.311C779.309 209.1 778.93 208.994 778.462 208.994C778.147 208.994 777.863 209.044 777.611 209.144C777.362 209.239 777.165 209.374 777.02 209.548C776.875 209.718 776.803 209.908 776.803 210.119C776.803 210.376 776.91 210.596 777.126 210.778C777.345 210.956 777.691 211.102 778.164 211.213L779.786 211.561C780.689 211.756 781.361 212.067 781.8 212.494C782.243 212.916 782.465 213.468 782.465 214.147C782.465 214.744 782.297 215.272 781.961 215.732C781.63 216.188 781.157 216.544 780.544 216.801C779.931 217.058 779.216 217.186 778.4 217.186C777.596 217.186 776.9 217.073 776.311 216.845C775.727 216.613 775.265 216.281 774.925 215.85C774.586 215.415 774.378 214.893 774.304 214.284H776.573C776.643 214.686 776.832 214.988 777.138 215.191C777.449 215.394 777.867 215.496 778.394 215.496C778.75 215.496 779.063 215.45 779.332 215.359C779.606 215.264 779.815 215.129 779.96 214.955C780.109 214.781 780.184 214.578 780.184 214.346C780.184 214.068 780.07 213.84 779.842 213.662C779.618 213.48 779.27 213.337 778.798 213.233L777.256 212.91C776.378 212.728 775.711 212.411 775.255 211.959C774.799 211.503 774.573 210.934 774.577 210.25C774.573 209.67 774.731 209.158 775.05 208.715C775.369 208.271 775.818 207.93 776.399 207.689C776.983 207.449 777.66 207.329 778.431 207.329C779.181 207.329 779.836 207.445 780.395 207.677C780.954 207.909 781.394 208.238 781.713 208.665C782.032 209.092 782.218 209.595 782.272 210.175H780.146ZM784.005 207.453H786.199V209.026H786.335C786.352 209.001 786.364 208.98 786.373 208.963C786.381 208.943 786.391 208.922 786.404 208.901C786.561 208.615 786.746 208.36 786.957 208.137C787.172 207.909 787.454 207.718 787.802 207.565C788.154 207.407 788.577 207.329 789.07 207.329C789.816 207.329 790.487 207.519 791.084 207.901C791.685 208.282 792.155 208.843 792.495 209.585C792.835 210.327 793.005 211.211 793.005 212.239C793.005 213.262 792.837 214.145 792.501 214.887C792.165 215.628 791.699 216.194 791.103 216.584C790.506 216.973 789.831 217.168 789.076 217.168C788.579 217.168 788.15 217.087 787.79 216.925C787.433 216.764 787.145 216.569 786.926 216.341C786.71 216.109 786.524 215.844 786.366 215.546C786.362 215.537 786.356 215.529 786.348 215.521C786.344 215.512 786.34 215.504 786.335 215.496H786.242V220.58H784.005V207.453ZM786.199 212.227C786.199 212.848 786.288 213.393 786.466 213.861C786.644 214.329 786.901 214.692 787.237 214.949C787.576 215.206 787.982 215.334 788.455 215.334C788.94 215.334 789.354 215.202 789.698 214.936C790.042 214.671 790.299 214.305 790.469 213.836C790.643 213.368 790.73 212.831 790.73 212.227C790.73 211.626 790.645 211.095 790.475 210.635C790.305 210.171 790.048 209.811 789.704 209.554C789.36 209.297 788.944 209.169 788.455 209.169C787.978 209.169 787.57 209.293 787.23 209.541C786.895 209.786 786.638 210.14 786.46 210.604C786.286 211.064 786.199 211.605 786.199 212.227ZM800.281 212.78C800.074 212.788 799.734 212.809 799.262 212.842C798.789 212.871 798.387 212.9 798.056 212.929C797.505 212.97 797.076 213.105 796.769 213.333C796.467 213.561 796.315 213.88 796.315 214.29C796.315 214.559 796.384 214.787 796.521 214.974C796.657 215.16 796.846 215.303 797.086 215.403C797.331 215.498 797.61 215.546 797.925 215.546C798.369 215.546 798.76 215.456 799.1 215.278C799.44 215.096 799.701 214.856 799.883 214.557C800.065 214.259 800.157 213.932 800.157 213.575L800.144 210.523C800.144 210.209 800.078 209.941 799.945 209.722C799.813 209.498 799.618 209.328 799.361 209.212C799.104 209.096 798.789 209.038 798.416 209.038C798.089 209.038 797.803 209.086 797.559 209.181C797.314 209.272 797.113 209.403 796.956 209.573C796.798 209.742 796.693 209.943 796.639 210.175H794.469C794.523 209.628 794.718 209.14 795.054 208.709C795.389 208.278 795.849 207.94 796.434 207.695C797.018 207.451 797.699 207.329 798.478 207.329C799.154 207.329 799.782 207.432 800.362 207.64C800.946 207.847 801.427 208.197 801.804 208.69C802.185 209.179 802.376 209.821 802.376 210.617V217H800.231V215.689H800.157C800.012 215.974 799.813 216.229 799.56 216.453C799.311 216.673 799.001 216.851 798.628 216.988C798.255 217.124 797.83 217.193 797.353 217.193C796.736 217.193 796.185 217.083 795.7 216.863C795.219 216.644 794.84 216.318 794.563 215.887C794.289 215.452 794.152 214.93 794.152 214.321C794.152 213.335 794.482 212.624 795.141 212.189C795.804 211.75 796.659 211.493 797.708 211.419C797.981 211.402 798.313 211.383 798.702 211.363C799.096 211.342 799.458 211.323 799.79 211.307C799.993 211.298 800.15 211.292 800.262 211.288L800.281 212.78ZM808.481 217.186C807.544 217.186 806.73 216.979 806.038 216.565C805.35 216.151 804.822 215.573 804.453 214.831C804.089 214.085 803.906 213.229 803.906 212.264C803.906 211.298 804.093 210.443 804.466 209.697C804.839 208.947 805.369 208.365 806.057 207.95C806.745 207.536 807.546 207.329 808.462 207.329C809.229 207.329 809.912 207.47 810.513 207.751C811.118 208.033 811.597 208.433 811.949 208.951C812.305 209.469 812.508 210.068 812.558 210.747H810.426C810.364 210.436 810.248 210.159 810.078 209.914C809.912 209.666 809.695 209.473 809.426 209.336C809.16 209.2 808.852 209.131 808.499 209.131C808.035 209.131 807.627 209.256 807.275 209.504C806.927 209.753 806.656 210.111 806.461 210.579C806.266 211.044 806.169 211.593 806.169 212.227C806.169 212.873 806.264 213.432 806.455 213.905C806.649 214.373 806.921 214.733 807.269 214.986C807.617 215.235 808.027 215.359 808.499 215.359C808.831 215.359 809.129 215.297 809.395 215.173C809.66 215.044 809.881 214.86 810.06 214.619C810.238 214.379 810.36 214.089 810.426 213.749H812.558C812.504 214.425 812.305 215.021 811.962 215.539C811.618 216.057 811.147 216.461 810.551 216.751C809.954 217.041 809.264 217.186 808.481 217.186ZM818.312 217.186C817.363 217.186 816.539 216.988 815.838 216.59C815.142 216.188 814.608 215.618 814.235 214.881C813.862 214.139 813.675 213.273 813.675 212.282C813.675 211.309 813.862 210.447 814.235 209.697C814.608 208.947 815.136 208.365 815.82 207.95C816.504 207.536 817.293 207.329 818.188 207.329C819 207.329 819.736 207.503 820.394 207.851C821.053 208.199 821.577 208.733 821.967 209.454C822.356 210.175 822.551 211.075 822.551 212.152V212.842H814.726V211.325H820.401C820.396 210.894 820.303 210.507 820.121 210.163C819.939 209.819 819.684 209.552 819.356 209.361C819.029 209.171 818.652 209.075 818.225 209.075C817.774 209.075 817.37 209.183 817.013 209.398C816.661 209.614 816.385 209.906 816.187 210.275C815.992 210.64 815.894 211.037 815.894 211.468V212.773C815.894 213.329 815.994 213.805 816.193 214.203C816.396 214.601 816.682 214.907 817.05 215.123C817.419 215.338 817.848 215.446 818.337 215.446C818.652 215.446 818.938 215.405 819.195 215.322C819.456 215.235 819.675 215.117 819.854 214.968C820.032 214.814 820.171 214.64 820.27 214.445H822.458C822.325 214.997 822.073 215.479 821.7 215.894C821.331 216.304 820.854 216.623 820.27 216.851C819.69 217.075 819.037 217.186 818.312 217.186ZM825.194 218.914H823.236L827.338 203.674H829.296L825.194 218.914ZM17.8985 229.181H12.2673V227.453H17.8985V229.181ZM13.6906 226.546C13.6906 225.932 13.8108 225.412 14.0511 224.985C14.2914 224.555 14.6354 224.229 15.0829 224.01C15.5304 223.786 16.0587 223.674 16.6678 223.674C16.9206 223.674 17.1671 223.686 17.4075 223.711C17.6478 223.736 17.8736 223.769 18.0849 223.811V225.582C17.7949 225.545 17.5297 225.526 17.2894 225.526C16.8294 225.526 16.4876 225.624 16.2638 225.818C16.0401 226.013 15.9282 226.322 15.9282 226.744V237H13.6906V226.546ZM25.42 227.453H27.6514V237H25.4884V235.309H25.389C25.2439 235.67 25.0347 235.987 24.7612 236.26C24.4919 236.53 24.1666 236.741 23.7854 236.894C23.4083 237.048 22.9856 237.124 22.5174 237.124C21.8876 237.124 21.3323 236.983 20.8517 236.702C20.3751 236.416 20.0022 236.003 19.7329 235.465C19.4677 234.926 19.3351 234.282 19.3351 233.532V227.453H21.5727V233.19C21.5727 233.588 21.6493 233.936 21.8026 234.234C21.9559 234.532 22.1673 234.762 22.4366 234.924C22.7059 235.086 23.0209 235.166 23.3814 235.166C23.7253 235.166 24.0547 235.084 24.3696 234.918C24.6845 234.748 24.9373 234.501 25.1279 234.178C25.3227 233.851 25.42 233.453 25.42 232.985V227.453ZM34.3803 229.181H28.9107V227.453H34.3803V229.181ZM32.5032 225.166V234.128C32.5032 234.419 32.5488 234.644 32.6399 234.806C32.7311 234.968 32.8492 235.081 32.9942 235.148C33.1392 235.21 33.3174 235.243 33.5287 235.247C33.7028 235.251 34.0301 235.237 34.5108 235.204V237.037C34.1379 237.099 33.7152 237.131 33.2428 237.131C32.6669 237.131 32.1551 237.033 31.7076 236.838C31.2601 236.644 30.9058 236.352 30.6448 235.962C30.3879 235.568 30.2615 235.081 30.2656 234.501V225.166H32.5032ZM42.0229 227.453H44.2543V237H42.0913V235.309H41.9918C41.8468 235.67 41.6376 235.987 41.3641 236.26C41.0947 236.53 40.7695 236.741 40.3883 236.894C40.0112 237.048 39.5885 237.124 39.1203 237.124C38.4905 237.124 37.9352 236.983 37.4545 236.702C36.978 236.416 36.6051 236.003 36.3358 235.465C36.0706 234.926 35.938 234.282 35.938 233.532V227.453H38.1755V233.19C38.1755 233.588 38.2522 233.936 38.4055 234.234C38.5588 234.532 38.7702 234.762 39.0395 234.924C39.3088 235.086 39.6237 235.166 39.9842 235.166C40.3282 235.166 40.6576 235.084 40.9725 234.918C41.2874 234.748 41.5402 234.501 41.7308 234.178C41.9255 233.851 42.0229 233.453 42.0229 232.985V227.453ZM46.2345 227.453H48.4037V229.044H48.5032C48.6151 228.684 48.787 228.373 49.0191 228.112C49.2511 227.847 49.5246 227.648 49.8395 227.515C50.1544 227.383 50.4942 227.316 50.8588 227.316C51.1448 227.316 51.4162 227.337 51.6731 227.378V229.436C51.5571 229.403 51.3975 229.374 51.1945 229.349C50.9956 229.32 50.8071 229.305 50.6289 229.305C50.2187 229.305 49.8499 229.394 49.5225 229.573C49.1952 229.747 48.9383 229.991 48.7518 230.306C48.5653 230.621 48.4721 230.977 48.4721 231.375V237H46.2345V227.453ZM56.7674 237.186C55.8185 237.186 54.9939 236.988 54.2936 236.59C53.5975 236.188 53.063 235.618 52.69 234.881C52.3171 234.139 52.1306 233.273 52.1306 232.282C52.1306 231.309 52.3171 230.447 52.69 229.697C53.063 228.947 53.5913 228.365 54.275 227.95C54.9587 227.536 55.748 227.329 56.6431 227.329C57.4552 227.329 58.1907 227.503 58.8496 227.851C59.5084 228.199 60.0326 228.733 60.4221 229.454C60.8116 230.175 61.0063 231.075 61.0063 232.152V232.842H53.1811V231.325H58.8558C58.8516 230.894 58.7584 230.507 58.5761 230.163C58.3938 229.819 58.1389 229.552 57.8116 229.361C57.4842 229.171 57.1072 229.075 56.6804 229.075C56.2287 229.075 55.8247 229.183 55.4684 229.398C55.1161 229.614 54.8406 229.906 54.6417 230.275C54.4469 230.64 54.3496 231.037 54.3496 231.468V232.773C54.3496 233.329 54.449 233.805 54.6479 234.203C54.8509 234.601 55.1369 234.907 55.5056 235.123C55.8744 235.338 56.3033 235.446 56.7922 235.446C57.1072 235.446 57.3931 235.405 57.65 235.322C57.911 235.235 58.1306 235.117 58.3088 234.968C58.487 234.814 58.6258 234.64 58.7253 234.445H60.9131C60.7805 234.997 60.5277 235.479 60.1548 235.894C59.786 236.304 59.3095 236.623 58.7253 236.851C58.1451 237.075 57.4925 237.186 56.7674 237.186ZM63.649 238.914H61.6912L65.7934 223.674H67.7512L63.649 238.914ZM68.8449 227.453H70.9831V229.075H71.1011C71.3 228.524 71.6295 228.095 72.0894 227.789C72.5494 227.482 73.0942 227.329 73.7241 227.329C74.1509 227.329 74.5362 227.399 74.8802 227.54C75.2282 227.677 75.5224 227.876 75.7627 228.137C76.0031 228.398 76.1833 228.711 76.3035 229.075H76.4029C76.5438 228.719 76.7531 228.41 77.0307 228.149C77.3083 227.888 77.6377 227.687 78.019 227.546C78.4002 227.401 78.8187 227.329 79.2745 227.329C79.8629 227.329 80.3808 227.455 80.8284 227.708C81.28 227.956 81.6302 228.327 81.8788 228.82C82.1315 229.309 82.2579 229.9 82.2579 230.592V237H80.0141V230.934C80.0141 230.366 79.8629 229.937 79.5604 229.647C79.2579 229.357 78.8643 229.212 78.3795 229.212C78.019 229.212 77.7082 229.289 77.4471 229.442C77.1861 229.591 76.9872 229.805 76.8505 230.082C76.7137 230.36 76.6453 230.677 76.6453 231.033V237H74.4513V230.84C74.4513 230.517 74.385 230.233 74.2524 229.989C74.1198 229.74 73.9313 229.55 73.6868 229.417C73.4423 229.28 73.1605 229.212 72.8415 229.212C72.5183 229.212 72.222 229.295 71.9527 229.461C71.6875 229.626 71.4761 229.86 71.3187 230.163C71.1612 230.465 71.0825 230.807 71.0825 231.189V237H68.8449V227.453ZM85.2125 240.58C84.7112 240.58 84.3237 240.566 84.0503 240.537L84.0565 238.74C84.1186 238.744 84.1808 238.749 84.2429 238.753C84.3051 238.757 84.3693 238.759 84.4356 238.759C84.5972 238.763 84.7858 238.767 85.0012 238.771C85.225 238.771 85.4114 238.751 85.5606 238.709C85.7139 238.672 85.859 238.575 85.9957 238.417C86.1324 238.264 86.2609 238.028 86.3811 237.709L86.5799 237.199L83.1117 227.453H85.486L87.6925 234.669H87.792L90.0109 227.453H92.3914L88.5627 238.162C88.2809 238.95 87.8686 239.548 87.3258 239.959C86.7871 240.373 86.0827 240.58 85.2125 240.58ZM99.0229 230.175C98.9524 229.807 98.7701 229.519 98.4759 229.311C98.1859 229.1 97.8067 228.994 97.3385 228.994C97.0236 228.994 96.7397 229.044 96.487 229.144C96.2384 229.239 96.0415 229.374 95.8965 229.548C95.7515 229.718 95.679 229.908 95.679 230.119C95.679 230.376 95.7867 230.596 96.0022 230.778C96.2218 230.956 96.5678 231.102 97.0402 231.213L98.6624 231.561C99.5657 231.756 100.237 232.067 100.676 232.494C101.12 232.916 101.341 233.468 101.341 234.147C101.341 234.744 101.173 235.272 100.838 235.732C100.506 236.188 100.034 236.544 99.4207 236.801C98.8074 237.058 98.0926 237.186 97.2763 237.186C96.4725 237.186 95.7763 237.073 95.1879 236.845C94.6037 236.613 94.1417 236.281 93.8019 235.85C93.4621 235.415 93.2549 234.893 93.1803 234.284H95.449C95.5194 234.686 95.708 234.988 96.0146 235.191C96.3254 235.394 96.7439 235.496 97.2701 235.496C97.6265 235.496 97.9393 235.45 98.2087 235.359C98.4821 235.264 98.6914 235.129 98.8364 234.955C98.9856 234.781 99.0602 234.578 99.0602 234.346C99.0602 234.068 98.9462 233.84 98.7183 233.662C98.4946 233.48 98.1465 233.337 97.6741 233.233L96.1327 232.91C95.2542 232.728 94.5871 232.411 94.1313 231.959C93.6755 231.503 93.4497 230.934 93.4538 230.25C93.4497 229.67 93.6071 229.158 93.9262 228.715C94.2453 228.271 94.6948 227.93 95.275 227.689C95.8592 227.449 96.5367 227.329 97.3074 227.329C98.0574 227.329 98.7121 227.445 99.2715 227.677C99.8309 227.909 100.27 228.238 100.589 228.665C100.908 229.092 101.095 229.595 101.149 230.175H99.0229ZM107.63 229.181H102.16V227.453H107.63V229.181ZM105.753 225.166V234.128C105.753 234.419 105.798 234.644 105.889 234.806C105.981 234.968 106.099 235.081 106.244 235.148C106.389 235.21 106.567 235.243 106.778 235.247C106.952 235.251 107.28 235.237 107.76 235.204V237.037C107.387 237.099 106.965 237.131 106.492 237.131C105.916 237.131 105.405 237.033 104.957 236.838C104.51 236.644 104.155 236.352 103.894 235.962C103.637 235.568 103.511 235.081 103.515 234.501V225.166H105.753ZM113.308 237.186C112.36 237.186 111.535 236.988 110.835 236.59C110.139 236.188 109.604 235.618 109.231 234.881C108.858 234.139 108.672 233.273 108.672 232.282C108.672 231.309 108.858 230.447 109.231 229.697C109.604 228.947 110.132 228.365 110.816 227.95C111.5 227.536 112.289 227.329 113.184 227.329C113.996 227.329 114.732 227.503 115.391 227.851C116.049 228.199 116.574 228.733 116.963 229.454C117.353 230.175 117.547 231.075 117.547 232.152V232.842H109.722V231.325H115.397C115.393 230.894 115.299 230.507 115.117 230.163C114.935 229.819 114.68 229.552 114.353 229.361C114.025 229.171 113.648 229.075 113.221 229.075C112.77 229.075 112.366 229.183 112.009 229.398C111.657 229.614 111.382 229.906 111.183 230.275C110.988 230.64 110.891 231.037 110.891 231.468V232.773C110.891 233.329 110.99 233.805 111.189 234.203C111.392 234.601 111.678 234.907 112.047 235.123C112.416 235.338 112.844 235.446 113.333 235.446C113.648 235.446 113.934 235.405 114.191 235.322C114.452 235.235 114.672 235.117 114.85 234.968C115.028 234.814 115.167 234.64 115.266 234.445H117.454C117.322 234.997 117.069 235.479 116.696 235.894C116.327 236.304 115.851 236.623 115.266 236.851C114.686 237.075 114.034 237.186 113.308 237.186ZM119.115 227.453H121.284V229.044H121.383C121.495 228.684 121.667 228.373 121.899 228.112C122.131 227.847 122.405 227.648 122.72 227.515C123.035 227.383 123.375 227.316 123.739 227.316C124.025 227.316 124.296 227.337 124.553 227.378V229.436C124.437 229.403 124.278 229.374 124.075 229.349C123.876 229.32 123.687 229.305 123.509 229.305C123.099 229.305 122.73 229.394 122.403 229.573C122.075 229.747 121.819 229.991 121.632 230.306C121.446 230.621 121.352 230.977 121.352 231.375V237H119.115V227.453ZM127.361 240.58C126.86 240.58 126.473 240.566 126.199 240.537L126.205 238.74C126.267 238.744 126.33 238.749 126.392 238.753C126.454 238.757 126.518 238.759 126.584 238.759C126.746 238.763 126.935 238.767 127.15 238.771C127.374 238.771 127.56 238.751 127.709 238.709C127.863 238.672 128.008 238.575 128.145 238.417C128.281 238.264 128.41 238.028 128.53 237.709L128.729 237.199L125.261 227.453H127.635L129.841 234.669H129.941L132.16 227.453H134.54L130.712 238.162C130.43 238.95 130.017 239.548 129.475 239.959C128.936 240.373 128.232 240.58 127.361 240.58ZM136.546 237.137C136.302 237.137 136.074 237.075 135.863 236.95C135.651 236.826 135.484 236.662 135.359 236.459C135.239 236.252 135.181 236.024 135.185 235.776C135.181 235.531 135.239 235.305 135.359 235.098C135.484 234.887 135.651 234.723 135.863 234.607C136.074 234.487 136.302 234.427 136.546 234.427C136.787 234.427 137.013 234.487 137.224 234.607C137.435 234.723 137.601 234.887 137.721 235.098C137.845 235.309 137.908 235.535 137.908 235.776C137.908 236.02 137.845 236.246 137.721 236.453C137.601 236.66 137.435 236.826 137.224 236.95C137.013 237.075 136.787 237.137 136.546 237.137Z" fill="white"/>
</g>
</svg>
